<svg xmlns="http://www.w3.org/2000/svg" width="900" height="900" viewBox="0 0 900 900"><path d="M462.5 48.8Q462.5 47.5 470 47.5Q477.5 47.5 477.5 48.8Q477.5 50 480 50Q482.5 50 483.8 53.8Q485 57.5 486.3 57.5Q487.5 57.5 487.5 62.5Q487.5 67.5 486.3 67.5Q485 67.5 482.5 71.3Q480 75 477.5 75Q475 75 475 76.3Q475 77.5 468.8 77.5Q462.5 77.5 462.5 81.3Q462.5 85 465 85Q467.5 85 467.5 86.3Q467.5 87.5 470 87.5Q472.5 87.5 472.5 88.8Q472.5 90 475 90Q477.5 90 477.5 91.3Q477.5 92.5 490 93.8Q502.5 95 502.5 96.3Q502.5 97.5 503.8 97.5Q505 97.5 506.3 100Q507.5 102.5 510 102.5Q512.5 102.5 512.5 103.8Q512.5 105 513.8 105Q515 105 515 103.8Q515 102.5 522.5 102.5Q530 102.5 530 103.8Q530 105 532.5 105Q535 105 535 106.3Q535 107.5 537.5 108.8Q540 110 540 116.3Q540 122.5 541.3 122.5Q542.5 122.5 543.8 125Q545 127.5 548.8 127.5Q552.5 127.5 552.5 128.8Q552.5 130 555 131.3Q557.5 132.5 557.5 137.5Q557.5 142.5 562.5 142.5Q567.5 142.5 567.5 143.8Q567.5 145 571.3 145Q575 145 575 146.3Q575 147.5 578.8 146.3Q582.5 145 581.3 135Q580 125 581.3 125Q582.5 125 583.8 122.5Q585 120 590 118.8Q595 117.5 597.5 113.8Q600 110 603.8 110Q607.5 110 607.5 108.8Q607.5 107.5 612.5 106.3Q617.5 105 620 101.3Q622.5 97.5 628.8 96.3Q635 95 635 96.3Q635 97.5 640 97.5Q645 97.5 646.3 100Q647.5 102.5 650 102.5Q652.5 102.5 652.5 101.3Q652.5 100 655 100Q657.5 100 658.8 97.5Q660 95 662.5 95Q665 95 665 93.8Q665 92.5 667.5 92.5Q670 92.5 670 91.3Q670 90 673.8 90Q677.5 90 677.5 91.3Q677.5 92.5 681.3 93.8Q685 95 685 105Q685 115 683.8 115Q682.5 115 681.3 118.8Q680 122.5 677.5 122.5Q675 122.5 675 123.8Q675 125 668.8 125Q662.5 125 662.5 123.8Q662.5 122.5 657.5 121.3Q652.5 120 651.3 122.5Q650 125 647.5 125Q645 125 646.3 128.8Q647.5 132.5 652.5 132.5Q657.5 132.5 657.5 133.8Q657.5 135 658.8 135Q660 135 660 140Q660 145 658.8 145Q657.5 145 656.3 147.5Q655 150 648.8 150Q642.5 150 642.5 152.5Q642.5 155 646.3 156.3Q650 157.5 650 158.8Q650 160 655 160Q660 160 660 158.8Q660 157.5 661.3 157.5Q662.5 157.5 663.8 155Q665 152.5 667.5 152.5Q670 152.5 670 151.3Q670 150 677.5 150Q685 150 685 151.3Q685 152.5 687.5 152.5Q690 152.5 690 153.8Q690 155 693.8 157.5Q697.5 160 697.5 162.5Q697.5 165 698.8 165Q700 165 700 166.3Q700 167.5 702.5 168.8Q705 170 705 172.5Q705 175 706.3 175Q707.5 175 707.5 180Q707.5 185 706.3 185Q705 185 703.8 188.8Q702.5 192.5 703.8 192.5Q705 192.5 705 195Q705 197.5 706.3 197.5Q707.5 197.5 708.8 201.3Q710 205 711.3 205Q712.5 205 712.5 207.5Q712.5 210 711.3 210Q710 210 710 222.5Q710 235 711.3 235Q712.5 235 712.5 236.3Q712.5 237.5 716.3 237.5Q720 237.5 720 236.3Q720 235 721.3 235Q722.5 235 723.8 232.5Q725 230 727.5 230Q730 230 730 228.8Q730 227.5 738.8 227.5Q747.5 227.5 752.5 233.8Q757.5 240 758.8 240Q760 240 762.5 236.3Q765 232.5 767.5 232.5Q770 232.5 770 231.3Q770 230 780 230Q790 230 790 231.3Q790 232.5 793.8 235Q797.5 237.5 797.5 240Q797.5 242.5 798.8 242.5Q800 242.5 800 246.3Q800 250 798.8 250Q797.5 250 795 257.5Q792.5 265 791.3 265Q790 265 788.8 267.5Q787.5 270 783.8 270Q780 270 780 268.8Q780 267.5 777.5 267.5Q775 267.5 773.8 265Q772.5 262.5 770 262.5Q767.5 262.5 768.8 266.3Q770 270 771.3 270Q772.5 270 772.5 272.5Q772.5 275 773.8 275Q775 275 775 277.5Q775 280 780 283.8Q785 287.5 783.8 300Q782.5 312.5 785 312.5Q787.5 312.5 790 308.8Q792.5 305 798.8 303.8Q805 302.5 805 301.3Q805 300 810 300Q815 300 815 301.3Q815 302.5 817.5 302.5Q820 302.5 820 303.8Q820 305 823.8 307.5Q827.5 310 827.5 317.5Q827.5 325 826.3 325Q825 325 823.8 327.5Q822.5 330 820 330Q817.5 330 812.5 336.3Q807.5 342.5 803.8 342.5Q800 342.5 800 345Q800 347.5 798.8 347.5Q797.5 347.5 797.5 348.8Q797.5 350 798.8 350Q800 350 800 352.5Q800 355 798.8 355Q797.5 355 797.5 360Q797.5 365 796.3 365Q795 365 793.8 367.5Q792.5 370 787.5 370Q782.5 370 782.5 368.8Q782.5 367.5 777.5 366.3Q772.5 365 773.8 368.8Q775 372.5 776.3 372.5Q777.5 372.5 777.5 376.3Q777.5 380 776.3 380Q775 380 773.8 382.5Q772.5 385 770 385Q767.5 385 767.5 391.3Q767.5 397.5 766.3 397.5Q765 397.5 765 400Q765 402.5 763.8 402.5Q762.5 402.5 762.5 406.3Q762.5 410 763.8 410Q765 410 765 412.5Q765 415 766.3 415Q767.5 415 767.5 418.8Q767.5 422.5 770 422.5Q772.5 422.5 773.8 420Q775 417.5 780 417.5Q785 417.5 785 416.3Q785 415 787.5 415Q790 415 790 413.8Q790 412.5 795 412.5Q800 412.5 800 413.8Q800 415 802.5 415Q805 415 807.5 421.3Q810 427.5 816.3 427.5Q822.5 427.5 822.5 428.8Q822.5 430 825 430Q827.5 430 828.8 433.8Q830 437.5 831.3 437.5Q832.5 437.5 832.5 442.5Q832.5 447.5 836.3 447.5Q840 447.5 840 448.8Q840 450 842.5 450Q845 450 845 451.3Q845 452.5 847.5 453.8Q850 455 851.3 460Q852.5 465 851.3 465Q850 465 850 467.5Q850 470 847.5 471.3Q845 472.5 845 475Q845 477.5 847.5 477.5Q850 477.5 850 478.8Q850 480 852.5 481.3Q855 482.5 855 485Q855 487.5 856.3 487.5Q857.5 487.5 860 491.3Q862.5 495 865 495Q867.5 495 868.8 497.5Q870 500 882.5 500Q895 500 895 501.3Q895 502.5 897.5 502.5Q900 502.5 900 515Q900 527.5 898.8 527.5Q897.5 527.5 897.5 528.8Q897.5 530 895 530Q892.5 530 892.5 531.3Q892.5 532.5 885 532.5Q877.5 532.5 877.5 531.3Q877.5 530 876.3 530Q875 530 875 531.3Q875 532.5 872.5 532.5Q870 532.5 870 533.8Q870 535 866.3 536.3Q862.5 537.5 862.5 538.8Q862.5 540 853.8 538.8Q845 537.5 845 542.5Q845 547.5 847.5 548.8Q850 550 851.3 556.3Q852.5 562.5 851.3 562.5Q850 562.5 850 565Q850 567.5 848.8 567.5Q847.5 567.5 845 571.3Q842.5 575 840 575Q837.5 575 837.5 576.3Q837.5 577.5 831.3 577.5Q825 577.5 825 576.3Q825 575 820 575Q815 575 815 573.8Q815 572.5 811.3 573.8Q807.5 575 807.5 576.3Q807.5 577.5 808.8 577.5Q810 577.5 808.8 585Q807.5 592.5 811.3 595Q815 597.5 815 602.5Q815 607.5 813.8 607.5Q812.5 607.5 812.5 610Q812.5 612.5 811.3 612.5Q810 612.5 808.8 615Q807.5 617.5 803.8 617.5Q800 617.5 800 618.8Q800 620 798.8 620Q797.5 620 797.5 623.8Q797.5 627.5 796.3 627.5Q795 627.5 792.5 631.3Q790 635 781.3 635Q772.5 635 772.5 633.8Q772.5 632.5 768.8 630Q765 627.5 765 621.3Q765 615 770 611.3Q775 607.5 775 605Q775 602.5 773.8 602.5Q772.5 602.5 771.3 605Q770 607.5 766.3 607.5Q762.5 607.5 762.5 608.8Q762.5 610 760 611.3Q757.5 612.5 757.5 617.5Q757.5 622.5 756.3 622.5Q755 622.5 753.8 625Q752.5 627.5 745 627.5Q737.5 627.5 737.5 626.3Q737.5 625 736.3 625Q735 625 736.3 616.3Q737.5 607.5 735 607.5Q732.5 607.5 732.5 611.3Q732.5 615 731.3 615Q730 615 727.5 618.8Q725 622.5 720 622.5Q715 622.5 715 623.8Q715 625 711.3 626.3Q707.5 627.5 708.8 631.3Q710 635 713.8 637.5Q717.5 640 717.5 647.5Q717.5 655 716.3 655Q715 655 713.8 657.5Q712.5 660 710 660Q707.5 660 706.3 663.8Q705 667.5 706.3 667.5Q707.5 667.5 707.5 668.8Q707.5 670 715 670Q722.5 670 722.5 671.3Q722.5 672.5 725 673.8Q727.5 675 727.5 681.3Q727.5 687.5 726.3 687.5Q725 687.5 722.5 691.3Q720 695 706.3 693.8Q692.5 692.5 692.5 693.8Q692.5 695 690 696.3Q687.5 697.5 687.5 700Q687.5 702.5 691.3 702.5Q695 702.5 695 701.3Q695 700 700 701.3Q705 702.5 705 703.8Q705 705 706.3 705Q707.5 705 707.5 710Q707.5 715 711.3 717.5Q715 720 715 726.3Q715 732.5 713.8 732.5Q712.5 732.5 710 736.3Q707.5 740 700 741.3Q692.5 742.5 692.5 741.3Q692.5 740 690 740Q687.5 740 687.5 738.8Q687.5 737.5 683.8 736.3Q680 735 680 736.3Q680 737.5 678.8 737.5Q677.5 737.5 677.5 743.8Q677.5 750 676.3 750Q675 750 675 751.3Q675 752.5 666.3 752.5Q657.5 752.5 657.5 751.3Q657.5 750 655 748.8Q652.5 747.5 652.5 743.8Q652.5 740 648.8 740Q645 740 645 741.3Q645 742.5 638.8 742.5Q632.5 742.5 632.5 741.3Q632.5 740 630 740Q627.5 740 627.5 738.8Q627.5 737.5 625 736.3Q622.5 735 622.5 730Q622.5 725 621.3 725Q620 725 620 723.8Q620 722.5 617.5 722.5Q615 722.5 615 723.8Q615 725 613.8 725Q612.5 725 611.3 727.5Q610 730 607.5 730Q605 730 605 731.3Q605 732.5 592.5 730Q580 727.5 581.3 738.8Q582.5 750 578.8 751.3Q575 752.5 575 755Q575 757.5 582.5 763.8Q590 770 590 772.5Q590 775 588.8 775Q587.5 775 586.3 778.8Q585 782.5 577.5 782.5Q570 782.5 570 781.3Q570 780 563.8 781.3Q557.5 782.5 557.5 786.3Q557.5 790 561.3 791.3Q565 792.5 565 796.3Q565 800 563.8 800Q562.5 800 561.3 802.5Q560 805 555 805Q550 805 550 803.8Q550 802.5 547.5 801.3Q545 800 545 796.3Q545 792.5 547.5 791.3Q550 790 550 787.5Q550 785 546.3 785Q542.5 785 538.8 790Q535 795 532.5 795Q530 795 530 796.3Q530 797.5 528.8 797.5Q527.5 797.5 525 801.3Q522.5 805 520 805Q517.5 805 516.3 807.5Q515 810 511.3 810Q507.5 810 507.5 808.8Q507.5 807.5 503.8 806.3Q500 805 500 800Q500 795 502.5 793.8Q505 792.5 505 788.8Q505 785 501.3 785Q497.5 785 497.5 786.3Q497.5 787.5 493.8 788.8Q490 790 490 791.3Q490 792.5 483.8 792.5Q477.5 792.5 477.5 791.3Q477.5 790 475 790Q472.5 790 472.5 788.8Q472.5 787.5 468.8 787.5Q465 787.5 465 788.8Q465 790 462.5 791.3Q460 792.5 460 795Q460 797.5 456.3 798.8Q452.5 800 452.5 801.3Q452.5 802.5 447.5 802.5Q442.5 802.5 442.5 801.3Q442.5 800 438.8 797.5Q435 795 435 792.5Q435 790 432.5 790Q430 790 426.3 795Q422.5 800 426.3 801.3Q430 802.5 430 803.8Q430 805 435 808.8Q440 812.5 440 817.5Q440 822.5 438.8 822.5Q437.5 822.5 437.5 825Q437.5 827.5 433.8 828.8Q430 830 430 831.3Q430 832.5 427.5 832.5Q425 832.5 422.5 836.3Q420 840 411.3 841.3Q402.5 842.5 402.5 841.3Q402.5 840 400 840Q397.5 840 397.5 838.8Q397.5 837.5 393.8 835Q390 832.5 390 830Q390 827.5 388.8 827.5Q387.5 827.5 387.5 823.8Q387.5 820 388.8 820Q390 820 388.8 816.3Q387.5 812.5 385 812.5Q382.5 812.5 382.5 813.8Q382.5 815 378.8 816.3Q375 817.5 375 818.8Q375 820 365 820Q355 820 355 818.8Q355 817.5 351.3 815Q347.5 812.5 347.5 810Q347.5 807.5 346.3 807.5Q345 807.5 345 805Q345 802.5 346.3 802.5Q347.5 802.5 347.5 797.5Q347.5 792.5 343.8 791.3Q340 790 340 788.8Q340 787.5 337.5 787.5Q335 787.5 335 786.3Q335 785 332.5 783.8Q330 782.5 330 775Q330 767.5 331.3 767.5Q332.5 767.5 332.5 766.3Q332.5 765 331.3 765Q330 765 328.8 761.3Q327.5 757.5 325 757.5Q322.5 757.5 322.5 758.8Q322.5 760 318.8 761.3Q315 762.5 315 763.8Q315 765 310 765Q305 765 305 763.8Q305 762.5 301.3 761.3Q297.5 760 296.3 755Q295 750 296.3 750Q297.5 750 297.5 747.5Q297.5 745 300 743.8Q302.5 742.5 302.5 740Q302.5 737.5 305 736.3Q307.5 735 307.5 731.3Q307.5 727.5 308.8 727.5Q310 727.5 312.5 723.8Q315 720 317.5 720Q320 720 320 718.8Q320 717.5 328.8 717.5Q337.5 717.5 337.5 715Q337.5 712.5 336.3 712.5Q335 712.5 335 700Q335 687.5 336.3 687.5Q337.5 687.5 338.8 685Q340 682.5 342.5 682.5Q345 682.5 345 681.3Q345 680 351.3 680Q357.5 680 357.5 676.3Q357.5 672.5 355 671.3Q352.5 670 351.3 663.8Q350 657.5 351.3 657.5Q352.5 657.5 353.8 653.8Q355 650 360 648.8Q365 647.5 365 642.5Q365 637.5 360 635Q355 632.5 355 633.8Q355 635 352.5 635Q350 635 350 638.8Q350 642.5 348.8 642.5Q347.5 642.5 346.3 645Q345 647.5 342.5 647.5Q340 647.5 340 648.8Q340 650 330 650Q320 650 320 652.5Q320 655 318.8 655Q317.5 655 315 658.8Q312.5 662.5 302.5 662.5Q292.5 662.5 290 658.8Q287.5 655 282.5 655Q277.5 655 277.5 656.3Q277.5 657.5 275 657.5Q272.5 657.5 272.5 656.3Q272.5 655 268.8 655Q265 655 263.8 652.5Q262.5 650 256.3 650Q250 650 250 648.8Q250 647.5 246.3 645Q242.5 642.5 241.3 637.5Q240 632.5 241.3 632.5Q242.5 632.5 242.5 628.8Q242.5 625 243.8 625Q245 625 247.5 621.3Q250 617.5 245 613.8Q240 610 238.8 605Q237.5 600 236.3 600Q235 600 235 598.8Q235 597.5 231.3 597.5Q227.5 597.5 227.5 598.8Q227.5 600 225 600Q222.5 600 222.5 601.3Q222.5 602.5 218.8 602.5Q215 602.5 215 601.3Q215 600 212.5 600Q210 600 210 598.8Q210 597.5 207.5 596.3Q205 595 205 588.8Q205 582.5 206.3 582.5Q207.5 582.5 208.8 580Q210 577.5 212.5 577.5Q215 577.5 215 576.3Q215 575 220 575Q225 575 225 567.5Q225 560 226.3 560Q227.5 560 227.5 557.5Q227.5 555 226.3 555Q225 555 225 551.3Q225 547.5 221.3 545Q217.5 542.5 217.5 538.8Q217.5 535 218.8 535Q220 535 221.3 532.5Q222.5 530 215 527.5Q207.5 525 207.5 523.8Q207.5 522.5 203.8 520Q200 517.5 200 511.3Q200 505 201.3 505Q202.5 505 205 501.3Q207.5 497.5 210 497.5Q212.5 497.5 212.5 496.3Q212.5 495 218.8 495Q225 495 225 496.3Q225 497.5 228.8 497.5Q232.5 497.5 232.5 498.8Q232.5 500 235 500Q237.5 500 237.5 498.8Q237.5 497.5 242.5 497.5Q247.5 497.5 247.5 496.3Q247.5 495 246.3 495Q245 495 243.8 492.5Q242.5 490 232.5 490Q222.5 490 222.5 488.8Q222.5 487.5 217.5 487.5Q212.5 487.5 212.5 486.3Q212.5 485 210 485Q207.5 485 207.5 483.8Q207.5 482.5 202.5 482.5Q197.5 482.5 197.5 483.8Q197.5 485 196.3 485Q195 485 195 488.8Q195 492.5 193.8 492.5Q192.5 492.5 191.3 495Q190 497.5 187.5 497.5Q185 497.5 185 498.8Q185 500 178.8 500Q172.5 500 172.5 498.8Q172.5 497.5 170 497.5Q167.5 497.5 163.8 492.5Q160 487.5 156.3 487.5Q152.5 487.5 152.5 486.3Q152.5 485 148.8 482.5Q145 480 145 473.8Q145 467.5 142.5 466.3Q140 465 140 457.5Q140 450 143.8 447.5Q147.5 445 147.5 441.3Q147.5 437.5 146.3 437.5Q145 437.5 145 436.3Q145 435 138.8 435Q132.5 435 132.5 433.8Q132.5 432.5 130 431.3Q127.5 430 126.3 425Q125 420 126.3 420Q127.5 420 127.5 417.5Q127.5 415 128.8 415Q130 415 131.3 412.5Q132.5 410 141.3 410Q150 410 155 417.5Q160 425 163.8 425Q167.5 425 167.5 416.3Q167.5 407.5 165 407.5Q162.5 407.5 162.5 406.3Q162.5 405 160 405Q157.5 405 157.5 403.8Q157.5 402.5 155 401.3Q152.5 400 152.5 395Q152.5 390 153.8 390Q155 390 155 387.5Q155 385 153.8 385Q152.5 385 152.5 382.5Q152.5 380 150 378.8Q147.5 377.5 147.5 373.8Q147.5 370 148.8 370Q150 370 148.8 366.3Q147.5 362.5 135 363.8Q122.5 365 122.5 363.8Q122.5 362.5 118.8 361.3Q115 360 113.8 353.8Q112.5 347.5 113.8 347.5Q115 347.5 116.3 343.8Q117.5 340 120 340Q122.5 340 122.5 336.3Q122.5 332.5 121.3 332.5Q120 332.5 118.8 327.5Q117.5 322.5 112.5 320Q107.5 317.5 107.5 313.8Q107.5 310 100 305Q92.5 300 92.5 292.5Q92.5 285 93.8 285Q95 285 96.3 282.5Q97.5 280 102.5 278.8Q107.5 277.5 107.5 276.3Q107.5 275 113.8 275Q120 275 120 273.8Q120 272.5 121.3 272.5Q122.5 272.5 122.5 268.8Q122.5 265 123.8 265Q125 265 125 261.3Q125 257.5 126.3 257.5Q127.5 257.5 127.5 255Q127.5 252.5 128.8 252.5Q130 252.5 128.8 250Q127.5 247.5 121.3 247.5Q115 247.5 115 246.3Q115 245 112.5 245Q110 245 107.5 241.3Q105 237.5 101.3 237.5Q97.5 237.5 96.3 233.8Q95 230 93.8 230Q92.5 230 93.8 225Q95 220 96.3 220Q97.5 220 97.5 218.8Q97.5 217.5 107.5 217.5Q117.5 217.5 117.5 216.3Q117.5 215 121.3 215Q125 215 126.3 212.5Q127.5 210 135 210Q142.5 210 143.8 212.5Q145 215 150 215Q155 215 155 216.3Q155 217.5 161.3 217.5Q167.5 217.5 167.5 216.3Q167.5 215 172.5 215Q177.5 215 177.5 213.8Q177.5 212.5 178.8 212.5Q180 212.5 180 210Q180 207.5 168.8 207.5Q157.5 207.5 157.5 206.3Q157.5 205 155 205Q152.5 205 151.3 201.3Q150 197.5 148.8 197.5Q147.5 197.5 147.5 192.5Q147.5 187.5 148.8 187.5Q150 187.5 152.5 183.8Q155 180 157.5 180Q160 180 160 178.8Q160 177.5 166.3 177.5Q172.5 177.5 172.5 178.8Q172.5 180 175 180Q177.5 180 178.8 182.5Q180 185 190 183.8Q200 182.5 200 176.3Q200 170 197.5 168.8Q195 167.5 195 162.5Q195 157.5 196.3 157.5Q197.5 157.5 197.5 155Q197.5 152.5 198.8 152.5Q200 152.5 200 146.3Q200 140 201.3 140Q202.5 140 201.3 126.3Q200 112.5 201.3 112.5Q202.5 112.5 202.5 110Q202.5 107.5 206.3 105Q210 102.5 210 100Q210 97.5 211.3 97.5Q212.5 97.5 213.8 95Q215 92.5 218.8 92.5Q222.5 92.5 222.5 93.8Q222.5 95 226.3 96.3Q230 97.5 230 102.5Q230 107.5 232.5 108.8Q235 110 235 116.3Q235 122.5 236.3 122.5Q237.5 122.5 237.5 125Q237.5 127.5 240 127.5Q242.5 127.5 245 123.8Q247.5 120 250 120Q252.5 120 252.5 118.8Q252.5 117.5 255 117.5Q257.5 117.5 257.5 116.3Q257.5 115 260 115Q262.5 115 262.5 113.8Q262.5 112.5 272.5 111.3Q282.5 110 282.5 107.5Q282.5 105 278.8 102.5Q275 100 275 92.5Q275 85 276.3 85Q277.5 85 280 81.3Q282.5 77.5 291.3 77.5Q300 77.5 300 78.8Q300 80 303.8 81.3Q307.5 82.5 307.5 85Q307.5 87.5 308.8 87.5Q310 87.5 310 92.5Q310 97.5 308.8 97.5Q307.5 97.5 307.5 100Q307.5 102.5 305 103.8Q302.5 105 302.5 107.5Q302.5 110 306.3 110Q310 110 310 111.3Q310 112.5 312.5 112.5Q315 112.5 315 113.8Q315 115 317.5 115Q320 115 320 116.3Q320 117.5 323.8 117.5Q327.5 117.5 327.5 116.3Q327.5 115 331.3 113.8Q335 112.5 335 107.5Q335 102.5 336.3 102.5Q337.5 102.5 338.8 100Q340 97.5 348.8 97.5Q357.5 97.5 357.5 98.8Q357.5 100 360 101.3Q362.5 102.5 362.5 107.5Q362.5 112.5 361.3 112.5Q360 112.5 360 115Q360 117.5 366.3 117.5Q372.5 117.5 373.8 113.8Q375 110 373.8 110Q372.5 110 372.5 107.5Q372.5 105 371.3 105Q370 105 370 101.3Q370 97.5 375 93.8Q380 90 378.8 83.8Q377.5 77.5 378.8 77.5Q380 77.5 380 75Q380 72.5 381.3 72.5Q382.5 72.5 382.5 65Q382.5 57.5 383.8 57.5Q385 57.5 386.3 55Q387.5 52.5 395 52.5Q402.5 52.5 402.5 53.8Q402.5 55 405 56.3Q407.5 57.5 407.5 61.3Q407.5 65 406.3 65Q405 65 406.3 75Q407.5 85 406.3 85Q405 85 405 87.5Q405 90 400 91.3Q395 92.5 395 95Q395 97.5 397.5 98.8Q400 100 400 98.8Q400 97.5 402.5 97.5Q405 97.5 407.5 93.8Q410 90 413.8 88.8Q417.5 87.5 417.5 82.5Q417.5 77.5 418.8 77.5Q420 77.5 420 76.3Q420 75 427.5 75Q435 75 435 73.8Q435 72.5 437.5 72.5Q440 72.5 440 71.3Q440 70 443.8 70Q447.5 70 447.5 68.8Q447.5 67.5 450 66.3Q452.5 65 452.5 60Q452.5 55 453.8 55Q455 55 456.3 52.5Q457.5 50 460 50Q462.5 50 462.5 48.8ZM352.5 120Q350 120 346.3 122.5Q342.5 125 341.3 130Q340 135 343.8 137.5Q347.5 140 348.8 143.8Q350 147.5 353.8 148.8Q357.5 150 362.5 150Q367.5 150 367.5 142.5Q367.5 135 366.3 135Q365 135 365 133.8Q365 132.5 361.3 132.5Q357.5 132.5 357.5 131.3Q357.5 130 356.3 130Q355 130 355 125Q355 120 352.5 120ZM511.3 131.3Q507.5 130 506.3 130Q505 130 505 146.3Q505 162.5 506.3 162.5Q507.5 162.5 507.5 168.8Q507.5 175 511.3 175Q515 175 515 172.5Q515 170 516.3 170Q517.5 170 517.5 168.8Q517.5 167.5 518.8 167.5Q520 167.5 520 163.8Q520 160 517.5 158.8Q515 157.5 515 150Q515 142.5 517.5 141.3Q520 140 520 137.5Q520 135 517.5 135Q515 135 515 133.8Q515 132.5 511.3 131.3ZM486.3 207.5Q485 207.5 483.8 207.5Q482.5 207.5 482.5 208.8Q482.5 210 475 210Q467.5 210 467.5 212.5Q467.5 215 471.3 217.5Q475 220 475 226.3Q475 232.5 476.3 232.5Q477.5 232.5 480 232.5Q482.5 232.5 483.8 230Q485 227.5 490 227.5Q495 227.5 495 225Q495 222.5 491.3 220Q487.5 217.5 487.5 212.5Q487.5 207.5 486.3 207.5ZM526.3 217.5Q522.5 217.5 518.8 220Q515 222.5 515 225Q515 227.5 518.8 230Q522.5 232.5 522.5 236.3Q522.5 240 521.3 240Q520 240 518.8 242.5Q517.5 245 513.8 246.3Q510 247.5 510 255Q510 262.5 512.5 263.8Q515 265 515 272.5Q515 280 516.3 280Q517.5 280 517.5 282.5Q517.5 285 521.3 287.5Q525 290 525 292.5Q525 295 526.3 295Q527.5 295 527.5 296.3Q527.5 297.5 528.8 297.5Q530 297.5 530 296.3Q530 295 536.3 295Q542.5 295 542.5 296.3Q542.5 297.5 546.3 298.8Q550 300 550 305Q550 310 558.8 310Q567.5 310 567.5 311.3Q567.5 312.5 570 312.5Q572.5 312.5 572.5 313.8Q572.5 315 576.3 315Q580 315 581.3 312.5Q582.5 310 587.5 310Q592.5 310 592.5 308.8Q592.5 307.5 593.8 307.5Q595 307.5 595 306.3Q595 305 600 301.3Q605 297.5 603.8 293.8Q602.5 290 593.8 290Q585 290 585 291.3Q585 292.5 582.5 292.5Q580 292.5 580 293.8Q580 295 572.5 295Q565 295 565 293.8Q565 292.5 562.5 291.3Q560 290 560 287.5Q560 285 556.3 283.8Q552.5 282.5 547.5 276.3Q542.5 270 536.3 270Q530 270 528.8 267.5Q527.5 265 523.8 263.8Q520 262.5 520 256.3Q520 250 527.5 246.3Q535 242.5 532.5 230Q530 217.5 526.3 217.5ZM573.8 333.8Q570 332.5 563.8 335Q557.5 337.5 560 341.3Q562.5 345 566.3 345Q570 345 571.3 345Q572.5 345 572.5 346.3Q572.5 347.5 576.3 347.5Q580 347.5 578.8 341.3Q577.5 335 573.8 333.8ZM642.5 347.5Q640 347.5 638.8 347.5Q637.5 347.5 637.5 350Q637.5 352.5 635 353.8Q632.5 355 632.5 357.5Q632.5 360 636.3 361.3Q640 362.5 642.5 367.5Q645 372.5 650 372.5Q655 372.5 655 373.8Q655 375 657.5 375Q660 375 662.5 378.8Q665 382.5 667.5 383.8Q670 385 668.8 377.5Q667.5 370 666.3 370Q665 370 665 368.8Q665 367.5 663.8 367.5Q662.5 367.5 662.5 366.3Q662.5 365 661.3 365Q660 365 660 363.8Q660 362.5 658.8 362.5Q657.5 362.5 651.3 355Q645 347.5 642.5 347.5ZM335 368.8Q332.5 367.5 331.3 367.5Q330 367.5 328.8 370Q327.5 372.5 325 372.5Q322.5 372.5 322.5 373.8Q322.5 375 318.8 376.3Q315 377.5 315 380Q315 382.5 316.3 382.5Q317.5 382.5 317.5 385Q317.5 387.5 318.8 387.5Q320 387.5 320 393.8Q320 400 318.8 400Q317.5 400 317.5 403.8Q317.5 407.5 318.8 407.5Q320 407.5 320 408.8Q320 410 323.8 408.8Q327.5 407.5 327.5 402.5Q327.5 397.5 326.3 397.5Q325 397.5 325 396.3Q325 395 326.3 395Q327.5 395 327.5 388.8Q327.5 382.5 332.5 378.8Q337.5 375 337.5 372.5Q337.5 370 335 368.8ZM371.3 385Q367.5 382.5 366.3 382.5Q365 382.5 363.8 385Q362.5 387.5 360 387.5Q357.5 387.5 356.3 391.3Q355 395 352.5 396.3Q350 397.5 350 400Q350 402.5 351.3 402.5Q352.5 402.5 353.8 405Q355 407.5 357.5 407.5Q360 407.5 360 406.3Q360 405 361.3 405Q362.5 405 362.5 403.8Q362.5 402.5 371.3 402.5Q380 402.5 377.5 395Q375 387.5 371.3 385ZM727.5 382.5Q722.5 382.5 718.8 385Q715 387.5 715 391.3Q715 395 716.3 395Q717.5 395 717.5 398.8Q717.5 402.5 718.8 402.5Q720 402.5 722.5 406.3Q725 410 726.3 410Q727.5 410 727.5 408.8Q727.5 407.5 727.5 406.3Q727.5 405 725 403.8Q722.5 402.5 722.5 397.5Q722.5 392.5 726.3 391.3Q730 390 731.3 386.3Q732.5 382.5 727.5 382.5ZM632.5 402.5Q627.5 402.5 626.3 402.5Q625 402.5 625 406.3Q625 410 632.5 416.3Q640 422.5 640 428.8Q640 435 637.5 436.3Q635 437.5 635 440Q635 442.5 636.3 442.5Q637.5 442.5 638.8 446.3Q640 450 641.3 450Q642.5 450 642.5 455Q642.5 460 641.3 460Q640 460 640 461.3Q640 462.5 638.8 462.5Q637.5 462.5 631.3 470Q625 477.5 618.8 478.8Q612.5 480 612.5 487.5Q612.5 495 611.3 495Q610 495 607.5 498.8Q605 502.5 595 502.5Q585 502.5 582.5 506.3Q580 510 577.5 510Q575 510 575 511.3Q575 512.5 573.8 512.5Q572.5 512.5 572.5 518.8Q572.5 525 571.3 525Q570 525 568.8 527.5Q567.5 530 565 530Q562.5 530 562.5 531.3Q562.5 532.5 558.8 532.5Q555 532.5 555 538.8Q555 545 556.3 545Q557.5 545 557.5 548.8Q557.5 552.5 558.8 552.5Q560 552.5 560 553.8Q560 555 563.8 555Q567.5 555 567.5 556.3Q567.5 557.5 570 557.5Q572.5 557.5 572.5 558.8Q572.5 560 576.3 558.8Q580 557.5 581.3 555Q582.5 552.5 591.3 552.5Q600 552.5 600 553.8Q600 555 602.5 555Q605 555 607.5 558.8Q610 562.5 616.3 562.5Q622.5 562.5 622.5 563.8Q622.5 565 625 566.3Q627.5 567.5 627.5 572.5Q627.5 577.5 626.3 577.5Q625 577.5 625 578.8Q625 580 616.3 580Q607.5 580 606.3 582.5Q605 585 601.3 586.3Q597.5 587.5 598.8 592.5Q600 597.5 602.5 597.5Q605 597.5 605 596.3Q605 595 607.5 595Q610 595 610 593.8Q610 592.5 612.5 592.5Q615 592.5 615 591.3Q615 590 620 590Q625 590 625 588.8Q625 587.5 642.5 587.5Q660 587.5 658.8 582.5Q657.5 577.5 658.8 577.5Q660 577.5 660 575Q660 572.5 663.8 570Q667.5 567.5 667.5 565Q667.5 562.5 668.8 562.5Q670 562.5 671.3 558.8Q672.5 555 676.3 553.8Q680 552.5 680 553.8Q680 555 682.5 555Q685 555 686.3 558.8Q687.5 562.5 688.8 562.5Q690 562.5 690 563.8Q690 565 688.8 565Q687.5 565 688.8 570Q690 575 693.8 575Q697.5 575 697.5 573.8Q697.5 572.5 701.3 571.3Q705 570 705 568.8Q705 567.5 710 567.5Q715 567.5 715 568.8Q715 570 717.5 568.8Q720 567.5 720 566.3Q720 565 713.8 560Q707.5 555 707.5 552.5Q707.5 550 706.3 550Q705 550 703.8 546.3Q702.5 542.5 701.3 542.5Q700 542.5 698.8 533.8Q697.5 525 696.3 525Q695 525 695 518.8Q695 512.5 693.8 512.5Q692.5 512.5 692.5 511.3Q692.5 510 688.8 510Q685 510 685 508.8Q685 507.5 681.3 505Q677.5 502.5 677.5 492.5Q677.5 482.5 673.8 480Q670 477.5 670 471.3Q670 465 673.8 462.5Q677.5 460 677.5 457.5Q677.5 455 678.8 455Q680 455 681.3 452.5Q682.5 450 692.5 450Q702.5 450 702.5 451.3Q702.5 452.5 706.3 452.5Q710 452.5 711.3 448.8Q712.5 445 718.8 440Q725 435 725 432.5Q725 430 721.3 430Q717.5 430 716.3 427.5Q715 425 712.5 425Q710 425 710 427.5Q710 430 708.8 430Q707.5 430 706.3 432.5Q705 435 701.3 435Q697.5 435 697.5 433.8Q697.5 432.5 695 431.3Q692.5 430 692.5 426.3Q692.5 422.5 693.8 422.5Q695 422.5 695 421.3Q695 420 700 420Q705 420 705 417.5Q705 415 698.8 415Q692.5 415 692.5 413.8Q692.5 412.5 687.5 413.8Q682.5 415 682.5 413.8Q682.5 412.5 675 411.3Q667.5 410 665 413.8Q662.5 417.5 655 417.5Q647.5 417.5 645 411.3Q642.5 405 640 405Q637.5 405 637.5 403.8Q637.5 402.5 632.5 402.5ZM335 426.3Q335 425 332.5 426.3Q330 427.5 331.3 431.3Q332.5 435 333.8 435Q335 435 335 441.3Q335 447.5 333.8 447.5Q332.5 447.5 332.5 450Q332.5 452.5 328.8 455Q325 457.5 325 465Q325 472.5 321.3 475Q317.5 477.5 317.5 481.3Q317.5 485 318.8 485Q320 485 320 487.5Q320 490 321.3 490Q322.5 490 322.5 495Q322.5 500 321.3 500Q320 500 320 501.3Q320 502.5 315 502.5Q310 502.5 310 501.3Q310 500 307.5 500Q305 500 305 505Q305 510 306.3 510Q307.5 510 308.8 513.8Q310 517.5 313.8 517.5Q317.5 517.5 317.5 513.8Q317.5 510 321.3 508.8Q325 507.5 325 506.3Q325 505 328.8 505Q332.5 505 332.5 506.3Q332.5 507.5 341.3 507.5Q350 507.5 350 508.8Q350 510 352.5 511.3Q355 512.5 356.3 517.5Q357.5 522.5 356.3 522.5Q355 522.5 355 526.3Q355 530 350 532.5Q345 535 345 542.5Q345 550 348.8 550Q352.5 550 352.5 551.3Q352.5 552.5 353.8 552.5Q355 552.5 355 556.3Q355 560 353.8 560Q352.5 560 350 563.8Q347.5 567.5 348.8 567.5Q350 567.5 350 568.8Q350 570 355 570Q360 570 367.5 570Q375 570 375 568.8Q375 567.5 372.5 567.5Q370 567.5 370 566.3Q370 565 366.3 565Q362.5 565 360 560Q357.5 555 358.8 555Q360 555 361.3 551.3Q362.5 547.5 366.3 547.5Q370 547.5 371.3 545Q372.5 542.5 376.3 541.3Q380 540 378.8 531.3Q377.5 522.5 383.8 517.5Q390 512.5 390 508.8Q390 505 391.3 505Q392.5 505 391.3 496.3Q390 487.5 391.3 487.5Q392.5 487.5 392.5 486.3Q392.5 485 400 485Q407.5 485 407.5 483.8Q407.5 482.5 408.8 482.5Q410 482.5 410 478.8Q410 475 408.8 475Q407.5 475 406.3 472.5Q405 470 402.5 470Q400 470 400 468.8Q400 467.5 397.5 466.3Q395 465 393.8 460Q392.5 455 391.3 455Q390 455 388.8 452.5Q387.5 450 382.5 448.8Q377.5 447.5 375 442.5Q372.5 437.5 367.5 437.5Q362.5 437.5 362.5 436.3Q362.5 435 358.8 432.5Q355 430 355 427.5Q355 425 350 425Q345 425 345 426.3Q345 427.5 340 427.5Q335 427.5 335 426.3ZM462.5 450Q460 450 456.3 451.3Q452.5 452.5 452.5 453.8Q452.5 455 446.3 455Q440 455 440 457.5Q440 460 443.8 462.5Q447.5 465 447.5 470Q447.5 475 446.3 475Q445 475 445 477.5Q445 480 441.3 481.3Q437.5 482.5 437.5 485Q437.5 487.5 437.5 488.8Q437.5 490 441.3 490Q445 490 446.3 486.3Q447.5 482.5 448.8 482.5Q450 482.5 450 480Q450 477.5 453.8 475Q457.5 472.5 458.8 467.5Q460 462.5 462.5 461.3Q465 460 465 455Q465 450 462.5 450ZM670 533.8Q670 532.5 677.5 532.5Q685 532.5 685 533.8Q685 535 686.3 535Q687.5 535 687.5 540Q687.5 545 685 546.3Q682.5 547.5 682.5 548.8Q682.5 550 677.5 550Q672.5 550 672.5 548.8Q672.5 547.5 670 546.3Q667.5 545 667.5 540Q667.5 535 668.8 535Q670 535 670 533.8ZM857.5 543.8Q857.5 542.5 863.8 542.5Q870 542.5 870 543.8Q870 545 871.3 545Q872.5 545 872.5 550Q872.5 555 871.3 555Q870 555 870 556.3Q870 557.5 865 557.5Q860 557.5 860 556.3Q860 555 857.5 555Q855 555 855 550Q855 545 856.3 545Q857.5 545 857.5 543.8ZM381.3 570Q377.5 570 376.3 570Q375 570 375 571.3Q375 572.5 378.8 575Q382.5 577.5 382.5 585Q382.5 592.5 377.5 596.3Q372.5 600 372.5 602.5Q372.5 605 370 606.3Q367.5 607.5 367.5 610Q367.5 612.5 371.3 615Q375 617.5 376.3 621.3Q377.5 625 383.8 625Q390 625 390 626.3Q390 627.5 392.5 627.5Q395 627.5 395 628.8Q395 630 396.3 630Q397.5 630 398.8 632.5Q400 635 402.5 633.8Q405 632.5 405 628.8Q405 625 403.8 625Q402.5 625 403.8 618.8Q405 612.5 403.8 612.5Q402.5 612.5 402.5 610Q402.5 607.5 401.3 607.5Q400 607.5 400 605Q400 602.5 398.8 602.5Q397.5 602.5 397.5 600Q397.5 597.5 396.3 597.5Q395 597.5 393.8 587.5Q392.5 577.5 391.3 577.5Q390 577.5 387.5 573.8Q385 570 381.3 570ZM392.5 652.5Q390 652.5 388.8 652.5Q387.5 652.5 387.5 658.8Q387.5 665 388.8 665Q390 665 390 666.3Q390 667.5 397.5 667.5Q405 667.5 405 668.8Q405 670 407.5 670Q410 670 413.8 675Q417.5 680 418.8 680Q420 680 421.3 677.5Q422.5 675 422.5 672.5Q422.5 670 426.3 668.8Q430 667.5 428.8 665Q427.5 662.5 415 661.3Q402.5 660 402.5 658.8Q402.5 657.5 400 657.5Q397.5 657.5 396.3 655Q395 652.5 392.5 652.5ZM462.5 655Q455 652.5 453.8 652.5Q452.5 652.5 452.5 655Q452.5 657.5 451.3 657.5Q450 657.5 447.5 661.3Q445 665 441.3 665Q437.5 665 437.5 667.5Q437.5 670 438.8 670Q440 670 438.8 680Q437.5 690 445 692.5Q452.5 695 452.5 690Q452.5 685 451.3 685Q450 685 450 680Q450 675 451.3 675Q452.5 675 452.5 672.5Q452.5 670 456.3 668.8Q460 667.5 460 666.3Q460 665 465 665Q470 665 470 661.3Q470 657.5 462.5 655Z" fill="#486815" fill-rule="evenodd" stroke="#102303" stroke-width="2.2" stroke-linejoin="round"/><path d="M462.5 48.8Q462.5 47.5 470 47.5Q477.5 47.5 477.5 48.8Q477.5 50 480 50Q482.5 50 483.8 53.8Q485 57.5 486.3 57.5Q487.5 57.5 487.5 62.5Q487.5 67.5 486.3 67.5Q485 67.5 482.5 71.3Q480 75 477.5 75Q475 75 475 76.3Q475 77.5 468.8 77.5Q462.5 77.5 462.5 81.3Q462.5 85 465 85Q467.5 85 467.5 86.3Q467.5 87.5 470 87.5Q472.5 87.5 472.5 88.8Q472.5 90 475 90Q477.5 90 477.5 91.3Q477.5 92.5 490 93.8Q502.5 95 502.5 96.3Q502.5 97.5 503.8 97.5Q505 97.5 506.3 100Q507.5 102.5 510 102.5Q512.5 102.5 512.5 103.8Q512.5 105 513.8 105Q515 105 515 103.8Q515 102.5 522.5 102.5Q530 102.5 530 103.8Q530 105 532.5 105Q535 105 535 106.3Q535 107.5 537.5 108.8Q540 110 540 116.3Q540 122.5 541.3 122.5Q542.5 122.5 543.8 125Q545 127.5 547.5 127.5Q550 127.5 550 130Q550 132.5 548.8 132.5Q547.5 132.5 547.5 133.8Q547.5 135 540 135Q532.5 135 532.5 133.8Q532.5 132.5 530 133.8Q527.5 135 523.8 136.3Q520 137.5 520 136.3Q520 135 517.5 135Q515 135 515 133.8Q515 132.5 512.5 132.5Q510 132.5 510 131.3Q510 130 507.5 130Q505 130 505 131.3Q505 132.5 498.8 132.5Q492.5 132.5 492.5 131.3Q492.5 130 483.8 130Q475 130 475 128.8Q475 127.5 458.8 127.5Q442.5 127.5 442.5 126.3Q442.5 125 438.8 125Q435 125 433.8 122.5Q432.5 120 430 120Q427.5 120 427.5 118.8Q427.5 117.5 425 116.3Q422.5 115 422.5 112.5Q422.5 110 421.3 110Q420 110 420 107.5Q420 105 418.8 105Q417.5 105 417.5 100Q417.5 95 416.3 95Q415 95 416.3 86.3Q417.5 77.5 418.8 77.5Q420 77.5 420 76.3Q420 75 427.5 75Q435 75 435 73.8Q435 72.5 437.5 72.5Q440 72.5 440 71.3Q440 70 443.8 70Q447.5 70 447.5 68.8Q447.5 67.5 450 66.3Q452.5 65 452.5 60Q452.5 55 453.8 55Q455 55 456.3 52.5Q457.5 50 460 50Q462.5 50 462.5 48.8ZM196.3 163.8Q197.5 160 202.5 161.3Q207.5 162.5 207.5 163.8Q207.5 165 210 166.3Q212.5 167.5 212.5 170Q212.5 172.5 213.8 172.5Q215 172.5 215 190Q215 207.5 213.8 207.5Q212.5 207.5 212.5 210Q212.5 212.5 210 213.8Q207.5 215 207.5 225Q207.5 235 208.8 235Q210 235 210 268.8Q210 302.5 211.3 302.5Q212.5 302.5 212.5 307.5Q212.5 312.5 213.8 312.5Q215 312.5 216.3 320Q217.5 327.5 218.8 327.5Q220 327.5 222.5 335Q225 342.5 227.5 343.8Q230 345 230 347.5Q230 350 231.3 350Q232.5 350 232.5 352.5Q232.5 355 233.8 355Q235 355 235 361.3Q235 367.5 236.3 367.5Q237.5 367.5 241.3 372.5Q245 377.5 248.8 378.8Q252.5 380 252.5 385Q252.5 390 248.8 391.3Q245 392.5 243.8 395Q242.5 397.5 243.8 397.5Q245 397.5 246.3 400Q247.5 402.5 250 402.5Q252.5 402.5 252.5 403.8Q252.5 405 258.8 405Q265 405 265 406.3Q265 407.5 270 407.5Q275 407.5 275 408.8Q275 410 277.5 410Q280 410 286.3 417.5Q292.5 425 297.5 423.8Q302.5 422.5 306.3 415Q310 407.5 312.5 407.5Q315 407.5 315 411.3Q315 415 313.8 415Q312.5 415 312.5 418.8Q312.5 422.5 311.3 422.5Q310 422.5 308.8 443.8Q307.5 465 306.3 465Q305 465 305 467.5Q305 470 303.8 470Q302.5 470 300 473.8Q297.5 477.5 295 477.5Q292.5 477.5 292.5 478.8Q292.5 480 283.8 480Q275 480 275 481.3Q275 482.5 257.5 482.5Q240 482.5 240 481.3Q240 480 228.8 478.8Q217.5 477.5 217.5 476.3Q217.5 475 213.8 475Q210 475 210 473.8Q210 472.5 206.3 472.5Q202.5 472.5 202.5 471.3Q202.5 470 197.5 470Q192.5 470 192.5 468.8Q192.5 467.5 182.5 467.5Q172.5 467.5 172.5 466.3Q172.5 465 170 463.8Q167.5 462.5 166.3 451.3Q165 440 163.8 440Q162.5 440 162.5 436.3Q162.5 432.5 161.3 432.5Q160 432.5 160 428.8Q160 425 163.8 425Q167.5 425 167.5 416.3Q167.5 407.5 165 407.5Q162.5 407.5 162.5 406.3Q162.5 405 160 405Q157.5 405 157.5 403.8Q157.5 402.5 155 401.3Q152.5 400 152.5 395Q152.5 390 153.8 390Q155 390 155 387.5Q155 385 153.8 385Q152.5 385 152.5 382.5Q152.5 380 150 378.8Q147.5 377.5 147.5 373.8Q147.5 370 148.8 370Q150 370 150 368.8Q150 367.5 148.8 367.5Q147.5 367.5 147.5 365Q147.5 362.5 142.5 362.5Q137.5 362.5 137.5 363.8Q137.5 365 133.8 363.8Q130 362.5 130 357.5Q130 352.5 128.8 352.5Q127.5 352.5 127.5 350Q127.5 347.5 126.3 347.5Q125 347.5 125 345Q125 342.5 123.8 342.5Q122.5 342.5 122.5 337.5Q122.5 332.5 121.3 332.5Q120 332.5 118.8 327.5Q117.5 322.5 113.8 321.3Q110 320 110 318.8Q110 317.5 108.8 317.5Q107.5 317.5 107.5 313.8Q107.5 310 100 305Q92.5 300 92.5 292.5Q92.5 285 93.8 285Q95 285 96.3 282.5Q97.5 280 102.5 278.8Q107.5 277.5 107.5 276.3Q107.5 275 113.8 275Q120 275 120 273.8Q120 272.5 121.3 272.5Q122.5 272.5 122.5 268.8Q122.5 265 123.8 265Q125 265 125 261.3Q125 257.5 126.3 257.5Q127.5 257.5 128.8 253.8Q130 250 128.8 250Q127.5 250 127.5 248.8Q127.5 247.5 121.3 247.5Q115 247.5 115 246.3Q115 245 112.5 245Q110 245 107.5 241.3Q105 237.5 101.3 237.5Q97.5 237.5 97.5 236.3Q97.5 235 96.3 235Q95 235 95 231.3Q95 227.5 101.3 227.5Q107.5 227.5 107.5 226.3Q107.5 225 116.3 223.8Q125 222.5 125 221.3Q125 220 130 218.8Q135 217.5 136.3 215Q137.5 212.5 146.3 213.8Q155 215 155 216.3Q155 217.5 166.3 216.3Q177.5 215 178.8 211.3Q180 207.5 168.8 207.5Q157.5 207.5 157.5 206.3Q157.5 205 155 205Q152.5 205 151.3 201.3Q150 197.5 151.3 197.5Q152.5 197.5 153.8 190Q155 182.5 156.3 182.5Q157.5 182.5 158.8 180Q160 177.5 166.3 177.5Q172.5 177.5 172.5 178.8Q172.5 180 175 180Q177.5 180 178.8 182.5Q180 185 190 183.8Q200 182.5 200 176.3Q200 170 197.5 168.8Q195 167.5 196.3 163.8ZM730 228.8Q730 227.5 738.8 227.5Q747.5 227.5 752.5 233.8Q757.5 240 758.8 240Q760 240 760 238.8Q760 237.5 763.8 237.5Q767.5 237.5 767.5 238.8Q767.5 240 768.8 240Q770 240 771.3 246.3Q772.5 252.5 773.8 252.5Q775 252.5 775 257.5Q775 262.5 771.3 262.5Q767.5 262.5 767.5 263.8Q767.5 265 768.8 265Q770 265 772.5 272.5Q775 280 773.8 280Q772.5 280 771.3 285Q770 290 768.8 290Q767.5 290 767.5 291.3Q767.5 292.5 766.3 292.5Q765 292.5 765 293.8Q765 295 763.8 295Q762.5 295 756.3 302.5Q750 310 747.5 310Q745 310 745 311.3Q745 312.5 742.5 312.5Q740 312.5 740 313.8Q740 315 737.5 315Q735 315 735 316.3Q735 317.5 730 317.5Q725 317.5 711.3 317.5Q697.5 317.5 697.5 316.3Q697.5 315 691.3 313.8Q685 312.5 685 311.3Q685 310 682.5 308.8Q680 307.5 680 302.5Q680 297.5 678.8 297.5Q677.5 297.5 677.5 288.8Q677.5 280 681.3 277.5Q685 275 685 267.5Q685 260 686.3 260Q687.5 260 686.3 252.5Q685 245 686.3 245Q687.5 245 687.5 243.8Q687.5 242.5 691.3 243.8Q695 245 695 243.8Q695 242.5 697.5 242.5Q700 242.5 700 241.3Q700 240 703.8 238.8Q707.5 237.5 707.5 236.3Q707.5 235 713.8 236.3Q720 237.5 720 236.3Q720 235 721.3 235Q722.5 235 723.8 232.5Q725 230 727.5 230Q730 230 730 228.8ZM352.5 313.8Q352.5 312.5 357.5 312.5Q362.5 312.5 363.8 316.3Q365 320 371.3 320Q377.5 320 377.5 322.5Q377.5 325 378.8 325Q380 325 380 327.5Q380 330 381.3 330Q382.5 330 382.5 332.5Q382.5 335 383.8 335Q385 335 385 340Q385 345 386.3 345Q387.5 345 387.5 357.5Q387.5 370 386.3 370Q385 370 383.8 376.3Q382.5 382.5 381.3 382.5Q380 382.5 380 383.8Q380 385 375 385Q370 385 370 383.8Q370 382.5 365 381.3Q360 380 360 381.3Q360 382.5 357.5 383.8Q355 385 355 388.8Q355 392.5 353.8 392.5Q352.5 392.5 352.5 393.8Q352.5 395 345 395Q337.5 395 337.5 382.5Q337.5 370 336.3 370Q335 370 335 368.8Q335 367.5 330 368.8Q325 370 323.8 366.3Q322.5 362.5 321.3 362.5Q320 362.5 321.3 357.5Q322.5 352.5 328.8 347.5Q335 342.5 335 335Q335 327.5 336.3 327.5Q337.5 327.5 337.5 325Q337.5 322.5 341.3 321.3Q345 320 345 318.8Q345 317.5 348.8 316.3Q352.5 315 352.5 313.8ZM627.5 330Q627.5 322.5 631.3 322.5Q635 322.5 635 323.8Q635 325 643.8 325Q652.5 325 652.5 326.3Q652.5 327.5 656.3 327.5Q660 327.5 660 328.8Q660 330 663.8 332.5Q667.5 335 667.5 340Q667.5 345 668.8 345Q670 345 670 356.3Q670 367.5 666.3 367.5Q662.5 367.5 662.5 366.3Q662.5 365 661.3 365Q660 365 660 363.8Q660 362.5 658.8 362.5Q657.5 362.5 651.3 355Q645 347.5 641.3 347.5Q637.5 347.5 637.5 350Q637.5 352.5 635 353.8Q632.5 355 632.5 357.5Q632.5 360 636.3 361.3Q640 362.5 642.5 367.5Q645 372.5 650 372.5Q655 372.5 655 373.8Q655 375 657.5 375Q660 375 660 376.3Q660 377.5 662.5 378.8Q665 380 665 383.8Q665 387.5 663.8 387.5Q662.5 387.5 657.5 393.8Q652.5 400 647.5 400Q642.5 400 642.5 398.8Q642.5 397.5 635 397.5Q627.5 397.5 627.5 398.8Q627.5 400 625 400Q622.5 400 622.5 398.8Q622.5 397.5 621.3 397.5Q620 397.5 620 393.8Q620 390 617.5 388.8Q615 387.5 613.8 381.3Q612.5 375 611.3 375Q610 375 610 361.3Q610 347.5 611.3 347.5Q612.5 347.5 612.5 346.3Q612.5 345 616.3 345Q620 345 620 343.8Q620 342.5 623.8 340Q627.5 337.5 627.5 330ZM440 428.8Q440 427.5 450 427.5Q460 427.5 460 428.8Q460 430 462.5 430Q465 430 465 431.3Q465 432.5 468.8 435Q472.5 437.5 472.5 440Q472.5 442.5 473.8 442.5Q475 442.5 475 445Q475 447.5 476.3 447.5Q477.5 447.5 477.5 451.3Q477.5 455 476.3 455Q475 455 473.8 460Q472.5 465 467.5 466.3Q462.5 467.5 463.8 458.8Q465 450 461.3 450Q457.5 450 457.5 451.3Q457.5 452.5 455 452.5Q452.5 452.5 452.5 453.8Q452.5 455 446.3 455Q440 455 440 457.5Q440 460 442.5 461.3Q445 462.5 445 466.3Q445 470 437.5 467.5Q430 465 430 463.8Q430 462.5 426.3 460Q422.5 457.5 422.5 450Q422.5 442.5 423.8 442.5Q425 442.5 425 440Q425 437.5 426.3 437.5Q427.5 437.5 430 433.8Q432.5 430 436.3 430Q440 430 440 428.8ZM720 478.8Q720 477.5 726.3 477.5Q732.5 477.5 732.5 478.8Q732.5 480 741.3 481.3Q750 482.5 750 483.8Q750 485 755 486.3Q760 487.5 761.3 490Q762.5 492.5 765 492.5Q767.5 492.5 768.8 495Q770 497.5 772.5 497.5Q775 497.5 776.3 500Q777.5 502.5 780 502.5Q782.5 502.5 783.8 505Q785 507.5 787.5 507.5Q790 507.5 791.3 510Q792.5 512.5 798.8 513.8Q805 515 805 516.3Q805 517.5 807.5 517.5Q810 517.5 810 516.3Q810 515 823.8 515Q837.5 515 837.5 516.3Q837.5 517.5 842.5 517.5Q847.5 517.5 847.5 518.8Q847.5 520 851.3 520Q855 520 855 521.3Q855 522.5 860 523.8Q865 525 865 526.3Q865 527.5 867.5 528.8Q870 530 868.8 533.8Q867.5 537.5 865 537.5Q862.5 537.5 862.5 538.8Q862.5 540 853.8 538.8Q845 537.5 845 542.5Q845 547.5 847.5 548.8Q850 550 850 553.8Q850 557.5 848.8 557.5Q847.5 557.5 847.5 558.8Q847.5 560 845 560Q842.5 560 842.5 561.3Q842.5 562.5 840 562.5Q837.5 562.5 837.5 563.8Q837.5 565 833.8 565Q830 565 830 566.3Q830 567.5 826.3 567.5Q822.5 567.5 822.5 568.8Q822.5 570 817.5 570Q812.5 570 803.8 570Q795 570 795 571.3Q795 572.5 788.8 573.8Q782.5 575 782.5 576.3Q782.5 577.5 780 577.5Q777.5 577.5 777.5 578.8Q777.5 580 773.8 580Q770 580 770 581.3Q770 582.5 766.3 582.5Q762.5 582.5 762.5 583.8Q762.5 585 753.8 585Q745 585 745 586.3Q745 587.5 741.3 587.5Q737.5 587.5 735 583.8Q732.5 580 726.3 578.8Q720 577.5 720 576.3Q720 575 717.5 575Q715 575 715 573.8Q715 572.5 711.3 572.5Q707.5 572.5 707.5 570Q707.5 567.5 711.3 567.5Q715 567.5 715 568.8Q715 570 716.3 570Q717.5 570 718.8 567.5Q720 565 718.8 565Q717.5 565 717.5 563.8Q717.5 562.5 712.5 558.8Q707.5 555 707.5 552.5Q707.5 550 705 548.8Q702.5 547.5 701.3 541.3Q700 535 698.8 535Q697.5 535 697.5 530Q697.5 525 696.3 525Q695 525 695 518.8Q695 512.5 693.8 512.5Q692.5 512.5 692.5 511.3Q692.5 510 688.8 510Q685 510 685 505Q685 500 686.3 500Q687.5 500 687.5 497.5Q687.5 495 688.8 495Q690 495 691.3 492.5Q692.5 490 695 490Q697.5 490 698.8 487.5Q700 485 702.5 485Q705 485 705 483.8Q705 482.5 707.5 482.5Q710 482.5 710 481.3Q710 480 715 480Q720 480 720 478.8ZM338.8 510Q340 507.5 345 507.5Q350 507.5 350 508.8Q350 510 352.5 511.3Q355 512.5 355 515Q355 517.5 356.3 517.5Q357.5 517.5 356.3 523.8Q355 530 350 532.5Q345 535 345 542.5Q345 550 348.8 550Q352.5 550 352.5 551.3Q352.5 552.5 353.8 552.5Q355 552.5 355 556.3Q355 560 351.3 562.5Q347.5 565 348.8 567.5Q350 570 362.5 570Q375 570 375 568.8Q375 567.5 372.5 567.5Q370 567.5 370 566.3Q370 565 366.3 565Q362.5 565 360 560Q357.5 555 358.8 555Q360 555 361.3 551.3Q362.5 547.5 366.3 547.5Q370 547.5 371.3 545Q372.5 542.5 376.3 541.3Q380 540 380 536.3Q380 532.5 378.8 532.5Q377.5 532.5 377.5 528.8Q377.5 525 378.8 525Q380 525 380 523.8Q380 522.5 382.5 523.8Q385 525 385 532.5Q385 540 386.3 540Q387.5 540 387.5 542.5Q387.5 545 386.3 545Q385 545 385 551.3Q385 557.5 383.8 557.5Q382.5 557.5 381.3 562.5Q380 567.5 377.5 568.8Q375 570 375 573.8Q375 577.5 372.5 577.5Q370 577.5 370 578.8Q370 580 360 580Q350 580 350 578.8Q350 577.5 347.5 577.5Q345 577.5 345 576.3Q345 575 340 571.3Q335 567.5 335 565Q335 562.5 333.8 562.5Q332.5 562.5 332.5 560Q332.5 557.5 331.3 557.5Q330 557.5 330 541.3Q330 525 331.3 525Q332.5 525 332.5 521.3Q332.5 517.5 333.8 517.5Q335 517.5 335 515Q335 512.5 336.3 512.5Q337.5 512.5 338.8 510ZM450 696.3Q450 695 453.8 695Q457.5 695 457.5 696.3Q457.5 697.5 458.8 697.5Q460 697.5 461.3 700Q462.5 702.5 465 702.5Q467.5 702.5 468.8 706.3Q470 710 472.5 711.3Q475 712.5 475 726.3Q475 740 473.8 740Q472.5 740 471.3 745Q470 750 468.8 750Q467.5 750 465 753.8Q462.5 757.5 460 757.5Q457.5 757.5 457.5 762.5Q457.5 767.5 453.8 767.5Q450 767.5 446.3 767.5Q442.5 767.5 442.5 766.3Q442.5 765 440 765Q437.5 765 437.5 763.8Q437.5 762.5 435 761.3Q432.5 760 433.8 752.5Q435 745 433.8 745Q432.5 745 432.5 742.5Q432.5 740 431.3 740Q430 740 430 738.8Q430 737.5 431.3 737.5Q432.5 737.5 432.5 733.8Q432.5 730 431.3 730Q430 730 431.3 720Q432.5 710 435 708.8Q437.5 707.5 438.8 703.8Q440 700 442.5 700Q445 700 445 698.8Q445 697.5 447.5 697.5Q450 697.5 450 696.3ZM352.5 798.8Q352.5 797.5 362.5 797.5Q372.5 797.5 372.5 798.8Q372.5 800 377.5 800Q382.5 800 382.5 801.3Q382.5 802.5 385 802.5Q387.5 802.5 388.8 806.3Q390 810 391.3 810Q392.5 810 392.5 812.5Q392.5 815 390 815Q387.5 815 387.5 813.8Q387.5 812.5 385 812.5Q382.5 812.5 382.5 813.8Q382.5 815 378.8 816.3Q375 817.5 375 818.8Q375 820 365 820Q355 820 355 818.8Q355 817.5 351.3 815Q347.5 812.5 347.5 810Q347.5 807.5 346.3 807.5Q345 807.5 346.3 803.8Q347.5 800 350 800Q352.5 800 352.5 798.8Z" fill="#375310" fill-rule="evenodd" stroke="#1e3408" stroke-width="1.1" stroke-linejoin="round"/><path d="M630 96.3Q630 95 633.8 96.3Q637.5 97.5 637.5 100Q637.5 102.5 638.8 102.5Q640 102.5 638.8 123.8Q637.5 145 636.3 145Q635 145 633.8 151.3Q632.5 157.5 630 157.5Q627.5 157.5 627.5 155Q627.5 152.5 626.3 152.5Q625 152.5 625 143.8Q625 135 623.8 135Q622.5 135 622.5 117.5Q622.5 100 626.3 98.8Q630 97.5 630 96.3ZM438.8 176.3Q437.5 172.5 450 172.5Q462.5 172.5 462.5 173.8Q462.5 175 465 175Q467.5 175 467.5 176.3Q467.5 177.5 470 178.8Q472.5 180 472.5 186.3Q472.5 192.5 470 193.8Q467.5 195 467.5 201.3Q467.5 207.5 463.8 208.8Q460 210 460 211.3Q460 212.5 451.3 212.5Q442.5 212.5 438.8 211.3Q435 210 432.5 206.3Q430 202.5 427.5 202.5Q425 202.5 423.8 198.8Q422.5 195 421.3 195Q420 195 420 192.5Q420 190 418.8 190Q417.5 190 417.5 186.3Q417.5 182.5 418.8 182.5Q420 182.5 420 181.3Q420 180 423.8 181.3Q427.5 182.5 428.8 185Q430 187.5 433.8 187.5Q437.5 187.5 437.5 183.8Q437.5 180 438.8 180Q440 180 438.8 176.3ZM255 231.3Q257.5 227.5 277.5 227.5Q297.5 227.5 298.8 231.3Q300 235 301.3 235Q302.5 235 302.5 237.5Q302.5 240 303.8 240Q305 240 305 245Q305 250 310 252.5Q315 255 315 268.8Q315 282.5 313.8 282.5Q312.5 282.5 311.3 287.5Q310 292.5 308.8 292.5Q307.5 292.5 303.8 297.5Q300 302.5 296.3 303.8Q292.5 305 292.5 306.3Q292.5 307.5 288.8 307.5Q285 307.5 285 308.8Q285 310 273.8 310Q262.5 310 262.5 308.8Q262.5 307.5 260 307.5Q257.5 307.5 257.5 306.3Q257.5 305 251.3 300Q245 295 245 291.3Q245 287.5 243.8 287.5Q242.5 287.5 242.5 283.8Q242.5 280 241.3 280Q240 280 240 271.3Q240 262.5 241.3 262.5Q242.5 262.5 242.5 256.3Q242.5 250 243.8 250Q245 250 247.5 242.5Q250 235 251.3 235Q252.5 235 255 231.3ZM535 241.3Q537.5 237.5 551.3 237.5Q565 237.5 565 238.8Q565 240 570 240Q575 240 575 241.3Q575 242.5 578.8 242.5Q582.5 242.5 582.5 243.8Q582.5 245 587.5 248.8Q592.5 252.5 595 265Q597.5 277.5 596.3 277.5Q595 277.5 595 281.3Q595 285 593.8 285Q592.5 285 591.3 287.5Q590 290 585 291.3Q580 292.5 580 293.8Q580 295 572.5 295Q565 295 565 293.8Q565 292.5 562.5 291.3Q560 290 560 287.5Q560 285 556.3 283.8Q552.5 282.5 547.5 276.3Q542.5 270 536.3 270Q530 270 528.8 267.5Q527.5 265 523.8 263.8Q520 262.5 520 256.3Q520 250 523.8 248.8Q527.5 247.5 527.5 246.3Q527.5 245 530 245Q532.5 245 535 241.3ZM508.8 281.3Q510 277.5 513.8 278.8Q517.5 280 517.5 282.5Q517.5 285 521.3 287.5Q525 290 526.3 293.8Q527.5 297.5 528.8 297.5Q530 297.5 530 296.3Q530 295 536.3 295Q542.5 295 542.5 296.3Q542.5 297.5 545 297.5Q547.5 297.5 547.5 298.8Q547.5 300 548.8 300Q550 300 550 305Q550 310 558.8 310Q567.5 310 567.5 311.3Q567.5 312.5 575 315Q582.5 317.5 582.5 321.3Q582.5 325 581.3 325Q580 325 578.8 328.8Q577.5 332.5 572.5 332.5Q567.5 332.5 567.5 333.8Q567.5 335 563.8 335Q560 335 560 336.3Q560 337.5 558.8 337.5Q557.5 337.5 560 341.3Q562.5 345 567.5 345Q572.5 345 572.5 346.3Q572.5 347.5 573.8 347.5Q575 347.5 573.8 385Q572.5 422.5 571.3 422.5Q570 422.5 568.8 431.3Q567.5 440 566.3 440Q565 440 565 450Q565 460 563.8 460Q562.5 460 562.5 465Q562.5 470 561.3 470Q560 470 560 472.5Q560 475 558.8 475Q557.5 475 557.5 477.5Q557.5 480 556.3 480Q555 480 555 481.3Q555 482.5 556.3 482.5Q557.5 482.5 556.3 486.3Q555 490 553.8 490Q552.5 490 550 493.8Q547.5 497.5 538.8 498.8Q530 500 530 498.8Q530 497.5 527.5 496.3Q525 495 525 491.3Q525 487.5 523.8 487.5Q522.5 487.5 522.5 483.8Q522.5 480 523.8 480Q525 480 525 477.5Q525 475 523.8 475Q522.5 475 522.5 462.5Q522.5 450 523.8 450Q525 450 525 443.8Q525 437.5 523.8 437.5Q522.5 437.5 521.3 432.5Q520 427.5 517.5 426.3Q515 425 515 422.5Q515 420 513.8 420Q512.5 420 512.5 418.8Q512.5 417.5 511.3 417.5Q510 417.5 510 416.3Q510 415 508.8 415Q507.5 415 501.3 407.5Q495 400 492.5 400Q490 400 488.8 397.5Q487.5 395 485 395Q482.5 395 482.5 393.8Q482.5 392.5 480 392.5Q477.5 392.5 477.5 391.3Q477.5 390 475 390Q472.5 390 472.5 388.8Q472.5 387.5 468.8 387.5Q465 387.5 465 386.3Q465 385 456.3 385Q447.5 385 447.5 383.8Q447.5 382.5 443.8 382.5Q440 382.5 440 381.3Q440 380 435 376.3Q430 372.5 430 360Q430 347.5 431.3 347.5Q432.5 347.5 432.5 343.8Q432.5 340 433.8 340Q435 340 436.3 335Q437.5 330 438.8 330Q440 330 441.3 327.5Q442.5 325 445 325Q447.5 325 447.5 323.8Q447.5 322.5 453.8 322.5Q460 322.5 460 321.3Q460 320 463.8 320Q467.5 320 467.5 318.8Q467.5 317.5 470 317.5Q472.5 317.5 473.8 315Q475 312.5 477.5 312.5Q480 312.5 482.5 308.8Q485 305 487.5 305Q490 305 490 303.8Q490 302.5 495 298.8Q500 295 500 292.5Q500 290 503.8 287.5Q507.5 285 508.8 281.3ZM802.5 333.8Q802.5 332.5 806.3 332.5Q810 332.5 810 336.3Q810 340 808.8 340Q807.5 340 807.5 341.3Q807.5 342.5 803.8 342.5Q800 342.5 800 345Q800 347.5 798.8 347.5Q797.5 347.5 797.5 348.8Q797.5 350 798.8 350Q800 350 800 352.5Q800 355 798.8 355Q797.5 355 797.5 360Q797.5 365 796.3 365Q795 365 793.8 367.5Q792.5 370 788.8 370Q785 370 780 366.3Q775 362.5 775 360Q775 357.5 776.3 357.5Q777.5 357.5 778.8 352.5Q780 347.5 781.3 347.5Q782.5 347.5 785 343.8Q787.5 340 790 340Q792.5 340 793.8 337.5Q795 335 798.8 335Q802.5 335 802.5 333.8ZM447.5 506.3Q447.5 505 480 506.3Q512.5 507.5 512.5 508.8Q512.5 510 515 511.3Q517.5 512.5 517.5 532.5Q517.5 552.5 518.8 552.5Q520 552.5 520 556.3Q520 560 521.3 560Q522.5 560 525 563.8Q527.5 567.5 530 567.5Q532.5 567.5 532.5 568.8Q532.5 570 537.5 570Q542.5 570 542.5 571.3Q542.5 572.5 547.5 572.5Q552.5 572.5 552.5 573.8Q552.5 575 557.5 576.3Q562.5 577.5 566.3 582.5Q570 587.5 572.5 587.5Q575 587.5 575 586.3Q575 585 581.3 585Q587.5 585 587.5 586.3Q587.5 587.5 588.8 587.5Q590 587.5 590 590Q590 592.5 592.5 593.8Q595 595 595 598.8Q595 602.5 591.3 603.8Q587.5 605 587.5 607.5Q587.5 610 588.8 610Q590 610 590 612.5Q590 615 591.3 615Q592.5 615 592.5 627.5Q592.5 640 593.8 640Q595 640 595 638.8Q595 637.5 598.8 637.5Q602.5 637.5 602.5 641.3Q602.5 645 601.3 645Q600 645 598.8 652.5Q597.5 660 596.3 660Q595 660 593.8 665Q592.5 670 590 671.3Q587.5 672.5 587.5 675Q587.5 677.5 583.8 680Q580 682.5 580 678.8Q580 675 582.5 673.8Q585 672.5 585 668.8Q585 665 582.5 665Q580 665 580 667.5Q580 670 575 673.8Q570 677.5 570 678.8Q570 680 573.8 682.5Q577.5 685 577.5 687.5Q577.5 690 576.3 690Q575 690 575 692.5Q575 695 573.8 695Q572.5 695 572.5 696.3Q572.5 697.5 568.8 700Q565 702.5 565 705Q565 707.5 561.3 710Q557.5 712.5 556.3 717.5Q555 722.5 553.8 722.5Q552.5 722.5 551.3 725Q550 727.5 547.5 727.5Q545 727.5 545 728.8Q545 730 541.3 730Q537.5 730 537.5 728.8Q537.5 727.5 535 726.3Q532.5 725 532.5 720Q532.5 715 531.3 715Q530 715 530 712.5Q530 710 528.8 710Q527.5 710 525 702.5Q522.5 695 520 693.8Q517.5 692.5 517.5 690Q517.5 687.5 516.3 687.5Q515 687.5 515 686.3Q515 685 511.3 682.5Q507.5 680 507.5 677.5Q507.5 675 505 673.8Q502.5 672.5 501.3 666.3Q500 660 485 647.5Q470 635 470 632.5Q470 630 468.8 630Q467.5 630 467.5 627.5Q467.5 625 466.3 625Q465 625 463.8 622.5Q462.5 620 460 620Q457.5 620 457.5 618.8Q457.5 617.5 450 617.5Q442.5 617.5 442.5 616.3Q442.5 615 440 615Q437.5 615 437.5 613.8Q437.5 612.5 433.8 611.3Q430 610 430 607.5Q430 605 427.5 603.8Q425 602.5 425 598.8Q425 595 423.8 595Q422.5 595 422.5 590Q422.5 585 421.3 585Q420 585 418.8 558.8Q417.5 532.5 418.8 532.5Q420 532.5 420 527.5Q420 522.5 422.5 521.3Q425 520 426.3 516.3Q427.5 512.5 430 512.5Q432.5 512.5 432.5 511.3Q432.5 510 435 510Q437.5 510 437.5 508.8Q437.5 507.5 442.5 507.5Q447.5 507.5 447.5 506.3ZM257.5 528.8Q257.5 527.5 268.8 527.5Q280 527.5 280 528.8Q280 530 282.5 531.3Q285 532.5 285 546.3Q285 560 283.8 560Q282.5 560 282.5 563.8Q282.5 567.5 281.3 567.5Q280 567.5 278.8 570Q277.5 572.5 275 572.5Q272.5 572.5 272.5 573.8Q272.5 575 271.3 575Q270 575 270 573.8Q270 572.5 266.3 572.5Q262.5 572.5 262.5 571.3Q262.5 570 257.5 568.8Q252.5 567.5 252.5 566.3Q252.5 565 248.8 562.5Q245 560 243.8 555Q242.5 550 241.3 550Q240 550 240 543.8Q240 537.5 241.3 537.5Q242.5 537.5 243.8 535Q245 532.5 247.5 532.5Q250 532.5 250 531.3Q250 530 253.8 530Q257.5 530 257.5 528.8ZM356.3 670Q357.5 667.5 365 667.5Q372.5 667.5 372.5 668.8Q372.5 670 375 670Q377.5 670 377.5 671.3Q377.5 672.5 381.3 675Q385 677.5 386.3 682.5Q387.5 687.5 388.8 687.5Q390 687.5 390 695Q390 702.5 391.3 702.5Q392.5 702.5 392.5 713.8Q392.5 725 391.3 725Q390 725 390 730Q390 735 388.8 735Q387.5 735 387.5 737.5Q387.5 740 386.3 740Q385 740 381.3 745Q377.5 750 375 750Q372.5 750 372.5 751.3Q372.5 752.5 361.3 752.5Q350 752.5 350 753.8Q350 755 337.5 755Q325 755 325 756.3Q325 757.5 323.8 757.5Q322.5 757.5 310 758.8Q297.5 760 296.3 755Q295 750 296.3 750Q297.5 750 297.5 747.5Q297.5 745 298.8 745Q300 745 301.3 741.3Q302.5 737.5 305 736.3Q307.5 735 307.5 731.3Q307.5 727.5 308.8 727.5Q310 727.5 312.5 723.8Q315 720 317.5 720Q320 720 320 718.8Q320 717.5 328.8 717.5Q337.5 717.5 337.5 715Q337.5 712.5 336.3 712.5Q335 712.5 335 700Q335 687.5 336.3 687.5Q337.5 687.5 338.8 685Q340 682.5 342.5 682.5Q345 682.5 345 681.3Q345 680 351.3 680Q357.5 680 357.5 676.3Q357.5 672.5 356.3 672.5Q355 672.5 356.3 670Z" fill="#7c9454" fill-rule="evenodd" stroke="#1e3408" stroke-width="1.1" stroke-linejoin="round"/><path d="M457.5 451.3Q457.5 450 461.3 450Q465 450 465 455Q465 460 461.3 458.8Q457.5 457.5 457.5 465Q457.5 472.5 456.3 472.5Q455 472.5 453.8 475Q452.5 477.5 451.3 477.5Q450 477.5 450 476.3Q450 475 448.8 466.3Q447.5 457.5 443.8 458.8Q440 460 440 457.5Q440 455 446.3 455Q452.5 455 452.5 453.8Q452.5 452.5 455 452.5Q457.5 452.5 457.5 451.3ZM387.5 466.3Q387.5 465 392.5 465Q397.5 465 398.8 468.8Q400 472.5 396.3 472.5Q392.5 472.5 392.5 473.8Q392.5 475 388.8 475Q385 475 385 476.3Q385 477.5 381.3 477.5Q377.5 477.5 377.5 478.8Q377.5 480 372.5 480Q367.5 480 367.5 481.3Q367.5 482.5 363.8 482.5Q360 482.5 360 483.8Q360 485 356.3 485Q352.5 485 352.5 486.3Q352.5 487.5 347.5 487.5Q342.5 487.5 342.5 488.8Q342.5 490 336.3 491.3Q330 492.5 326.3 493.8Q322.5 495 322.5 492.5Q322.5 490 321.3 490Q320 490 321.3 487.5Q322.5 485 326.3 485Q330 485 330 483.8Q330 482.5 333.8 482.5Q337.5 482.5 337.5 481.3Q337.5 480 342.5 480Q347.5 480 347.5 478.8Q347.5 477.5 351.3 477.5Q355 477.5 355 476.3Q355 475 358.8 475Q362.5 475 362.5 473.8Q362.5 472.5 366.3 472.5Q370 472.5 370 471.3Q370 470 375 470Q380 470 380 468.8Q380 467.5 383.8 467.5Q387.5 467.5 387.5 466.3ZM612.5 491.3Q612.5 487.5 621.3 488.8Q630 490 630 491.3Q630 492.5 635 492.5Q640 492.5 640 493.8Q640 495 645 495Q650 495 650 496.3Q650 497.5 655 497.5Q660 497.5 660 498.8Q660 500 665 500Q670 500 670 501.3Q670 502.5 675 502.5Q680 502.5 682.5 506.3Q685 510 688.8 510Q692.5 510 693.8 512.5Q695 515 690 515Q685 515 685 513.8Q685 512.5 680 512.5Q675 512.5 675 511.3Q675 510 670 510Q665 510 665 508.8Q665 507.5 660 507.5Q655 507.5 655 506.3Q655 505 650 505Q645 505 645 503.8Q645 502.5 640 502.5Q635 502.5 635 501.3Q635 500 625 498.8Q615 497.5 615 496.3Q615 495 613.8 495Q612.5 495 612.5 491.3ZM200 523.8Q200 522.5 206.3 523.8Q212.5 525 212.5 527.5Q212.5 530 208.8 530Q205 530 205 531.3Q205 532.5 201.3 532.5Q197.5 532.5 197.5 533.8Q197.5 535 192.5 535Q187.5 535 187.5 536.3Q187.5 537.5 181.3 538.8Q175 540 173.8 540Q172.5 540 172.5 541.3Q172.5 542.5 168.8 542.5Q165 542.5 165 538.8Q165 535 166.3 535Q167.5 535 167.5 533.8Q167.5 532.5 171.3 532.5Q175 532.5 175 531.3Q175 530 178.8 530Q182.5 530 182.5 528.8Q182.5 527.5 186.3 527.5Q190 527.5 190 526.3Q190 525 195 525Q200 525 200 523.8Z" fill="#97704a" fill-rule="evenodd" stroke="#5b432d" stroke-width="1.6" stroke-linejoin="round"/></svg>
