<svg xmlns="http://www.w3.org/2000/svg" width="900" height="900" viewBox="0 0 900 900"><path d="M302.5 86.3Q302.5 85 307.5 85Q312.5 85 312.5 86.3Q312.5 87.5 315 87.5Q317.5 87.5 317.5 88.8Q317.5 90 320 91.3Q322.5 92.5 322.5 95Q322.5 97.5 323.8 97.5Q325 97.5 325 102.5Q325 107.5 322.5 108.8Q320 110 320 113.8Q320 117.5 321.3 117.5Q322.5 117.5 322.5 118.8Q322.5 120 325 120Q327.5 120 327.5 118.8Q327.5 117.5 331.3 116.3Q335 115 335 113.8Q335 112.5 342.5 112.5Q350 112.5 350 113.8Q350 115 353.8 117.5Q357.5 120 357.5 123.8Q357.5 127.5 352.5 128.8Q347.5 130 345 133.8Q342.5 137.5 338.8 138.8Q335 140 335 145Q335 150 333.8 150Q332.5 150 332.5 152.5Q332.5 155 331.3 155Q330 155 331.3 158.8Q332.5 162.5 338.8 162.5Q345 162.5 345 160Q345 157.5 347.5 157.5Q350 157.5 350 152.5Q350 147.5 351.3 147.5Q352.5 147.5 352.5 146.3Q352.5 145 355 145Q357.5 145 357.5 143.8Q357.5 142.5 366.3 142.5Q375 142.5 375 141.3Q375 140 378.8 140Q382.5 140 385 135Q387.5 130 388.8 130Q390 130 391.3 132.5Q392.5 135 395 135Q397.5 135 397.5 136.3Q397.5 137.5 401.3 137.5Q405 137.5 406.3 141.3Q407.5 145 417.5 145Q427.5 145 427.5 143.8Q427.5 142.5 432.5 141.3Q437.5 140 440 136.3Q442.5 132.5 448.8 132.5Q455 132.5 457.5 136.3Q460 140 462.5 140Q465 140 465 135Q465 130 466.3 130Q467.5 130 467.5 128.8Q467.5 127.5 476.3 127.5Q485 127.5 485 126.3Q485 125 483.8 125Q482.5 125 482.5 121.3Q482.5 117.5 486.3 116.3Q490 115 492.5 111.3Q495 107.5 497.5 107.5Q500 107.5 503.8 112.5Q507.5 117.5 510 117.5Q512.5 117.5 512.5 116.3Q512.5 115 517.5 115Q522.5 115 522.5 113.8Q522.5 112.5 525 112.5Q527.5 112.5 526.3 103.8Q525 95 526.3 95Q527.5 95 527.5 93.8Q527.5 92.5 533.8 92.5Q540 92.5 540 93.8Q540 95 542.5 96.3Q545 97.5 546.3 103.8Q547.5 110 558.8 110Q570 110 572.5 106.3Q575 102.5 577.5 102.5Q580 102.5 580 103.8Q580 105 583.8 106.3Q587.5 107.5 588.8 110Q590 112.5 592.5 112.5Q595 112.5 595 113.8Q595 115 597.5 115Q600 115 600 116.3Q600 117.5 605 117.5Q610 117.5 611.3 120Q612.5 122.5 611.3 122.5Q610 122.5 610 125Q610 127.5 607.5 128.8Q605 130 605 133.8Q605 137.5 607.5 137.5Q610 137.5 610 136.3Q610 135 612.5 135Q615 135 615 133.8Q615 132.5 617.5 132.5Q620 132.5 620 131.3Q620 130 623.8 130Q627.5 130 627.5 128.8Q627.5 127.5 631.3 127.5Q635 127.5 635 128.8Q635 130 637.5 130Q640 130 640 131.3Q640 132.5 643.8 132.5Q647.5 132.5 647.5 131.3Q647.5 130 653.8 130Q660 130 660 128.8Q660 127.5 662.5 127.5Q665 127.5 665 126.3Q665 125 671.3 125Q677.5 125 681.3 130Q685 135 688.8 135Q692.5 135 692.5 136.3Q692.5 137.5 698.8 138.8Q705 140 708.8 150Q712.5 160 713.8 160Q715 160 715 155Q715 150 716.3 150Q717.5 150 718.8 147.5Q720 145 723.8 146.3Q727.5 147.5 727.5 148.8Q727.5 150 730 151.3Q732.5 152.5 732.5 158.8Q732.5 165 731.3 165Q730 165 730 166.3Q730 167.5 726.3 167.5Q722.5 167.5 722.5 166.3Q722.5 165 718.8 162.5Q715 160 715 166.3Q715 172.5 716.3 172.5Q717.5 172.5 717.5 175Q717.5 177.5 721.3 177.5Q725 177.5 725 175Q725 172.5 728.8 172.5Q732.5 172.5 732.5 171.3Q732.5 170 736.3 170Q740 170 740 168.8Q740 167.5 745 167.5Q750 167.5 750 168.8Q750 170 752.5 170Q755 170 755 173.8Q755 177.5 753.8 177.5Q752.5 177.5 751.3 182.5Q750 187.5 745 188.8Q740 190 738.8 193.8Q737.5 197.5 740 198.8Q742.5 200 742.5 205Q742.5 210 750 210Q757.5 210 757.5 211.3Q757.5 212.5 758.8 212.5Q760 212.5 760 213.8Q760 215 758.8 215Q757.5 215 757.5 218.8Q757.5 222.5 756.3 222.5Q755 222.5 753.8 226.3Q752.5 230 743.8 231.3Q735 232.5 732.5 240Q730 247.5 727.5 248.8Q725 250 725 256.3Q725 262.5 732.5 265Q740 267.5 740 271.3Q740 275 741.3 275Q742.5 275 743.8 280Q745 285 743.8 285Q742.5 285 742.5 286.3Q742.5 287.5 737.5 287.5Q732.5 287.5 732.5 286.3Q732.5 285 730 285Q727.5 285 727.5 283.8Q727.5 282.5 723.8 282.5Q720 282.5 720 286.3Q720 290 722.5 291.3Q725 292.5 725 295Q725 297.5 726.3 297.5Q727.5 297.5 728.8 301.3Q730 305 731.3 305Q732.5 305 732.5 303.8Q732.5 302.5 736.3 302.5Q740 302.5 740 303.8Q740 305 741.3 305Q742.5 305 742.5 307.5Q742.5 310 743.8 310Q745 310 745 312.5Q745 315 746.3 315Q747.5 315 747.5 317.5Q747.5 320 748.8 320Q750 320 750 323.8Q750 327.5 748.8 327.5Q747.5 327.5 747.5 335Q747.5 342.5 750 342.5Q752.5 342.5 752.5 343.8Q752.5 345 755 346.3Q757.5 347.5 757.5 350Q757.5 352.5 761.3 351.3Q765 350 765 343.8Q765 337.5 766.3 337.5Q767.5 337.5 768.8 333.8Q770 330 772.5 330Q775 330 775 328.8Q775 327.5 780 327.5Q785 327.5 785 328.8Q785 330 786.3 330Q787.5 330 787.5 335Q787.5 340 786.3 340Q785 340 785 342.5Q785 345 783.8 345Q782.5 345 782.5 348.8Q782.5 352.5 783.8 352.5Q785 352.5 785 351.3Q785 350 788.8 350Q792.5 350 793.8 353.8Q795 357.5 796.3 357.5Q797.5 357.5 797.5 360Q797.5 362.5 796.3 362.5Q795 362.5 796.3 368.8Q797.5 375 796.3 375Q795 375 795 376.3Q795 377.5 785 377.5Q775 377.5 775 378.8Q775 380 777.5 380Q780 380 780 382.5Q780 385 782.5 386.3Q785 387.5 785 393.8Q785 400 783.8 400Q782.5 400 782.5 402.5Q782.5 405 780 406.3Q777.5 407.5 777.5 411.3Q777.5 415 778.8 415Q780 415 780 416.3Q780 417.5 790 417.5Q800 417.5 800 418.8Q800 420 801.3 420Q802.5 420 802.5 421.3Q802.5 422.5 801.3 422.5Q800 422.5 800 426.3Q800 430 798.8 430Q797.5 430 797.5 436.3Q797.5 442.5 796.3 442.5Q795 442.5 795 443.8Q795 445 790 445Q785 445 785 443.8Q785 442.5 780 438.8Q775 435 775 432.5Q775 430 772.5 428.8Q770 427.5 770 433.8Q770 440 771.3 440Q772.5 440 772.5 441.3Q772.5 442.5 777.5 446.3Q782.5 450 782.5 452.5Q782.5 455 783.8 455Q785 455 785 461.3Q785 467.5 783.8 467.5Q782.5 467.5 780 475Q777.5 482.5 778.8 482.5Q780 482.5 780 483.8Q780 485 781.3 485Q782.5 485 782.5 483.8Q782.5 482.5 786.3 482.5Q790 482.5 790 483.8Q790 485 791.3 485Q792.5 485 792.5 491.3Q792.5 497.5 791.3 497.5Q790 497.5 788.8 500Q787.5 502.5 781.3 501.3Q775 500 775 501.3Q775 502.5 772.5 503.8Q770 505 770 508.8Q770 512.5 771.3 512.5Q772.5 512.5 772.5 516.3Q772.5 520 773.8 520Q775 520 775 525Q775 530 776.3 530Q777.5 530 778.8 532.5Q780 535 782.5 535Q785 535 785 532.5Q785 530 786.3 530Q787.5 530 787.5 521.3Q787.5 512.5 788.8 512.5Q790 512.5 790 510Q790 507.5 795 506.3Q800 505 800 506.3Q800 507.5 801.3 507.5Q802.5 507.5 803.8 518.8Q805 530 806.3 530Q807.5 530 806.3 536.3Q805 542.5 803.8 542.5Q802.5 542.5 800 546.3Q797.5 550 790 550Q782.5 550 782.5 548.8Q782.5 547.5 781.3 547.5Q780 547.5 780 548.8Q780 550 777.5 551.3Q775 552.5 773.8 556.3Q772.5 560 767.5 560Q762.5 560 762.5 558.8Q762.5 557.5 758.8 555Q755 552.5 755 538.8Q755 525 753.8 525Q752.5 525 751.3 520Q750 515 746.3 516.3Q742.5 517.5 742.5 518.8Q742.5 520 735 518.8Q727.5 517.5 727.5 523.8Q727.5 530 736.3 530Q745 530 745 531.3Q745 532.5 746.3 532.5Q747.5 532.5 747.5 536.3Q747.5 540 746.3 540Q745 540 742.5 547.5Q740 555 738.8 555Q737.5 555 736.3 557.5Q735 560 733.8 560Q732.5 560 732.5 558.8Q732.5 557.5 728.8 558.8Q725 560 725 565Q725 570 723.8 570Q722.5 570 721.3 575Q720 580 716.3 580Q712.5 580 712.5 578.8Q712.5 577.5 710 577.5Q707.5 577.5 707.5 576.3Q707.5 575 703.8 575Q700 575 700 573.8Q700 572.5 696.3 570Q692.5 567.5 691.3 563.8Q690 560 686.3 560Q682.5 560 682.5 558.8Q682.5 557.5 680 557.5Q677.5 557.5 677.5 556.3Q677.5 555 673.8 556.3Q670 557.5 670 558.8Q670 560 666.3 560Q662.5 560 663.8 563.8Q665 567.5 671.3 567.5Q677.5 567.5 677.5 568.8Q677.5 570 680 570Q682.5 570 682.5 572.5Q682.5 575 683.8 575Q685 575 683.8 578.8Q682.5 582.5 678.8 582.5Q675 582.5 675 583.8Q675 585 673.8 585Q672.5 585 672.5 587.5Q672.5 590 675 591.3Q677.5 592.5 677.5 598.8Q677.5 605 673.8 606.3Q670 607.5 670 606.3Q670 605 666.3 602.5Q662.5 600 662.5 595Q662.5 590 663.8 590Q665 590 666.3 586.3Q667.5 582.5 666.3 582.5Q665 582.5 662.5 578.8Q660 575 657.5 575Q655 575 655 577.5Q655 580 653.8 580Q652.5 580 652.5 585Q652.5 590 651.3 590Q650 590 647.5 593.8Q645 597.5 642.5 597.5Q640 597.5 640 598.8Q640 600 638.8 600Q637.5 600 637.5 603.8Q637.5 607.5 635 608.8Q632.5 610 632.5 612.5Q632.5 615 638.8 615Q645 615 645 616.3Q645 617.5 648.8 620Q652.5 622.5 653.8 628.8Q655 635 653.8 635Q652.5 635 652.5 636.3Q652.5 637.5 647.5 637.5Q642.5 637.5 640 642.5Q637.5 647.5 630 650Q622.5 652.5 622.5 655Q622.5 657.5 621.3 657.5Q620 657.5 620 666.3Q620 675 612.5 675Q605 675 605 685Q605 695 602.5 696.3Q600 697.5 600 702.5Q600 707.5 598.8 707.5Q597.5 707.5 596.3 710Q595 712.5 588.8 712.5Q582.5 712.5 582.5 711.3Q582.5 710 580 710Q577.5 710 577.5 702.5Q577.5 695 576.3 695Q575 695 572.5 691.3Q570 687.5 565 687.5Q560 687.5 560 688.8Q560 690 555 691.3Q550 692.5 550 696.3Q550 700 557.5 700Q565 700 565 701.3Q565 702.5 567.5 702.5Q570 702.5 571.3 707.5Q572.5 712.5 575 713.8Q577.5 715 577.5 717.5Q577.5 720 576.3 720Q575 720 573.8 722.5Q572.5 725 567.5 725Q562.5 725 562.5 723.8Q562.5 722.5 560 722.5Q557.5 722.5 557.5 721.3Q557.5 720 551.3 720Q545 720 545 718.8Q545 717.5 542.5 717.5Q540 717.5 540 718.8Q540 720 537.5 720Q535 720 535 721.3Q535 722.5 531.3 725Q527.5 727.5 527.5 730Q527.5 732.5 526.3 732.5Q525 732.5 525 735Q525 737.5 523.8 737.5Q522.5 737.5 522.5 742.5Q522.5 747.5 518.8 748.8Q515 750 515 748.8Q515 747.5 512.5 747.5Q510 747.5 510 746.3Q510 745 507.5 743.8Q505 742.5 503.8 736.3Q502.5 730 498.8 728.8Q495 727.5 492.5 723.8Q490 720 487.5 720Q485 720 485 721.3Q485 722.5 481.3 723.8Q477.5 725 477.5 728.8Q477.5 732.5 478.8 732.5Q480 732.5 481.3 736.3Q482.5 740 483.8 740Q485 740 485 746.3Q485 752.5 483.8 752.5Q482.5 752.5 482.5 753.8Q482.5 755 476.3 753.8Q470 752.5 470 751.3Q470 750 467.5 748.8Q465 747.5 463.8 742.5Q462.5 737.5 461.3 737.5Q460 737.5 457.5 733.8Q455 730 447.5 727.5Q440 725 440 723.8Q440 722.5 437.5 721.3Q435 720 435 717.5Q435 715 438.8 713.8Q442.5 712.5 442.5 711.3Q442.5 710 450 710Q457.5 710 457.5 711.3Q457.5 712.5 465 713.8Q472.5 715 472.5 707.5Q472.5 700 471.3 700Q470 700 470 698.8Q470 697.5 461.3 697.5Q452.5 697.5 451.3 695Q450 692.5 446.3 692.5Q442.5 692.5 441.3 695Q440 697.5 436.3 697.5Q432.5 697.5 432.5 696.3Q432.5 695 430 695Q427.5 695 423.8 690Q420 685 417.5 685Q415 685 415 687.5Q415 690 412.5 691.3Q410 692.5 410 696.3Q410 700 413.8 702.5Q417.5 705 417.5 716.3Q417.5 727.5 412.5 731.3Q407.5 735 407.5 737.5Q407.5 740 413.8 741.3Q420 742.5 420 745Q420 747.5 421.3 747.5Q422.5 747.5 422.5 752.5Q422.5 757.5 423.8 757.5Q425 757.5 423.8 763.8Q422.5 770 421.3 770Q420 770 417.5 773.8Q415 777.5 408.8 777.5Q402.5 777.5 402.5 778.8Q402.5 780 400 780Q397.5 780 397.5 778.8Q397.5 777.5 395 777.5Q392.5 777.5 392.5 776.3Q392.5 775 390 773.8Q387.5 772.5 387.5 768.8Q387.5 765 390 763.8Q392.5 762.5 391.3 760Q390 757.5 387.5 757.5Q385 757.5 385 758.8Q385 760 377.5 760Q370 760 370 762.5Q370 765 367.5 766.3Q365 767.5 365 771.3Q365 775 368.8 777.5Q372.5 780 372.5 787.5Q372.5 795 371.3 795Q370 795 370 797.5Q370 800 371.3 800Q372.5 800 372.5 805Q372.5 810 371.3 810Q370 810 370 813.8Q370 817.5 376.3 822.5Q382.5 827.5 383.8 832.5Q385 837.5 383.8 837.5Q382.5 837.5 382.5 838.8Q382.5 840 372.5 840Q362.5 840 362.5 848.8Q362.5 857.5 361.3 857.5Q360 857.5 358.8 860Q357.5 862.5 355 862.5Q352.5 862.5 351.3 865Q350 867.5 347.5 867.5Q345 867.5 343.8 865Q342.5 862.5 332.5 861.3Q322.5 860 322.5 858.8Q322.5 857.5 315 855Q307.5 852.5 306.3 850Q305 847.5 292.5 847.5Q280 847.5 275 841.3Q270 835 267.5 835Q265 835 265 833.8Q265 832.5 261.3 831.3Q257.5 830 257.5 821.3Q257.5 812.5 258.8 812.5Q260 812.5 262.5 808.8Q265 805 268.8 805Q272.5 805 272.5 802.5Q272.5 800 271.3 800Q270 800 270 797.5Q270 795 268.8 795Q267.5 795 267.5 791.3Q267.5 787.5 263.8 788.8Q260 790 258.8 792.5Q257.5 795 250 795Q242.5 795 242.5 793.8Q242.5 792.5 240 792.5Q237.5 792.5 237.5 791.3Q237.5 790 235 788.8Q232.5 787.5 232.5 785Q232.5 782.5 236.3 781.3Q240 780 241.3 777.5Q242.5 775 250 775Q257.5 775 257.5 771.3Q257.5 767.5 256.3 767.5Q255 767.5 253.8 765Q252.5 762.5 250 762.5Q247.5 762.5 247.5 760Q247.5 757.5 243.8 755Q240 752.5 240 748.8Q240 745 238.8 745Q237.5 745 237.5 742.5Q237.5 740 238.8 740Q240 740 240 737.5Q240 735 241.3 735Q242.5 735 242.5 732.5Q242.5 730 243.8 730Q245 730 245 727.5Q245 725 246.3 725Q247.5 725 247.5 721.3Q247.5 717.5 248.8 717.5Q250 717.5 248.8 707.5Q247.5 697.5 251.3 698.8Q255 700 256.3 697.5Q257.5 695 256.3 695Q255 695 252.5 691.3Q250 687.5 240 687.5Q230 687.5 230 686.3Q230 685 226.3 682.5Q222.5 680 222.5 675Q222.5 670 223.8 670Q225 670 225 667.5Q225 665 222.5 663.8Q220 662.5 221.3 656.3Q222.5 650 223.8 650Q225 650 226.3 647.5Q227.5 645 231.3 643.8Q235 642.5 233.8 640Q232.5 637.5 230 637.5Q227.5 637.5 227.5 632.5Q227.5 627.5 228.8 627.5Q230 627.5 233.8 622.5Q237.5 617.5 241.3 617.5Q245 617.5 245 613.8Q245 610 236.3 610Q227.5 610 227.5 611.3Q227.5 612.5 223.8 612.5Q220 612.5 217.5 607.5Q215 602.5 211.3 603.8Q207.5 605 207.5 606.3Q207.5 607.5 202.5 607.5Q197.5 607.5 197.5 606.3Q197.5 605 196.3 605Q195 605 195 600Q195 595 196.3 595Q197.5 595 197.5 592.5Q197.5 590 201.3 588.8Q205 587.5 205 586.3Q205 585 207.5 583.8Q210 582.5 210 578.8Q210 575 207.5 573.8Q205 572.5 203.8 567.5Q202.5 562.5 203.8 562.5Q205 562.5 205 561.3Q205 560 213.8 561.3Q222.5 562.5 222.5 561.3Q222.5 560 225 558.8Q227.5 557.5 227.5 555Q227.5 552.5 226.3 552.5Q225 552.5 225 551.3Q225 550 221.3 550Q217.5 550 217.5 551.3Q217.5 552.5 207.5 553.8Q197.5 555 197.5 553.8Q197.5 552.5 196.3 552.5Q195 552.5 195 548.8Q195 545 191.3 545Q187.5 545 187.5 546.3Q187.5 547.5 182.5 548.8Q177.5 550 177.5 553.8Q177.5 557.5 178.8 557.5Q180 557.5 180 565Q180 572.5 178.8 572.5Q177.5 572.5 176.3 575Q175 577.5 168.8 578.8Q162.5 580 160 576.3Q157.5 572.5 155 572.5Q152.5 572.5 152.5 571.3Q152.5 570 150 570Q147.5 570 147.5 568.8Q147.5 567.5 145 567.5Q142.5 567.5 142.5 566.3Q142.5 565 138.8 565Q135 565 135 566.3Q135 567.5 127.5 567.5Q120 567.5 120 566.3Q120 565 118.8 565Q117.5 565 117.5 560Q117.5 555 120 553.8Q122.5 552.5 123.8 540Q125 527.5 113.8 526.3Q102.5 525 102.5 526.3Q102.5 527.5 100 528.8Q97.5 530 97.5 538.8Q97.5 547.5 96.3 547.5Q95 547.5 92.5 551.3Q90 555 85 555Q80 555 78.8 548.8Q77.5 542.5 78.8 542.5Q80 542.5 80 538.8Q80 535 82.5 533.8Q85 532.5 85 525Q85 517.5 87.5 516.3Q90 515 90 508.8Q90 502.5 88.8 502.5Q87.5 502.5 88.8 498.8Q90 495 88.8 495Q87.5 495 87.5 493.8Q87.5 492.5 83.8 495Q80 497.5 80 503.8Q80 510 78.8 510Q77.5 510 75 513.8Q72.5 517.5 68.8 516.3Q65 515 65 513.8Q65 512.5 62.5 512.5Q60 512.5 60 511.3Q60 510 57.5 508.8Q55 507.5 55 501.3Q55 495 56.3 495Q57.5 495 57.5 492.5Q57.5 490 58.8 490Q60 490 60 487.5Q60 485 61.3 485Q62.5 485 62.5 482.5Q62.5 480 61.3 480Q60 480 58.8 476.3Q57.5 472.5 56.3 472.5Q55 472.5 56.3 466.3Q57.5 460 61.3 458.8Q65 457.5 65 456.3Q65 455 77.5 453.8Q90 452.5 90 448.8Q90 445 88.8 445Q87.5 445 87.5 443.8Q87.5 442.5 85 441.3Q82.5 440 82.5 437.5Q82.5 435 81.3 435Q80 435 81.3 431.3Q82.5 427.5 85 427.5Q87.5 427.5 87.5 426.3Q87.5 425 97.5 426.3Q107.5 427.5 107.5 426.3Q107.5 425 108.8 425Q110 425 108.8 416.3Q107.5 407.5 108.8 407.5Q110 407.5 111.3 405Q112.5 402.5 117.5 402.5Q122.5 402.5 122.5 403.8Q122.5 405 125 406.3Q127.5 407.5 127.5 406.3Q127.5 405 130 405Q132.5 405 133.8 402.5Q135 400 138.8 400Q142.5 400 142.5 398.8Q142.5 397.5 148.8 398.8Q155 400 157.5 393.8Q160 387.5 175 388.8Q190 390 190 388.8Q190 387.5 193.8 387.5Q197.5 387.5 197.5 386.3Q197.5 385 198.8 385Q200 385 200 382.5Q200 380 198.8 380Q197.5 380 196.3 376.3Q195 372.5 193.8 372.5Q192.5 372.5 192.5 367.5Q192.5 362.5 193.8 362.5Q195 362.5 195 360Q195 357.5 186.3 357.5Q177.5 357.5 177.5 356.3Q177.5 355 173.8 353.8Q170 352.5 170 350Q170 347.5 171.3 347.5Q172.5 347.5 172.5 345Q172.5 342.5 173.8 342.5Q175 342.5 175 336.3Q175 330 176.3 330Q177.5 330 177.5 328.8Q177.5 327.5 185 327.5Q192.5 327.5 192.5 323.8Q192.5 320 191.3 320Q190 320 190 321.3Q190 322.5 183.8 322.5Q177.5 322.5 177.5 321.3Q177.5 320 175 320Q172.5 320 171.3 316.3Q170 312.5 168.8 312.5Q167.5 312.5 168.8 302.5Q170 292.5 168.8 292.5Q167.5 292.5 166.3 286.3Q165 280 161.3 277.5Q157.5 275 158.8 262.5Q160 250 161.3 250Q162.5 250 162.5 243.8Q162.5 237.5 163.8 237.5Q165 237.5 165 230Q165 222.5 168.8 221.3Q172.5 220 172.5 212.5Q172.5 205 173.8 205Q175 205 176.3 201.3Q177.5 197.5 178.8 197.5Q180 197.5 180 191.3Q180 185 181.3 185Q182.5 185 185 181.3Q187.5 177.5 192.5 177.5Q197.5 177.5 197.5 178.8Q197.5 180 198.8 180Q200 180 200 177.5Q200 175 206.3 173.8Q212.5 172.5 215 165Q217.5 157.5 220 157.5Q222.5 157.5 222.5 158.8Q222.5 160 231.3 160Q240 160 240 161.3Q240 162.5 242.5 162.5Q245 162.5 248.8 167.5Q252.5 172.5 256.3 172.5Q260 172.5 260 171.3Q260 170 267.5 170Q275 170 275 171.3Q275 172.5 276.3 172.5Q277.5 172.5 277.5 177.5Q277.5 182.5 278.8 182.5Q280 182.5 281.3 185Q282.5 187.5 288.8 187.5Q295 187.5 295 183.8Q295 180 290 176.3Q285 172.5 285 167.5Q285 162.5 283.8 162.5Q282.5 162.5 282.5 161.3Q282.5 160 281.3 160Q280 160 280 161.3Q280 162.5 273.8 162.5Q267.5 162.5 267.5 161.3Q267.5 160 265 158.8Q262.5 157.5 262.5 153.8Q262.5 150 270 150Q277.5 150 278.8 152.5Q280 155 282.5 155Q285 155 286.3 145Q287.5 135 285 135Q282.5 135 281.3 138.8Q280 142.5 273.8 141.3Q267.5 140 267.5 141.3Q267.5 142.5 265 142.5Q262.5 142.5 262.5 143.8Q262.5 145 258.8 146.3Q255 147.5 255 148.8Q255 150 248.8 150Q242.5 150 242.5 148.8Q242.5 147.5 241.3 147.5Q240 147.5 240 142.5Q240 137.5 241.3 137.5Q242.5 137.5 242.5 135Q242.5 132.5 243.8 132.5Q245 132.5 245 130Q245 127.5 246.3 127.5Q247.5 127.5 248.8 117.5Q250 107.5 251.3 107.5Q252.5 107.5 255 103.8Q257.5 100 258.8 100Q260 100 261.3 103.8Q262.5 107.5 263.8 107.5Q265 107.5 265 110Q265 112.5 263.8 112.5Q262.5 112.5 262.5 118.8Q262.5 125 265 125Q267.5 125 267.5 123.8Q267.5 122.5 271.3 120Q275 117.5 275 116.3Q275 115 273.8 115Q272.5 115 272.5 111.3Q272.5 107.5 273.8 107.5Q275 107.5 275 106.3Q275 105 280 105Q285 105 285 106.3Q285 107.5 288.8 107.5Q292.5 107.5 292.5 108.8Q292.5 110 297.5 110Q302.5 110 302.5 108.8Q302.5 107.5 303.8 107.5Q305 107.5 305 105Q305 102.5 303.8 102.5Q302.5 102.5 302.5 100Q302.5 97.5 301.3 97.5Q300 97.5 300 92.5Q300 87.5 301.3 87.5Q302.5 87.5 302.5 86.3ZM546.3 130Q542.5 130 540 131.3Q537.5 132.5 537.5 140Q537.5 147.5 535 147.5Q532.5 147.5 532.5 151.3Q532.5 155 535 155Q537.5 155 537.5 157.5Q537.5 160 538.8 160Q540 160 540 168.8Q540 177.5 542.5 177.5Q545 177.5 546.3 173.8Q547.5 170 550 170Q552.5 170 552.5 168.8Q552.5 167.5 560 166.3Q567.5 165 567.5 162.5Q567.5 160 570 160Q572.5 160 572.5 158.8Q572.5 157.5 575 156.3Q577.5 155 578.8 152.5Q580 150 586.3 151.3Q592.5 152.5 592.5 148.8Q592.5 145 591.3 145Q590 145 585 138.8Q580 132.5 578.8 132.5Q577.5 132.5 577.5 138.8Q577.5 145 576.3 145Q575 145 575 146.3Q575 147.5 568.8 147.5Q562.5 147.5 561.3 145Q560 142.5 557.5 142.5Q555 142.5 555 140Q555 137.5 553.8 137.5Q552.5 137.5 551.3 133.8Q550 130 546.3 130ZM683.8 150Q680 150 678.8 150Q677.5 150 677.5 152.5Q677.5 155 676.3 155Q675 155 673.8 157.5Q672.5 160 670 160Q667.5 160 667.5 161.3Q667.5 162.5 665 163.8Q662.5 165 662.5 167.5Q662.5 170 667.5 170Q672.5 170 672.5 171.3Q672.5 172.5 675 172.5Q677.5 172.5 683.8 172.5Q690 172.5 690 171.3Q690 170 691.3 170Q692.5 170 692.5 166.3Q692.5 162.5 693.8 162.5Q695 162.5 695 160Q695 157.5 693.8 157.5Q692.5 157.5 690 153.8Q687.5 150 683.8 150ZM460 155Q455 155 450 158.8Q445 162.5 446.3 171.3Q447.5 180 455 180Q462.5 180 462.5 181.3Q462.5 182.5 465 182.5Q467.5 182.5 467.5 183.8Q467.5 185 468.8 185Q470 185 470 183.8Q470 182.5 472.5 182.5Q475 182.5 476.3 178.8Q477.5 175 475 175Q472.5 175 472.5 173.8Q472.5 172.5 467.5 172.5Q462.5 172.5 462.5 171.3Q462.5 170 461.3 170Q460 170 460 166.3Q460 162.5 462.5 162.5Q465 162.5 465 158.8Q465 155 460 155ZM222.5 222.5Q210 222.5 208.8 222.5Q207.5 222.5 207.5 223.8Q207.5 225 211.3 226.3Q215 227.5 217.5 235Q220 242.5 223.8 245Q227.5 247.5 227.5 252.5Q227.5 257.5 231.3 257.5Q235 257.5 235 255Q235 252.5 240 252.5Q245 252.5 245 253.8Q245 255 247.5 255Q250 255 252.5 251.3Q255 247.5 255 246.3Q255 245 257.5 243.8Q260 242.5 260 237.5Q260 232.5 258.8 232.5Q257.5 232.5 257.5 231.3Q257.5 230 251.3 235Q245 240 245 238.8Q245 237.5 242.5 236.3Q240 235 240 232.5Q240 230 238.8 230Q237.5 230 236.3 226.3Q235 222.5 222.5 222.5ZM751.3 243.8Q752.5 240 755 240Q757.5 240 757.5 241.3Q757.5 242.5 760 243.8Q762.5 245 762.5 247.5Q762.5 250 763.8 250Q765 250 765 255Q765 260 763.8 260Q762.5 260 761.3 263.8Q760 267.5 756.3 267.5Q752.5 267.5 752.5 266.3Q752.5 265 750 263.8Q747.5 262.5 747.5 255Q747.5 247.5 748.8 247.5Q750 247.5 751.3 243.8ZM203.8 287.5Q197.5 282.5 195 283.8Q192.5 285 192.5 287.5Q192.5 290 190 290Q187.5 290 187.5 291.3Q187.5 292.5 183.8 293.8Q180 295 180 297.5Q180 300 181.3 300Q182.5 300 182.5 301.3Q182.5 302.5 185 303.8Q187.5 305 187.5 307.5Q187.5 310 190 311.3Q192.5 312.5 193.8 312.5Q195 312.5 195 307.5Q195 302.5 202.5 298.8Q210 295 210 293.8Q210 292.5 203.8 287.5ZM583.8 357.5Q582.5 357.5 581.3 357.5Q580 357.5 578.8 360Q577.5 362.5 575 362.5Q572.5 362.5 572.5 363.8Q572.5 365 568.8 367.5Q565 370 565 372.5Q565 375 563.8 375Q562.5 375 563.8 380Q565 385 567.5 385Q570 385 570 386.3Q570 387.5 573.8 387.5Q577.5 387.5 577.5 388.8Q577.5 390 581.3 388.8Q585 387.5 586.3 377.5Q587.5 367.5 586.3 367.5Q585 367.5 585 362.5Q585 357.5 583.8 357.5ZM298.8 527.5Q297.5 527.5 296.3 527.5Q295 527.5 295 528.8Q295 530 288.8 530Q282.5 530 282.5 531.3Q282.5 532.5 280 533.8Q277.5 535 277.5 537.5Q277.5 540 276.3 540Q275 540 275 548.8Q275 557.5 277.5 557.5Q280 557.5 280 556.3Q280 555 288.8 555Q297.5 555 297.5 553.8Q297.5 552.5 298.8 552.5Q300 552.5 300 550Q300 547.5 298.8 547.5Q297.5 547.5 297.5 545Q297.5 542.5 296.3 542.5Q295 542.5 295 538.8Q295 535 296.3 535Q297.5 535 297.5 532.5Q297.5 530 298.8 530Q300 530 300 528.8Q300 527.5 298.8 527.5ZM385 625Q370 625 367.5 626.3Q365 627.5 365 630Q365 632.5 363.8 632.5Q362.5 632.5 361.3 635Q360 637.5 356.3 637.5Q352.5 637.5 352.5 638.8Q352.5 640 350 640Q347.5 640 346.3 642.5Q345 645 338.8 643.8Q332.5 642.5 332.5 643.8Q332.5 645 331.3 645Q330 645 330 648.8Q330 652.5 326.3 653.8Q322.5 655 322.5 656.3Q322.5 657.5 330 656.3Q337.5 655 337.5 653.8Q337.5 652.5 340 652.5Q342.5 652.5 342.5 651.3Q342.5 650 345 648.8Q347.5 647.5 348.8 647.5Q350 647.5 350 648.8Q350 650 357.5 650Q365 650 367.5 646.3Q370 642.5 377.5 643.8Q385 645 387.5 637.5Q390 630 396.3 630Q402.5 630 401.3 627.5Q400 625 385 625ZM323.8 740Q322.5 740 321.3 740Q320 740 320 742.5Q320 745 318.8 745Q317.5 745 316.3 758.8Q315 772.5 313.8 772.5Q312.5 772.5 312.5 773.8Q312.5 775 308.8 775Q305 775 305 773.8Q305 772.5 298.8 771.3Q292.5 770 292.5 771.3Q292.5 772.5 290 773.8Q287.5 775 287.5 776.3Q287.5 777.5 291.3 778.8Q295 780 295 782.5Q295 785 298.8 787.5Q302.5 790 302.5 795Q302.5 800 296.3 801.3Q290 802.5 288.8 806.3Q287.5 810 283.8 810Q280 810 280 808.8Q280 807.5 276.3 806.3Q272.5 805 273.8 810Q275 815 280 818.8Q285 822.5 286.3 826.3Q287.5 830 293.8 831.3Q300 832.5 300 827.5Q300 822.5 301.3 822.5Q302.5 822.5 302.5 820Q302.5 817.5 306.3 816.3Q310 815 310 812.5Q310 810 312.5 808.8Q315 807.5 315 805Q315 802.5 317.5 801.3Q320 800 321.3 796.3Q322.5 792.5 326.3 792.5Q330 792.5 330 787.5Q330 782.5 326.3 780Q322.5 777.5 322.5 768.8Q322.5 760 330 758.8Q337.5 757.5 337.5 756.3Q337.5 755 340 755Q342.5 755 342.5 753.8Q342.5 752.5 341.3 752.5Q340 752.5 340 751.3Q340 750 332.5 750Q325 750 325 745Q325 740 323.8 740ZM402.5 806.3Q402.5 805 405 805Q407.5 805 407.5 806.3Q407.5 807.5 408.8 807.5Q410 807.5 410 811.3Q410 815 411.3 815Q412.5 815 411.3 820Q410 825 406.3 827.5Q402.5 830 398.8 830Q395 830 395 827.5Q395 825 393.8 825Q392.5 825 392.5 820Q392.5 815 393.8 815Q395 815 395 812.5Q395 810 398.8 808.8Q402.5 807.5 402.5 806.3Z" fill-rule="evenodd" fill="#adbc86" stroke="#7d8c63" stroke-width="1.50" stroke-linejoin="round"/><path d="M570 108.8Q570 107.5 578.8 107.5Q587.5 107.5 588.8 110Q590 112.5 595 113.8Q600 115 600 116.3Q600 117.5 603.8 120Q607.5 122.5 607.5 126.3Q607.5 130 606.3 130Q605 130 605 140Q605 150 611.3 155Q617.5 160 617.5 166.3Q617.5 172.5 616.3 172.5Q615 172.5 612.5 176.3Q610 180 607.5 180Q605 180 605 181.3Q605 182.5 597.5 185Q590 187.5 590 188.8Q590 190 588.8 190Q587.5 190 585 193.8Q582.5 197.5 580 197.5Q577.5 197.5 577.5 198.8Q577.5 200 575 200Q572.5 200 572.5 198.8Q572.5 197.5 568.8 196.3Q565 195 565 193.8Q565 192.5 562.5 191.3Q560 190 560 187.5Q560 185 558.8 185Q557.5 185 557.5 181.3Q557.5 177.5 556.3 177.5Q555 177.5 556.3 172.5Q557.5 167.5 562.5 166.3Q567.5 165 572.5 158.8Q577.5 152.5 585 152.5Q592.5 152.5 592.5 148.8Q592.5 145 591.3 145Q590 145 585 138.8Q580 132.5 578.8 132.5Q577.5 132.5 577.5 137.5Q577.5 142.5 576.3 142.5Q575 142.5 575 143.8Q575 145 571.3 145Q567.5 145 567.5 143.8Q567.5 142.5 563.8 141.3Q560 140 560 128.8Q560 117.5 561.3 117.5Q562.5 117.5 562.5 115Q562.5 112.5 566.3 111.3Q570 110 570 108.8ZM675 136.3Q675 132.5 683.8 133.8Q692.5 135 692.5 136.3Q692.5 137.5 695 137.5Q697.5 137.5 697.5 138.8Q697.5 140 700 140Q702.5 140 702.5 141.3Q702.5 142.5 705 143.8Q707.5 145 708.8 151.3Q710 157.5 712.5 158.8Q715 160 715 166.3Q715 172.5 716.3 172.5Q717.5 172.5 717.5 175Q717.5 177.5 721.3 177.5Q725 177.5 725 175Q725 172.5 728.8 172.5Q732.5 172.5 732.5 171.3Q732.5 170 740 170Q747.5 170 747.5 171.3Q747.5 172.5 748.8 172.5Q750 172.5 750 178.8Q750 185 748.8 185Q747.5 185 746.3 187.5Q745 190 742.5 190Q740 190 738.8 193.8Q737.5 197.5 738.8 197.5Q740 197.5 740 200Q740 202.5 741.3 202.5Q742.5 202.5 742.5 206.3Q742.5 210 746.3 210Q750 210 750 211.3Q750 212.5 752.5 213.8Q755 215 755 218.8Q755 222.5 753.8 222.5Q752.5 222.5 752.5 225Q752.5 227.5 750 227.5Q747.5 227.5 747.5 228.8Q747.5 230 745 230Q742.5 230 742.5 231.3Q742.5 232.5 738.8 232.5Q735 232.5 732.5 240Q730 247.5 727.5 248.8Q725 250 725 256.3Q725 262.5 726.3 262.5Q727.5 262.5 727.5 263.8Q727.5 265 731.3 265Q735 265 735 266.3Q735 267.5 737.5 268.8Q740 270 740 276.3Q740 282.5 738.8 282.5Q737.5 282.5 737.5 283.8Q737.5 285 728.8 283.8Q720 282.5 720 286.3Q720 290 722.5 291.3Q725 292.5 725 301.3Q725 310 723.8 310Q722.5 310 722.5 311.3Q722.5 312.5 712.5 312.5Q702.5 312.5 702.5 311.3Q702.5 310 697.5 310Q692.5 310 692.5 311.3Q692.5 312.5 688.8 312.5Q685 312.5 685 313.8Q685 315 682.5 316.3Q680 317.5 680 320Q680 322.5 678.8 322.5Q677.5 322.5 677.5 327.5Q677.5 332.5 676.3 332.5Q675 332.5 675 335Q675 337.5 673.8 337.5Q672.5 337.5 672.5 340Q672.5 342.5 671.3 342.5Q670 342.5 671.3 353.8Q672.5 365 671.3 365Q670 365 670 367.5Q670 370 668.8 370Q667.5 370 665 373.8Q662.5 377.5 660 377.5Q657.5 377.5 657.5 378.8Q657.5 380 653.8 381.3Q650 382.5 650 386.3Q650 390 651.3 390Q652.5 390 652.5 392.5Q652.5 395 655 396.3Q657.5 397.5 658.8 402.5Q660 407.5 658.8 407.5Q657.5 407.5 656.3 411.3Q655 415 647.5 417.5Q640 420 640 422.5Q640 425 638.8 425Q637.5 425 637.5 433.8Q637.5 442.5 638.8 442.5Q640 442.5 640 446.3Q640 450 638.8 450Q637.5 450 636.3 452.5Q635 455 632.5 455Q630 455 630 456.3Q630 457.5 621.3 457.5Q612.5 457.5 612.5 458.8Q612.5 460 610 461.3Q607.5 462.5 607.5 466.3Q607.5 470 611.3 471.3Q615 472.5 615 473.8Q615 475 617.5 475Q620 475 620 476.3Q620 477.5 622.5 477.5Q625 477.5 625 480Q625 482.5 626.3 482.5Q627.5 482.5 627.5 497.5Q627.5 512.5 621.3 512.5Q615 512.5 615 511.3Q615 510 610 508.8Q605 507.5 605 508.8Q605 510 602.5 511.3Q600 512.5 600 518.8Q600 525 601.3 525Q602.5 525 603.8 528.8Q605 532.5 611.3 532.5Q617.5 532.5 617.5 531.3Q617.5 530 620 530Q622.5 530 622.5 527.5Q622.5 525 625 523.8Q627.5 522.5 627.5 517.5Q627.5 512.5 637.5 511.3Q647.5 510 647.5 508.8Q647.5 507.5 648.8 507.5Q650 507.5 653.8 502.5Q657.5 497.5 660 497.5Q662.5 497.5 662.5 496.3Q662.5 495 667.5 496.3Q672.5 497.5 673.8 500Q675 502.5 680 502.5Q685 502.5 686.3 498.8Q687.5 495 688.8 495Q690 495 690 490Q690 485 688.8 485Q687.5 485 686.3 482.5Q685 480 682.5 480Q680 480 680 478.8Q680 477.5 672.5 481.3Q665 485 665 483.8Q665 482.5 662.5 482.5Q660 482.5 660 481.3Q660 480 656.3 478.8Q652.5 477.5 652.5 473.8Q652.5 470 660 468.8Q667.5 467.5 667.5 468.8Q667.5 470 673.8 471.3Q680 472.5 680 471.3Q680 470 683.8 467.5Q687.5 465 687.5 462.5Q687.5 460 688.8 460Q690 460 690 450Q690 440 688.8 440Q687.5 440 687.5 436.3Q687.5 432.5 686.3 432.5Q685 432.5 685 427.5Q685 422.5 686.3 422.5Q687.5 422.5 687.5 420Q687.5 417.5 697.5 417.5Q707.5 417.5 708.8 413.8Q710 410 711.3 410Q712.5 410 715 406.3Q717.5 402.5 721.3 402.5Q725 402.5 725 403.8Q725 405 726.3 405Q727.5 405 727.5 410Q727.5 415 726.3 415Q725 415 723.8 417.5Q722.5 420 720 420Q717.5 420 717.5 421.3Q717.5 422.5 713.8 422.5Q710 422.5 710 423.8Q710 425 707.5 426.3Q705 427.5 705 431.3Q705 435 703.8 435Q702.5 435 702.5 438.8Q702.5 442.5 703.8 442.5Q705 442.5 708.8 447.5Q712.5 452.5 715 452.5Q717.5 452.5 717.5 453.8Q717.5 455 726.3 455Q735 455 735 453.8Q735 452.5 737.5 452.5Q740 452.5 740 451.3Q740 450 741.3 450Q742.5 450 748.8 442.5Q755 435 757.5 435Q760 435 760 433.8Q760 432.5 762.5 432.5Q765 432.5 765 431.3Q765 430 767.5 428.8Q770 427.5 770 425Q770 422.5 771.3 422.5Q772.5 422.5 773.8 418.8Q775 415 777.5 415Q780 415 780 416.3Q780 417.5 786.3 417.5Q792.5 417.5 792.5 418.8Q792.5 420 795 421.3Q797.5 422.5 797.5 430Q797.5 437.5 796.3 437.5Q795 437.5 793.8 440Q792.5 442.5 790 442.5Q787.5 442.5 787.5 443.8Q787.5 445 786.3 445Q785 445 785 443.8Q785 442.5 780 438.8Q775 435 775 432.5Q775 430 772.5 428.8Q770 427.5 770 433.8Q770 440 776.3 445Q782.5 450 782.5 461.3Q782.5 472.5 781.3 472.5Q780 472.5 778.8 477.5Q777.5 482.5 778.8 482.5Q780 482.5 780 483.8Q780 485 782.5 483.8Q785 482.5 786.3 486.3Q787.5 490 788.8 490Q790 490 788.8 495Q787.5 500 781.3 500Q775 500 775 501.3Q775 502.5 772.5 503.8Q770 505 770 508.8Q770 512.5 771.3 512.5Q772.5 512.5 772.5 516.3Q772.5 520 773.8 520Q775 520 775 525Q775 530 776.3 530Q777.5 530 778.8 532.5Q780 535 782.5 535Q785 535 785 532.5Q785 530 786.3 530Q787.5 530 787.5 523.8Q787.5 517.5 788.8 517.5Q790 517.5 791.3 513.8Q792.5 510 795 510Q797.5 510 797.5 511.3Q797.5 512.5 800 513.8Q802.5 515 802.5 517.5Q802.5 520 803.8 520Q805 520 805 530Q805 540 803.8 540Q802.5 540 800 543.8Q797.5 547.5 793.8 547.5Q790 547.5 790 548.8Q790 550 786.3 550Q782.5 550 782.5 548.8Q782.5 547.5 781.3 547.5Q780 547.5 776.3 552.5Q772.5 557.5 767.5 557.5Q762.5 557.5 762.5 556.3Q762.5 555 758.8 552.5Q755 550 755 537.5Q755 525 753.8 525Q752.5 525 751.3 520Q750 515 746.3 516.3Q742.5 517.5 742.5 518.8Q742.5 520 735 518.8Q727.5 517.5 727.5 523.8Q727.5 530 733.8 530Q740 530 740 531.3Q740 532.5 743.8 533.8Q747.5 535 745 542.5Q742.5 550 741.3 550Q740 550 737.5 553.8Q735 557.5 731.3 557.5Q727.5 557.5 727.5 558.8Q727.5 560 726.3 560Q725 560 725 563.8Q725 567.5 723.8 567.5Q722.5 567.5 722.5 570Q722.5 572.5 721.3 572.5Q720 572.5 718.8 575Q717.5 577.5 712.5 577.5Q707.5 577.5 707.5 576.3Q707.5 575 705 575Q702.5 575 701.3 572.5Q700 570 696.3 568.8Q692.5 567.5 691.3 563.8Q690 560 686.3 560Q682.5 560 682.5 558.8Q682.5 557.5 680 557.5Q677.5 557.5 677.5 556.3Q677.5 555 673.8 556.3Q670 557.5 670 558.8Q670 560 666.3 560Q662.5 560 662.5 562.5Q662.5 565 663.8 565Q665 565 665 566.3Q665 567.5 670 567.5Q675 567.5 677.5 572.5Q680 577.5 678.8 577.5Q677.5 577.5 677.5 580Q677.5 582.5 675 583.8Q672.5 585 672.5 590Q672.5 595 670 595Q667.5 595 667.5 591.3Q667.5 587.5 666.3 587.5Q665 587.5 666.3 585Q667.5 582.5 666.3 582.5Q665 582.5 662.5 578.8Q660 575 657.5 575Q655 575 653.8 581.3Q652.5 587.5 645 593.8Q637.5 600 637.5 603.8Q637.5 607.5 635 608.8Q632.5 610 632.5 612.5Q632.5 615 637.5 615Q642.5 615 642.5 616.3Q642.5 617.5 646.3 620Q650 622.5 650 625Q650 627.5 651.3 627.5Q652.5 627.5 652.5 630Q652.5 632.5 651.3 632.5Q650 632.5 648.8 635Q647.5 637.5 645 637.5Q642.5 637.5 642.5 638.8Q642.5 640 641.3 640Q640 640 640 642.5Q640 645 637.5 645Q635 645 633.8 647.5Q632.5 650 627.5 651.3Q622.5 652.5 622.5 655Q622.5 657.5 621.3 657.5Q620 657.5 620 662.5Q620 667.5 618.8 667.5Q617.5 667.5 615 671.3Q612.5 675 608.8 675Q605 675 605 682.5Q605 690 603.8 690Q602.5 690 602.5 693.8Q602.5 697.5 601.3 697.5Q600 697.5 600 700Q600 702.5 598.8 702.5Q597.5 702.5 596.3 706.3Q595 710 586.3 710Q577.5 710 577.5 702.5Q577.5 695 576.3 695Q575 695 572.5 691.3Q570 687.5 565 687.5Q560 687.5 560 688.8Q560 690 555 691.3Q550 692.5 550 696.3Q550 700 557.5 700Q565 700 565 701.3Q565 702.5 567.5 702.5Q570 702.5 570 705Q570 707.5 571.3 707.5Q572.5 707.5 572.5 710Q572.5 712.5 573.8 712.5Q575 712.5 575 715Q575 717.5 573.8 717.5Q572.5 717.5 571.3 720Q570 722.5 563.8 722.5Q557.5 722.5 557.5 721.3Q557.5 720 551.3 720Q545 720 545 718.8Q545 717.5 542.5 717.5Q540 717.5 540 718.8Q540 720 537.5 720Q535 720 535 721.3Q535 722.5 531.3 725Q527.5 727.5 527.5 730Q527.5 732.5 526.3 732.5Q525 732.5 525 735Q525 737.5 523.8 737.5Q522.5 737.5 521.3 741.3Q520 745 515 745Q510 745 510 743.8Q510 742.5 506.3 740Q502.5 737.5 502.5 733.8Q502.5 730 498.8 728.8Q495 727.5 492.5 723.8Q490 720 487.5 720Q485 720 485 721.3Q485 722.5 481.3 723.8Q477.5 725 477.5 728.8Q477.5 732.5 480 733.8Q482.5 735 482.5 741.3Q482.5 747.5 481.3 747.5Q480 747.5 480 748.8Q480 750 475 750Q470 750 470 748.8Q470 747.5 466.3 745Q462.5 742.5 462.5 740Q462.5 737.5 457.5 733.8Q452.5 730 451.3 726.3Q450 722.5 452.5 722.5Q455 722.5 455 721.3Q455 720 461.3 720Q467.5 720 467.5 718.8Q467.5 717.5 470 717.5Q472.5 717.5 472.5 716.3Q472.5 715 475 715Q477.5 715 477.5 713.8Q477.5 712.5 480 712.5Q482.5 712.5 482.5 711.3Q482.5 710 487.5 710Q492.5 710 492.5 708.8Q492.5 707.5 495 707.5Q497.5 707.5 498.8 705Q500 702.5 507.5 702.5Q515 702.5 515 701.3Q515 700 517.5 700Q520 700 520 698.8Q520 697.5 521.3 697.5Q522.5 697.5 522.5 696.3Q522.5 695 523.8 695Q525 695 531.3 687.5Q537.5 680 541.3 680Q545 680 545 678.8Q545 677.5 548.8 676.3Q552.5 675 552.5 672.5Q552.5 670 555 668.8Q557.5 667.5 558.8 660Q560 652.5 561.3 652.5Q562.5 652.5 562.5 650Q562.5 647.5 563.8 647.5Q565 647.5 566.3 643.8Q567.5 640 568.8 640Q570 640 570 628.8Q570 617.5 571.3 617.5Q572.5 617.5 572.5 615Q572.5 612.5 573.8 612.5Q575 612.5 575 608.8Q575 605 572.5 605Q570 605 567.5 608.8Q565 612.5 558.8 613.8Q552.5 615 552.5 610Q552.5 605 553.8 605Q555 605 556.3 595Q557.5 585 558.8 585Q560 585 560 582.5Q560 580 561.3 580Q562.5 580 565 576.3Q567.5 572.5 568.8 572.5Q570 572.5 570 573.8Q570 575 578.8 575Q587.5 575 587.5 573.8Q587.5 572.5 588.8 572.5Q590 572.5 590 568.8Q590 565 588.8 565Q587.5 565 587.5 563.8Q587.5 562.5 580 562.5Q572.5 562.5 572.5 563.8Q572.5 565 571.3 565Q570 565 570 563.8Q570 562.5 566.3 562.5Q562.5 562.5 562.5 561.3Q562.5 560 546.3 560Q530 560 530 558.8Q530 557.5 525 556.3Q520 555 518.8 552.5Q517.5 550 515 550Q512.5 550 510 546.3Q507.5 542.5 497.5 542.5Q487.5 542.5 487.5 543.8Q487.5 545 485 545Q482.5 545 482.5 546.3Q482.5 547.5 480 547.5Q477.5 547.5 477.5 548.8Q477.5 550 470 550Q462.5 550 462.5 551.3Q462.5 552.5 460 553.8Q457.5 555 458.8 567.5Q460 580 458.8 580Q457.5 580 456.3 583.8Q455 587.5 448.8 586.3Q442.5 585 442.5 583.8Q442.5 582.5 433.8 582.5Q425 582.5 425 581.3Q425 580 417.5 581.3Q410 582.5 410 583.8Q410 585 405 588.8Q400 592.5 400 595Q400 597.5 398.8 597.5Q397.5 597.5 397.5 601.3Q397.5 605 396.3 605Q395 605 395 606.3Q395 607.5 396.3 607.5Q397.5 607.5 397.5 608.8Q397.5 610 396.3 610Q395 610 395 617.5Q395 625 381.3 625Q367.5 625 365 628.8Q362.5 632.5 360 632.5Q357.5 632.5 357.5 631.3Q357.5 630 355 630Q352.5 630 352.5 628.8Q352.5 627.5 343.8 627.5Q335 627.5 333.8 630Q332.5 632.5 328.8 632.5Q325 632.5 325 631.3Q325 630 321.3 627.5Q317.5 625 317.5 621.3Q317.5 617.5 318.8 617.5Q320 617.5 320 616.3Q320 615 321.3 615Q322.5 615 322.5 613.8Q322.5 612.5 323.8 612.5Q325 612.5 331.3 605Q337.5 597.5 341.3 597.5Q345 597.5 345 596.3Q345 595 353.8 595Q362.5 595 363.8 592.5Q365 590 367.5 590Q370 590 371.3 586.3Q372.5 582.5 385 572.5Q397.5 562.5 397.5 560Q397.5 557.5 398.8 557.5Q400 557.5 400 555Q400 552.5 402.5 551.3Q405 550 405 547.5Q405 545 406.3 545Q407.5 545 411.3 540Q415 535 418.8 533.8Q422.5 532.5 425 525Q427.5 517.5 430 517.5Q432.5 517.5 432.5 516.3Q432.5 515 437.5 515Q442.5 515 442.5 516.3Q442.5 517.5 445 517.5Q447.5 517.5 448.8 513.8Q450 510 451.3 510Q452.5 510 452.5 507.5Q452.5 505 453.8 505Q455 505 455 502.5Q455 500 457.5 498.8Q460 497.5 461.3 493.8Q462.5 490 468.8 488.8Q475 487.5 475 486.3Q475 485 480 485Q485 485 485 483.8Q485 482.5 488.8 481.3Q492.5 480 492.5 473.8Q492.5 467.5 491.3 467.5Q490 467.5 490 465Q490 462.5 488.8 462.5Q487.5 462.5 487.5 456.3Q487.5 450 488.8 450Q490 450 491.3 445Q492.5 440 493.8 440Q495 440 497.5 436.3Q500 432.5 505 432.5Q510 432.5 510 435Q510 437.5 512.5 438.8Q515 440 515 443.8Q515 447.5 516.3 447.5Q517.5 447.5 517.5 448.8Q517.5 450 525 450Q532.5 450 532.5 448.8Q532.5 447.5 535 447.5Q537.5 447.5 537.5 446.3Q537.5 445 540 445Q542.5 445 542.5 443.8Q542.5 442.5 546.3 442.5Q550 442.5 550 426.3Q550 410 548.8 410Q547.5 410 547.5 402.5Q547.5 395 548.8 395Q550 395 550 392.5Q550 390 552.5 388.8Q555 387.5 556.3 383.8Q557.5 380 560 380Q562.5 380 563.8 382.5Q565 385 571.3 386.3Q577.5 387.5 577.5 388.8Q577.5 390 583.8 388.8Q590 387.5 590 386.3Q590 385 593.8 383.8Q597.5 382.5 597.5 380Q597.5 377.5 598.8 377.5Q600 377.5 600 373.8Q600 370 598.8 370Q597.5 370 597.5 363.8Q597.5 357.5 598.8 357.5Q600 357.5 600 350Q600 342.5 598.8 342.5Q597.5 342.5 597.5 341.3Q597.5 340 598.8 340Q600 340 600 336.3Q600 332.5 601.3 332.5Q602.5 332.5 607.5 326.3Q612.5 320 616.3 320Q620 320 620 321.3Q620 322.5 622.5 322.5Q625 322.5 625 323.8Q625 325 632.5 322.5Q640 320 640 316.3Q640 312.5 638.8 312.5Q637.5 312.5 636.3 307.5Q635 302.5 636.3 302.5Q637.5 302.5 638.8 300Q640 297.5 645 296.3Q650 295 650 293.8Q650 292.5 653.8 290Q657.5 287.5 658.8 281.3Q660 275 661.3 275Q662.5 275 662.5 271.3Q662.5 267.5 663.8 267.5Q665 267.5 665 252.5Q665 237.5 666.3 237.5Q667.5 237.5 667.5 236.3Q667.5 235 675 228.8Q682.5 222.5 683.8 198.8Q685 175 688.8 172.5Q692.5 170 693.8 163.8Q695 157.5 693.8 157.5Q692.5 157.5 692.5 156.3Q692.5 155 691.3 155Q690 155 690 153.8Q690 152.5 682.5 146.3Q675 140 675 136.3ZM357.5 148.8Q360 145 365 145Q370 145 370 146.3Q370 147.5 372.5 147.5Q375 147.5 375 148.8Q375 150 383.8 151.3Q392.5 152.5 392.5 153.8Q392.5 155 396.3 157.5Q400 160 400 167.5Q400 175 398.8 175Q397.5 175 397.5 176.3Q397.5 177.5 393.8 180Q390 182.5 390 185Q390 187.5 382.5 193.8Q375 200 375 202.5Q375 205 371.3 207.5Q367.5 210 367.5 212.5Q367.5 215 362.5 216.3Q357.5 217.5 357.5 216.3Q357.5 215 355 215Q352.5 215 351.3 212.5Q350 210 345 210Q340 210 340 211.3Q340 212.5 337.5 213.8Q335 215 335 217.5Q335 220 335 221.3Q335 222.5 336.3 222.5Q337.5 222.5 337.5 230Q337.5 237.5 336.3 237.5Q335 237.5 333.8 240Q332.5 242.5 326.3 242.5Q320 242.5 320 240Q320 237.5 318.8 237.5Q317.5 237.5 317.5 235Q317.5 232.5 316.3 232.5Q315 232.5 315 226.3Q315 220 316.3 220Q317.5 220 317.5 217.5Q317.5 215 318.8 215Q320 215 318.8 207.5Q317.5 200 318.8 200Q320 200 321.3 196.3Q322.5 192.5 328.8 191.3Q335 190 335 188.8Q335 187.5 337.5 187.5Q340 187.5 340 186.3Q340 185 342.5 183.8Q345 182.5 345 180Q345 177.5 346.3 177.5Q347.5 177.5 347.5 170Q347.5 162.5 348.8 162.5Q350 162.5 351.3 157.5Q352.5 152.5 353.8 152.5Q355 152.5 357.5 148.8ZM421.3 210Q425 205 431.3 205Q437.5 205 437.5 206.3Q437.5 207.5 440 208.8Q442.5 210 442.5 211.3Q442.5 212.5 437.5 216.3Q432.5 220 431.3 225Q430 230 427.5 230Q425 230 425 231.3Q425 232.5 421.3 232.5Q417.5 232.5 417.5 231.3Q417.5 230 416.3 230Q415 230 415 222.5Q415 215 416.3 215Q417.5 215 421.3 210ZM285 218.8Q285 217.5 291.3 218.8Q297.5 220 296.3 226.3Q295 232.5 290 235Q285 237.5 282.5 237.5Q280 237.5 280 236.3Q280 235 276.3 233.8Q272.5 232.5 272.5 227.5Q272.5 222.5 273.8 222.5Q275 222.5 275 221.3Q275 220 280 220Q285 220 285 218.8ZM382.5 261.3Q382.5 260 386.3 261.3Q390 262.5 388.8 266.3Q387.5 270 391.3 272.5Q395 275 398.8 286.3Q402.5 297.5 405 298.8Q407.5 300 407.5 302.5Q407.5 305 408.8 305Q410 305 410 306.3Q410 307.5 412.5 308.8Q415 310 415 312.5Q415 315 417.5 316.3Q420 317.5 420 322.5Q420 327.5 418.8 327.5Q417.5 327.5 417.5 328.8Q417.5 330 412.5 330Q407.5 330 406.3 327.5Q405 325 401.3 320Q397.5 315 386.3 315Q375 315 375 312.5Q375 310 373.8 310Q372.5 310 372.5 308.8Q372.5 307.5 373.8 307.5Q375 307.5 375 303.8Q375 300 376.3 300Q377.5 300 377.5 295Q377.5 290 376.3 290Q375 290 375 287.5Q375 285 372.5 283.8Q370 282.5 367.5 275Q365 267.5 366.3 267.5Q367.5 267.5 368.8 265Q370 262.5 376.3 262.5Q382.5 262.5 382.5 261.3ZM516.3 286.3Q517.5 282.5 520 282.5Q522.5 282.5 523.8 286.3Q525 290 526.3 290Q527.5 290 527.5 296.3Q527.5 302.5 525 302.5Q522.5 302.5 520 302.5Q517.5 302.5 517.5 301.3Q517.5 300 515 298.8Q512.5 297.5 512.5 293.8Q512.5 290 513.8 290Q515 290 516.3 286.3ZM543.8 352.5Q545 350 550 350Q555 350 555 351.3Q555 352.5 562.5 352.5Q570 352.5 570 353.8Q570 355 572.5 355Q575 355 573.8 360Q572.5 365 568.8 367.5Q565 370 563.8 372.5Q562.5 375 560 375Q557.5 375 555 371.3Q552.5 367.5 547.5 366.3Q542.5 365 542.5 363.8Q542.5 362.5 541.3 362.5Q540 362.5 540 358.8Q540 355 541.3 355Q542.5 355 543.8 352.5ZM785 353.8Q785 352.5 787.5 352.5Q790 352.5 790 353.8Q790 355 792.5 356.3Q795 357.5 795 365Q795 372.5 793.8 372.5Q792.5 372.5 791.3 375Q790 377.5 787.5 377.5Q785 377.5 780 377.5Q775 377.5 775 371.3Q775 365 776.3 365Q777.5 365 778.8 360Q780 355 782.5 355Q785 355 785 353.8ZM771.3 385Q775 380 777.5 380Q780 380 780 382.5Q780 385 781.3 385Q782.5 385 782.5 393.8Q782.5 402.5 780 403.8Q777.5 405 777.5 407.5Q777.5 410 772.5 410Q767.5 410 763.8 408.8Q760 407.5 760 403.8Q760 400 761.3 400Q762.5 400 763.8 395Q765 390 766.3 390Q767.5 390 771.3 385ZM277.5 397.5Q280 390 283.8 390Q287.5 390 287.5 391.3Q287.5 392.5 290 393.8Q292.5 395 292.5 400Q292.5 405 291.3 405Q290 405 290 408.8Q290 412.5 288.8 412.5Q287.5 412.5 287.5 416.3Q287.5 420 286.3 420Q285 420 285 423.8Q285 427.5 283.8 427.5Q282.5 427.5 282.5 428.8Q282.5 430 278.8 430Q275 430 275 428.8Q275 427.5 273.8 427.5Q272.5 427.5 272.5 416.3Q272.5 405 273.8 405Q275 405 277.5 397.5ZM233.8 397.5Q235 395 238.8 395Q242.5 395 242.5 396.3Q242.5 397.5 243.8 397.5Q245 397.5 245 408.8Q245 420 246.3 420Q247.5 420 246.3 423.8Q245 427.5 246.3 427.5Q247.5 427.5 247.5 432.5Q247.5 437.5 248.8 437.5Q250 437.5 251.3 440Q252.5 442.5 261.3 443.8Q270 445 270 446.3Q270 447.5 273.8 450Q277.5 452.5 277.5 456.3Q277.5 460 278.8 460Q280 460 283.8 465Q287.5 470 291.3 470Q295 470 295 468.8Q295 467.5 298.8 467.5Q302.5 467.5 302.5 468.8Q302.5 470 303.8 470Q305 470 302.5 477.5Q300 485 297.5 485Q295 485 292.5 481.3Q290 477.5 285 477.5Q280 477.5 280 478.8Q280 480 267.5 480Q255 480 255 478.8Q255 477.5 251.3 477.5Q247.5 477.5 247.5 476.3Q247.5 475 246.3 475Q245 475 242.5 471.3Q240 467.5 237.5 467.5Q235 467.5 235 466.3Q235 465 231.3 466.3Q227.5 467.5 226.3 470Q225 472.5 221.3 472.5Q217.5 472.5 217.5 473.8Q217.5 475 210 473.8Q202.5 472.5 202.5 471.3Q202.5 470 200 468.8Q197.5 467.5 197.5 461.3Q197.5 455 198.8 455Q200 455 198.8 448.8Q197.5 442.5 195 442.5Q192.5 442.5 192.5 441.3Q192.5 440 190 440Q187.5 440 187.5 438.8Q187.5 437.5 185 436.3Q182.5 435 182.5 430Q182.5 425 185 425Q187.5 425 187.5 423.8Q187.5 422.5 203.8 421.3Q220 420 220 418.8Q220 417.5 222.5 416.3Q225 415 225 412.5Q225 410 226.3 410Q227.5 410 227.5 407.5Q227.5 405 228.8 405Q230 405 230 402.5Q230 400 231.3 400Q232.5 400 233.8 397.5ZM363.8 407.5Q365 402.5 371.3 402.5Q377.5 402.5 377.5 403.8Q377.5 405 380 406.3Q382.5 407.5 382.5 410Q382.5 412.5 380 413.8Q377.5 415 377.5 416.3Q377.5 417.5 372.5 417.5Q367.5 417.5 367.5 416.3Q367.5 415 365 413.8Q362.5 412.5 363.8 407.5ZM430 410Q432.5 402.5 435 402.5Q437.5 402.5 437.5 403.8Q437.5 405 440 405Q442.5 405 443.8 407.5Q445 410 452.5 412.5Q460 415 460 418.8Q460 422.5 450 422.5Q440 422.5 440 423.8Q440 425 435 425Q430 425 430 426.3Q430 427.5 423.8 432.5Q417.5 437.5 417.5 440Q417.5 442.5 421.3 443.8Q425 445 425 446.3Q425 447.5 427.5 447.5Q430 447.5 430 448.8Q430 450 432.5 451.3Q435 452.5 435 455Q435 457.5 436.3 457.5Q437.5 457.5 435 462.5Q432.5 467.5 428.8 467.5Q425 467.5 422.5 467.5Q420 467.5 420 466.3Q420 465 415 461.3Q410 457.5 410 453.8Q410 450 407.5 450Q405 450 405 448.8Q405 447.5 400 447.5Q395 447.5 395 446.3Q395 445 392.5 443.8Q390 442.5 390 431.3Q390 420 391.3 420Q392.5 420 392.5 417.5Q392.5 415 393.8 415Q395 415 395 412.5Q395 410 396.3 410Q397.5 410 398.8 407.5Q400 405 406.3 405Q412.5 405 416.3 410Q420 415 423.8 416.3Q427.5 417.5 430 410ZM342.5 458.8Q342.5 457.5 353.8 457.5Q365 457.5 365 458.8Q365 460 367.5 461.3Q370 462.5 370 465Q370 467.5 371.3 467.5Q372.5 467.5 372.5 471.3Q372.5 475 373.8 475Q375 475 375 477.5Q375 480 373.8 480Q372.5 480 371.3 485Q370 490 367.5 491.3Q365 492.5 365 495Q365 497.5 360 498.8Q355 500 355 501.3Q355 502.5 350 502.5Q345 502.5 345 501.3Q345 500 336.3 500Q327.5 500 327.5 498.8Q327.5 497.5 326.3 497.5Q325 497.5 325 483.8Q325 470 326.3 470Q327.5 470 330 466.3Q332.5 462.5 337.5 461.3Q342.5 460 342.5 458.8ZM520 468.8Q517.5 467.5 515 468.8Q512.5 470 512.5 475Q512.5 480 515 481.3Q517.5 482.5 520 482.5Q522.5 482.5 522.5 476.3Q522.5 470 520 468.8ZM221.3 490Q222.5 487.5 227.5 487.5Q232.5 487.5 232.5 488.8Q232.5 490 233.8 490Q235 490 235 495Q235 500 231.3 501.3Q227.5 502.5 227.5 503.8Q227.5 505 221.3 505Q215 505 212.5 508.8Q210 512.5 203.8 513.8Q197.5 515 198.8 518.8Q200 522.5 202.5 522.5Q205 522.5 205 523.8Q205 525 207.5 525Q210 525 210 526.3Q210 527.5 212.5 527.5Q215 527.5 215 528.8Q215 530 210 530Q205 530 200 537.5Q195 545 191.3 545Q187.5 545 187.5 546.3Q187.5 547.5 182.5 548.8Q177.5 550 177.5 553.8Q177.5 557.5 178.8 557.5Q180 557.5 180 560Q180 562.5 178.8 562.5Q177.5 562.5 177.5 567.5Q177.5 572.5 171.3 575Q165 577.5 165 576.3Q165 575 161.3 575Q157.5 575 157.5 573.8Q157.5 572.5 150 570Q142.5 567.5 142.5 566.3Q142.5 565 135 566.3Q127.5 567.5 127.5 566.3Q127.5 565 123.8 563.8Q120 562.5 120 557.5Q120 552.5 121.3 552.5Q122.5 552.5 122.5 546.3Q122.5 540 123.8 540Q125 540 125 537.5Q125 535 128.8 533.8Q132.5 532.5 132.5 531.3Q132.5 530 135 530Q137.5 530 137.5 528.8Q137.5 527.5 140 527.5Q142.5 527.5 142.5 526.3Q142.5 525 145 525Q147.5 525 147.5 523.8Q147.5 522.5 150 522.5Q152.5 522.5 152.5 521.3Q152.5 520 155 520Q157.5 520 158.8 517.5Q160 515 162.5 515Q165 515 166.3 511.3Q167.5 507.5 168.8 507.5Q170 507.5 170 500Q170 492.5 171.3 492.5Q172.5 492.5 172.5 491.3Q172.5 490 176.3 491.3Q180 492.5 180 495Q180 497.5 181.3 497.5Q182.5 497.5 183.8 501.3Q185 505 191.3 506.3Q197.5 507.5 200 503.8Q202.5 500 207.5 498.8Q212.5 497.5 212.5 496.3Q212.5 495 216.3 493.8Q220 492.5 221.3 490ZM83.8 535Q85 532.5 90 532.5Q95 532.5 95 535Q95 537.5 96.3 537.5Q97.5 537.5 97.5 540Q97.5 542.5 96.3 542.5Q95 542.5 93.8 546.3Q92.5 550 87.5 550Q82.5 550 82.5 548.8Q82.5 547.5 81.3 547.5Q80 547.5 80 542.5Q80 537.5 81.3 537.5Q82.5 537.5 83.8 535ZM225 558.8Q227.5 555 230 555Q232.5 555 233.8 557.5Q235 560 237.5 560Q240 560 240 562.5Q240 565 241.3 565Q242.5 565 243.8 568.8Q245 572.5 243.8 572.5Q242.5 572.5 241.3 575Q240 577.5 235 577.5Q230 577.5 230 578.8Q230 580 227.5 581.3Q225 582.5 225 585Q225 587.5 228.8 590Q232.5 592.5 232.5 598.8Q232.5 605 231.3 605Q230 605 230 606.3Q230 607.5 223.8 607.5Q217.5 607.5 216.3 605Q215 602.5 213.8 602.5Q212.5 602.5 212.5 603.8Q212.5 605 207.5 605Q202.5 605 202.5 603.8Q202.5 602.5 200 601.3Q197.5 600 197.5 597.5Q197.5 595 198.8 595Q200 595 200 592.5Q200 590 205 586.3Q210 582.5 208.8 573.8Q207.5 565 208.8 565Q210 565 210 563.8Q210 562.5 216.3 562.5Q222.5 562.5 225 558.8ZM387.5 637.5Q390 630 392.5 630Q395 630 395 631.3Q395 632.5 398.8 635Q402.5 637.5 402.5 640Q402.5 642.5 403.8 642.5Q405 642.5 405 645Q405 647.5 406.3 647.5Q407.5 647.5 407.5 651.3Q407.5 655 408.8 655Q410 655 410 658.8Q410 662.5 408.8 662.5Q407.5 662.5 407.5 665Q407.5 667.5 405 668.8Q402.5 670 402.5 676.3Q402.5 682.5 403.8 682.5Q405 682.5 406.3 686.3Q407.5 690 408.8 690Q410 690 410 695Q410 700 411.3 700Q412.5 700 412.5 702.5Q412.5 705 413.8 705Q415 705 415 707.5Q415 710 416.3 710Q417.5 710 417.5 716.3Q417.5 722.5 416.3 722.5Q415 722.5 415 726.3Q415 730 411.3 732.5Q407.5 735 407.5 737.5Q407.5 740 412.5 741.3Q417.5 742.5 417.5 745Q417.5 747.5 418.8 747.5Q420 747.5 420 750Q420 752.5 421.3 752.5Q422.5 752.5 422.5 758.8Q422.5 765 421.3 765Q420 765 420 767.5Q420 770 418.8 770Q417.5 770 416.3 772.5Q415 775 412.5 775Q410 775 410 776.3Q410 777.5 403.8 777.5Q397.5 777.5 397.5 776.3Q397.5 775 395 775Q392.5 775 391.3 771.3Q390 767.5 388.8 767.5Q387.5 767.5 387.5 766.3Q387.5 765 390 763.8Q392.5 762.5 391.3 760Q390 757.5 387.5 757.5Q385 757.5 385 758.8Q385 760 377.5 760Q370 760 370 758.8Q370 757.5 367.5 756.3Q365 755 363.8 755Q362.5 755 362.5 753.8Q362.5 752.5 352.5 751.3Q342.5 750 342.5 748.8Q342.5 747.5 338.8 745Q335 742.5 335 740Q335 737.5 333.8 737.5Q332.5 737.5 332.5 735Q332.5 732.5 333.8 732.5Q335 732.5 335 730Q335 727.5 336.3 727.5Q337.5 727.5 338.8 725Q340 722.5 342.5 722.5Q345 722.5 345 721.3Q345 720 351.3 721.3Q357.5 722.5 360 718.8Q362.5 715 361.3 715Q360 715 360 711.3Q360 707.5 358.8 707.5Q357.5 707.5 357.5 706.3Q357.5 705 353.8 706.3Q350 707.5 350 708.8Q350 710 346.3 710Q342.5 710 342.5 708.8Q342.5 707.5 338.8 706.3Q335 705 335 700Q335 695 337.5 693.8Q340 692.5 340 687.5Q340 682.5 335 678.8Q330 675 330 672.5Q330 670 331.3 670Q332.5 670 333.8 666.3Q335 662.5 337.5 662.5Q340 662.5 340 661.3Q340 660 342.5 660Q345 660 345 658.8Q345 657.5 347.5 657.5Q350 657.5 350 658.8Q350 660 355 660Q360 660 360 658.8Q360 657.5 363.8 655Q367.5 652.5 368.8 648.8Q370 645 377.5 645Q385 645 387.5 637.5ZM227.5 668.8Q227.5 667.5 231.3 667.5Q235 667.5 235 668.8Q235 670 238.8 672.5Q242.5 675 242.5 680Q242.5 685 241.3 685Q240 685 235 685Q230 685 230 683.8Q230 682.5 228.8 682.5Q227.5 682.5 227.5 680Q227.5 677.5 226.3 677.5Q225 677.5 225 673.8Q225 670 226.3 670Q227.5 670 227.5 668.8ZM306.3 697.5Q307.5 695 310 695Q312.5 695 312.5 698.8Q312.5 702.5 311.3 702.5Q310 702.5 310 705Q310 707.5 308.8 707.5Q307.5 707.5 307.5 711.3Q307.5 715 313.8 720Q320 725 321.3 731.3Q322.5 737.5 321.3 737.5Q320 737.5 320 741.3Q320 745 318.8 745Q317.5 745 317.5 747.5Q317.5 750 316.3 750Q315 750 313.8 752.5Q312.5 755 307.5 755Q302.5 755 302.5 753.8Q302.5 752.5 298.8 752.5Q295 752.5 295 751.3Q295 750 293.8 750Q292.5 750 281.3 748.8Q270 747.5 270 746.3Q270 745 268.8 745Q267.5 745 267.5 740Q267.5 735 270 733.8Q272.5 732.5 272.5 726.3Q272.5 720 276.3 718.8Q280 717.5 280 716.3Q280 715 282.5 715Q285 715 290 708.8Q295 702.5 300 701.3Q305 700 306.3 697.5ZM353.8 777.5Q357.5 772.5 361.3 772.5Q365 772.5 366.3 776.3Q367.5 780 368.8 780Q370 780 370 783.8Q370 787.5 371.3 787.5Q372.5 787.5 372.5 791.3Q372.5 795 371.3 795Q370 795 370 797.5Q370 800 371.3 800Q372.5 800 371.3 808.8Q370 817.5 371.3 817.5Q372.5 817.5 372.5 818.8Q372.5 820 375 821.3Q377.5 822.5 377.5 825Q377.5 827.5 378.8 827.5Q380 827.5 380 831.3Q380 835 378.8 835Q377.5 835 376.3 837.5Q375 840 368.8 840Q362.5 840 362.5 846.3Q362.5 852.5 361.3 852.5Q360 852.5 360 855Q360 857.5 358.8 857.5Q357.5 857.5 356.3 860Q355 862.5 351.3 862.5Q347.5 862.5 347.5 863.8Q347.5 865 346.3 865Q345 865 345 863.8Q345 862.5 338.8 862.5Q332.5 862.5 332.5 861.3Q332.5 860 325 858.8Q317.5 857.5 317.5 856.3Q317.5 855 312.5 853.8Q307.5 852.5 306.3 850Q305 847.5 295 847.5Q285 847.5 285 846.3Q285 845 280 843.8Q275 842.5 271.3 837.5Q267.5 832.5 265 832.5Q262.5 832.5 262.5 830Q262.5 827.5 261.3 827.5Q260 827.5 260 821.3Q260 815 265 813.8Q270 812.5 270 813.8Q270 815 272.5 815Q275 815 281.3 822.5Q287.5 830 293.8 831.3Q300 832.5 301.3 826.3Q302.5 820 303.8 820Q305 820 305 818.8Q305 817.5 306.3 817.5Q307.5 817.5 307.5 816.3Q307.5 815 308.8 815Q310 815 316.3 807.5Q322.5 800 331.3 797.5Q340 795 340 793.8Q340 792.5 343.8 790Q347.5 787.5 347.5 785Q347.5 782.5 348.8 782.5Q350 782.5 353.8 777.5Z" fill-rule="evenodd" fill="#9aa978"/><path d="M381.3 155Q382.5 152.5 387.5 152.5Q392.5 152.5 392.5 153.8Q392.5 155 396.3 157.5Q400 160 400 166.3Q400 172.5 398.8 172.5Q397.5 172.5 397.5 173.8Q397.5 175 395 176.3Q392.5 177.5 392.5 180Q392.5 182.5 391.3 182.5Q390 182.5 390 183.8Q390 185 388.8 185Q387.5 185 387.5 186.3Q387.5 187.5 380 193.8Q372.5 200 370 203.8Q367.5 207.5 365 207.5Q362.5 207.5 362.5 202.5Q362.5 197.5 363.8 197.5Q365 197.5 365 193.8Q365 190 366.3 190Q367.5 190 368.8 182.5Q370 175 371.3 175Q372.5 175 372.5 172.5Q372.5 170 373.8 170Q375 170 375 167.5Q375 165 376.3 165Q377.5 165 377.5 161.3Q377.5 157.5 378.8 157.5Q380 157.5 381.3 155ZM718.8 267.5Q720 265 726.3 265Q732.5 265 732.5 266.3Q732.5 267.5 736.3 268.8Q740 270 740 276.3Q740 282.5 738.8 282.5Q737.5 282.5 737.5 283.8Q737.5 285 728.8 283.8Q720 282.5 720 286.3Q720 290 722.5 291.3Q725 292.5 725 301.3Q725 310 723.8 310Q722.5 310 722.5 311.3Q722.5 312.5 715 312.5Q707.5 312.5 707.5 311.3Q707.5 310 703.8 308.8Q700 307.5 700 302.5Q700 297.5 701.3 297.5Q702.5 297.5 702.5 295Q702.5 292.5 703.8 292.5Q705 292.5 707.5 285Q710 277.5 712.5 276.3Q715 275 715 272.5Q715 270 716.3 270Q717.5 270 718.8 267.5ZM402.5 303.8Q402.5 302.5 406.3 303.8Q410 305 410 306.3Q410 307.5 412.5 308.8Q415 310 415 312.5Q415 315 416.3 315Q417.5 315 417.5 320Q417.5 325 416.3 325Q415 325 415 326.3Q415 327.5 411.3 327.5Q407.5 327.5 407.5 326.3Q407.5 325 406.3 325Q405 325 403.8 318.8Q402.5 312.5 401.3 312.5Q400 312.5 400 308.8Q400 305 401.3 305Q402.5 305 402.5 303.8ZM656.3 345Q657.5 342.5 662.5 342.5Q667.5 342.5 667.5 345Q667.5 347.5 668.8 347.5Q670 347.5 670 352.5Q670 357.5 671.3 357.5Q672.5 357.5 671.3 363.8Q670 370 665 373.8Q660 377.5 656.3 377.5Q652.5 377.5 652.5 376.3Q652.5 375 650 375Q647.5 375 647.5 372.5Q647.5 370 646.3 370Q645 370 645 362.5Q645 355 646.3 355Q647.5 355 647.5 352.5Q647.5 350 651.3 348.8Q655 347.5 656.3 345ZM605 378.8Q605 377.5 613.8 377.5Q622.5 377.5 622.5 378.8Q622.5 380 623.8 380Q625 380 623.8 383.8Q622.5 387.5 621.3 387.5Q620 387.5 620 391.3Q620 395 618.8 395Q617.5 395 617.5 397.5Q617.5 400 616.3 400Q615 400 615 402.5Q615 405 613.8 405Q612.5 405 612.5 407.5Q612.5 410 611.3 410Q610 410 610 415Q610 420 608.8 420Q607.5 420 607.5 421.3Q607.5 422.5 603.8 422.5Q600 422.5 598.8 416.3Q597.5 410 596.3 410Q595 410 595 405Q595 400 593.8 400Q592.5 400 593.8 392.5Q595 385 596.3 385Q597.5 385 598.8 382.5Q600 380 602.5 380Q605 380 605 378.8ZM637.5 398.8Q640 395 647.5 395Q655 395 655 396.3Q655 397.5 656.3 397.5Q657.5 397.5 657.5 402.5Q657.5 407.5 653.8 408.8Q650 410 648.8 412.5Q647.5 415 645 415Q642.5 415 641.3 418.8Q640 422.5 638.8 422.5Q637.5 422.5 637.5 425Q637.5 427.5 636.3 427.5Q635 427.5 635 430Q635 432.5 636.3 432.5Q637.5 432.5 637.5 437.5Q637.5 442.5 638.8 442.5Q640 442.5 640 446.3Q640 450 636.3 451.3Q632.5 452.5 632.5 453.8Q632.5 455 627.5 455Q622.5 455 622.5 456.3Q622.5 457.5 617.5 457.5Q612.5 457.5 612.5 458.8Q612.5 460 610 460Q607.5 460 607.5 465Q607.5 470 608.8 470Q610 470 611.3 472.5Q612.5 475 616.3 475Q620 475 620 476.3Q620 477.5 622.5 478.8Q625 480 625 487.5Q625 495 626.3 495Q627.5 495 627.5 497.5Q627.5 500 626.3 500Q625 500 625 505Q625 510 621.3 511.3Q617.5 512.5 617.5 511.3Q617.5 510 611.3 508.8Q605 507.5 605 508.8Q605 510 602.5 511.3Q600 512.5 600 526.3Q600 540 598.8 540Q597.5 540 595 543.8Q592.5 547.5 586.3 547.5Q580 547.5 580 548.8Q580 550 573.8 551.3Q567.5 552.5 566.3 555Q565 557.5 558.8 557.5Q552.5 557.5 552.5 558.8Q552.5 560 545 560Q537.5 560 537.5 558.8Q537.5 557.5 536.3 557.5Q535 557.5 533.8 553.8Q532.5 550 533.8 550Q535 550 535 548.8Q535 547.5 540 547.5Q545 547.5 545 546.3Q545 545 547.5 545Q550 545 550 542.5Q550 540 551.3 540Q552.5 540 552.5 532.5Q552.5 525 541.3 526.3Q530 527.5 530 526.3Q530 525 526.3 523.8Q522.5 522.5 522.5 516.3Q522.5 510 523.8 510Q525 510 527.5 506.3Q530 502.5 532.5 502.5Q535 502.5 535 501.3Q535 500 537.5 500Q540 500 540 498.8Q540 497.5 542.5 496.3Q545 495 545 490Q545 485 543.8 485Q542.5 485 541.3 480Q540 475 541.3 475Q542.5 475 542.5 473.8Q542.5 472.5 547.5 472.5Q552.5 472.5 552.5 473.8Q552.5 475 555 475Q557.5 475 557.5 476.3Q557.5 477.5 562.5 477.5Q567.5 477.5 567.5 476.3Q567.5 475 570 473.8Q572.5 472.5 572.5 470Q572.5 467.5 573.8 467.5Q575 467.5 575 465Q575 462.5 576.3 462.5Q577.5 462.5 577.5 460Q577.5 457.5 578.8 457.5Q580 457.5 580 453.8Q580 450 581.3 450Q582.5 450 582.5 447.5Q582.5 445 583.8 445Q585 445 586.3 442.5Q587.5 440 590 440Q592.5 440 592.5 441.3Q592.5 442.5 595 442.5Q597.5 442.5 597.5 443.8Q597.5 445 605 443.8Q612.5 442.5 613.8 438.8Q615 435 616.3 435Q617.5 435 617.5 430Q617.5 425 618.8 425Q620 425 620 422.5Q620 420 623.8 417.5Q627.5 415 627.5 412.5Q627.5 410 630 408.8Q632.5 407.5 632.5 405Q632.5 402.5 633.8 402.5Q635 402.5 637.5 398.8ZM413.8 448.8Q415 445 420 445Q425 445 425 446.3Q425 447.5 427.5 447.5Q430 447.5 430 448.8Q430 450 432.5 451.3Q435 452.5 435 458.8Q435 465 432.5 465Q430 465 430 466.3Q430 467.5 426.3 467.5Q422.5 467.5 422.5 466.3Q422.5 465 420 465Q417.5 465 417.5 463.8Q417.5 462.5 415 461.3Q412.5 460 411.3 456.3Q410 452.5 411.3 452.5Q412.5 452.5 413.8 448.8ZM255 456.3Q255 455 258.8 455Q262.5 455 262.5 456.3Q262.5 457.5 263.8 457.5Q265 457.5 265 461.3Q265 465 263.8 465Q262.5 465 261.3 470Q260 475 256.3 476.3Q252.5 477.5 248.8 476.3Q245 475 243.8 468.8Q242.5 462.5 243.8 462.5Q245 462.5 246.3 460Q247.5 457.5 251.3 457.5Q255 457.5 255 456.3ZM357.5 483.8Q357.5 482.5 362.5 483.8Q367.5 485 366.3 490Q365 495 363.8 495Q362.5 495 361.3 497.5Q360 500 357.5 500Q355 500 355 501.3Q355 502.5 348.8 501.3Q342.5 500 338.8 500Q335 500 335 498.8Q335 497.5 332.5 497.5Q330 497.5 330 496.3Q330 495 331.3 495Q332.5 495 333.8 492.5Q335 490 338.8 490Q342.5 490 342.5 488.8Q342.5 487.5 345 487.5Q347.5 487.5 347.5 486.3Q347.5 485 352.5 485Q357.5 485 357.5 483.8ZM221.3 490Q222.5 487.5 227.5 487.5Q232.5 487.5 232.5 488.8Q232.5 490 233.8 490Q235 490 235 495Q235 500 231.3 501.3Q227.5 502.5 227.5 503.8Q227.5 505 223.8 505Q220 505 220 503.8Q220 502.5 217.5 501.3Q215 500 216.3 496.3Q217.5 492.5 218.8 492.5Q220 492.5 221.3 490ZM795 511.3Q795 510 796.3 510Q797.5 510 797.5 511.3Q797.5 512.5 800 513.8Q802.5 515 802.5 517.5Q802.5 520 803.8 520Q805 520 805 530Q805 540 803.8 540Q802.5 540 800 543.8Q797.5 547.5 793.8 547.5Q790 547.5 790 548.8Q790 550 786.3 550Q782.5 550 782.5 548.8Q782.5 547.5 781.3 547.5Q780 547.5 776.3 552.5Q772.5 557.5 767.5 557.5Q762.5 557.5 761.3 555Q760 552.5 757.5 551.3Q755 550 755 542.5Q755 535 756.3 535Q757.5 535 757.5 532.5Q757.5 530 758.8 530Q760 530 762.5 526.3Q765 522.5 768.8 522.5Q772.5 522.5 773.8 526.3Q775 530 776.3 530Q777.5 530 778.8 532.5Q780 535 782.5 535Q785 535 785 532.5Q785 530 786.3 530Q787.5 530 787.5 523.8Q787.5 517.5 788.8 517.5Q790 517.5 790 515Q790 512.5 792.5 512.5Q795 512.5 795 511.3ZM713.8 520Q715 517.5 720 517.5Q725 517.5 725 518.8Q725 520 726.3 520Q727.5 520 727.5 525Q727.5 530 728.8 530Q730 530 730 531.3Q730 532.5 732.5 533.8Q735 535 735 537.5Q735 540 737.5 541.3Q740 542.5 740 546.3Q740 550 738.8 550Q737.5 550 736.3 553.8Q735 557.5 731.3 557.5Q727.5 557.5 725 565Q722.5 572.5 721.3 572.5Q720 572.5 718.8 575Q717.5 577.5 715 577.5Q712.5 577.5 710 577.5Q707.5 577.5 707.5 576.3Q707.5 575 705 575Q702.5 575 701.3 572.5Q700 570 696.3 568.8Q692.5 567.5 692.5 565Q692.5 562.5 690 561.3Q687.5 560 687.5 555Q687.5 550 691.3 548.8Q695 547.5 695 546.3Q695 545 698.8 542.5Q702.5 540 703.8 535Q705 530 707.5 528.8Q710 527.5 710 525Q710 522.5 711.3 522.5Q712.5 522.5 713.8 520ZM428.8 553.8Q430 550 433.8 550Q437.5 550 437.5 551.3Q437.5 552.5 440 553.8Q442.5 555 442.5 560Q442.5 565 441.3 565Q440 565 438.8 567.5Q437.5 570 432.5 570Q427.5 570 427.5 568.8Q427.5 567.5 426.3 567.5Q425 567.5 425 562.5Q425 557.5 426.3 557.5Q427.5 557.5 428.8 553.8ZM150 553.8Q150 552.5 161.3 552.5Q172.5 552.5 172.5 553.8Q172.5 555 175 556.3Q177.5 557.5 177.5 565Q177.5 572.5 176.3 572.5Q175 572.5 175 573.8Q175 575 171.3 575Q167.5 575 167.5 576.3Q167.5 577.5 166.3 577.5Q165 577.5 165 576.3Q165 575 161.3 575Q157.5 575 157.5 573.8Q157.5 572.5 155 572.5Q152.5 572.5 152.5 571.3Q152.5 570 150 570Q147.5 570 147.5 568.8Q147.5 567.5 145 567.5Q142.5 567.5 142.5 566.3Q142.5 565 135 565Q127.5 565 127.5 563.8Q127.5 562.5 126.3 562.5Q125 562.5 126.3 560Q127.5 557.5 131.3 557.5Q135 557.5 135 556.3Q135 555 142.5 555Q150 555 150 553.8ZM645 571.3Q645 570 648.8 570Q652.5 570 653.8 572.5Q655 575 653.8 575Q652.5 575 650 578.8Q647.5 582.5 645 582.5Q642.5 582.5 641.3 585Q640 587.5 635 587.5Q630 587.5 627.5 587.5Q625 587.5 625 586.3Q625 585 622.5 583.8Q620 582.5 620 578.8Q620 575 621.3 575Q622.5 575 622.5 573.8Q622.5 572.5 633.8 572.5Q645 572.5 645 571.3ZM606.3 662.5Q607.5 660 612.5 660Q617.5 660 617.5 665Q617.5 670 616.3 670Q615 670 613.8 672.5Q612.5 675 608.8 675Q605 675 605 682.5Q605 690 603.8 690Q602.5 690 602.5 693.8Q602.5 697.5 601.3 697.5Q600 697.5 598.8 702.5Q597.5 707.5 596.3 707.5Q595 707.5 595 708.8Q595 710 588.8 710Q582.5 710 580 710Q577.5 710 577.5 702.5Q577.5 695 575 693.8Q572.5 692.5 572.5 687.5Q572.5 682.5 573.8 682.5Q575 682.5 575 680Q575 677.5 578.8 676.3Q582.5 675 583.8 672.5Q585 670 592.5 668.8Q600 667.5 600 666.3Q600 665 602.5 665Q605 665 606.3 662.5ZM387.5 671.3Q387.5 670 391.3 670Q395 670 395 671.3Q395 672.5 397.5 673.8Q400 675 400 677.5Q400 680 403.8 682.5Q407.5 685 407.5 690Q407.5 695 406.3 695Q405 695 403.8 698.8Q402.5 702.5 400 702.5Q397.5 702.5 396.3 707.5Q395 712.5 396.3 712.5Q397.5 712.5 397.5 713.8Q397.5 715 403.8 715Q410 715 410 716.3Q410 717.5 412.5 717.5Q415 717.5 415 722.5Q415 727.5 413.8 727.5Q412.5 727.5 412.5 730Q412.5 732.5 410 733.8Q407.5 735 407.5 737.5Q407.5 740 412.5 741.3Q417.5 742.5 417.5 745Q417.5 747.5 418.8 747.5Q420 747.5 420 750Q420 752.5 421.3 752.5Q422.5 752.5 422.5 758.8Q422.5 765 421.3 765Q420 765 418.8 768.8Q417.5 772.5 413.8 773.8Q410 775 410 776.3Q410 777.5 403.8 777.5Q397.5 777.5 397.5 776.3Q397.5 775 393.8 772.5Q390 770 390 766.3Q390 762.5 391.3 762.5Q392.5 762.5 392.5 761.3Q392.5 760 391.3 760Q390 760 390 758.8Q390 757.5 386.3 758.8Q382.5 760 382.5 758.8Q382.5 757.5 378.8 755Q375 752.5 375 750Q375 747.5 373.8 747.5Q372.5 747.5 373.8 741.3Q375 735 376.3 735Q377.5 735 377.5 706.3Q377.5 677.5 378.8 677.5Q380 677.5 381.3 675Q382.5 672.5 385 672.5Q387.5 672.5 387.5 671.3ZM553.8 705Q555 702.5 562.5 702.5Q570 702.5 570 705Q570 707.5 571.3 707.5Q572.5 707.5 572.5 710Q572.5 712.5 573.8 712.5Q575 712.5 575 715Q575 717.5 573.8 717.5Q572.5 717.5 571.3 720Q570 722.5 563.8 722.5Q557.5 722.5 557.5 721.3Q557.5 720 553.8 718.8Q550 717.5 550 712.5Q550 707.5 551.3 707.5Q552.5 707.5 553.8 705ZM342.5 723.8Q342.5 722.5 347.5 722.5Q352.5 722.5 352.5 723.8Q352.5 725 355 725Q357.5 725 358.8 728.8Q360 732.5 362.5 733.8Q365 735 365 738.8Q365 742.5 363.8 742.5Q362.5 742.5 360 746.3Q357.5 750 350 750Q342.5 750 342.5 748.8Q342.5 747.5 338.8 745Q335 742.5 335 735Q335 727.5 338.8 726.3Q342.5 725 342.5 723.8ZM270 736.3Q270 735 290 736.3Q310 737.5 310 738.8Q310 740 312.5 740Q315 740 315 746.3Q315 752.5 313.8 752.5Q312.5 752.5 312.5 753.8Q312.5 755 307.5 755Q302.5 755 302.5 753.8Q302.5 752.5 298.8 752.5Q295 752.5 295 751.3Q295 750 292.5 750Q290 750 290 748.8Q290 747.5 280 747.5Q270 747.5 270 746.3Q270 745 268.8 745Q267.5 745 267.5 741.3Q267.5 737.5 268.8 737.5Q270 737.5 270 736.3ZM362.5 821.3Q362.5 820 367.5 820Q372.5 820 372.5 821.3Q372.5 822.5 376.3 825Q380 827.5 380 831.3Q380 835 378.8 835Q377.5 835 376.3 837.5Q375 840 368.8 840Q362.5 840 362.5 846.3Q362.5 852.5 361.3 852.5Q360 852.5 360 855Q360 857.5 358.8 857.5Q357.5 857.5 356.3 860Q355 862.5 351.3 862.5Q347.5 862.5 347.5 863.8Q347.5 865 346.3 865Q345 865 345 863.8Q345 862.5 341.3 862.5Q337.5 862.5 331.3 861.3Q325 860 321.3 855Q317.5 850 318.8 850Q320 850 321.3 847.5Q322.5 845 325 845Q327.5 845 327.5 843.8Q327.5 842.5 330 842.5Q332.5 842.5 332.5 841.3Q332.5 840 340 837.5Q347.5 835 347.5 833.8Q347.5 832.5 348.8 832.5Q350 832.5 353.8 827.5Q357.5 822.5 360 822.5Q362.5 822.5 362.5 821.3Z" fill-rule="evenodd" fill="#8a996d"/><path d="M276.3 110Q277.5 107.5 285 107.5Q292.5 107.5 292.5 108.8Q292.5 110 301.3 108.8Q310 107.5 310 108.8Q310 110 312.5 110Q315 110 315 112.5Q315 115 316.3 115Q317.5 115 317.5 121.3Q317.5 127.5 313.8 130Q310 132.5 310 136.3Q310 140 308.8 140Q307.5 140 307.5 141.3Q307.5 142.5 308.8 142.5Q310 142.5 310 147.5Q310 152.5 311.3 152.5Q312.5 152.5 312.5 160Q312.5 167.5 311.3 167.5Q310 167.5 308.8 171.3Q307.5 175 305 175Q302.5 175 302.5 176.3Q302.5 177.5 297.5 177.5Q292.5 177.5 292.5 176.3Q292.5 175 288.8 172.5Q285 170 285 166.3Q285 162.5 283.8 162.5Q282.5 162.5 282.5 161.3Q282.5 160 281.3 160Q280 160 280 161.3Q280 162.5 276.3 161.3Q272.5 160 272.5 156.3Q272.5 152.5 275 151.3Q277.5 150 278.8 152.5Q280 155 282.5 155Q285 155 286.3 145Q287.5 135 285 135Q282.5 135 281.3 138.8Q280 142.5 273.8 141.3Q267.5 140 267.5 141.3Q267.5 142.5 265 142.5Q262.5 142.5 261.3 145Q260 147.5 252.5 147.5Q245 147.5 245 145Q245 142.5 243.8 142.5Q242.5 142.5 242.5 137.5Q242.5 132.5 243.8 132.5Q245 132.5 245 130Q245 127.5 247.5 126.3Q250 125 250 122.5Q250 120 252.5 120Q255 120 255 118.8Q255 117.5 258.8 117.5Q262.5 117.5 262.5 121.3Q262.5 125 265 125Q267.5 125 267.5 123.8Q267.5 122.5 271.3 120Q275 117.5 273.8 115Q272.5 112.5 273.8 112.5Q275 112.5 276.3 110ZM390 136.3Q390 135 396.3 136.3Q402.5 137.5 405 141.3Q407.5 145 417.5 145Q427.5 145 427.5 143.8Q427.5 142.5 430 142.5Q432.5 142.5 432.5 141.3Q432.5 140 435 140Q437.5 140 437.5 138.8Q437.5 137.5 440 137.5Q442.5 137.5 442.5 136.3Q442.5 135 450 135Q457.5 135 458.8 137.5Q460 140 462.5 140Q465 140 465 145Q465 150 463.8 150Q462.5 150 462.5 151.3Q462.5 152.5 457.5 152.5Q452.5 152.5 452.5 153.8Q452.5 155 447.5 155Q442.5 155 442.5 156.3Q442.5 157.5 441.3 157.5Q440 157.5 440 161.3Q440 165 441.3 165Q442.5 165 442.5 167.5Q442.5 170 445 171.3Q447.5 172.5 447.5 176.3Q447.5 180 452.5 180Q457.5 180 457.5 181.3Q457.5 182.5 460 182.5Q462.5 182.5 462.5 183.8Q462.5 185 466.3 187.5Q470 190 470 192.5Q470 195 471.3 195Q472.5 195 471.3 203.8Q470 212.5 468.8 212.5Q467.5 212.5 462.5 218.8Q457.5 225 455 225Q452.5 225 452.5 226.3Q452.5 227.5 448.8 228.8Q445 230 445 231.3Q445 232.5 440 232.5Q435 232.5 436.3 227.5Q437.5 222.5 438.8 222.5Q440 222.5 442.5 218.8Q445 215 447.5 215Q450 215 450 212.5Q450 210 451.3 210Q452.5 210 452.5 205Q452.5 200 451.3 200Q450 200 450 197.5Q450 195 446.3 192.5Q442.5 190 442.5 187.5Q442.5 185 440 185Q437.5 185 437.5 183.8Q437.5 182.5 435 182.5Q432.5 182.5 432.5 181.3Q432.5 180 427.5 180Q422.5 180 421.3 182.5Q420 185 416.3 186.3Q412.5 187.5 413.8 200Q415 212.5 413.8 212.5Q412.5 212.5 411.3 222.5Q410 232.5 408.8 232.5Q407.5 232.5 406.3 235Q405 237.5 398.8 235Q392.5 232.5 392.5 230Q392.5 227.5 391.3 227.5Q390 227.5 390 225Q390 222.5 391.3 222.5Q392.5 222.5 392.5 217.5Q392.5 212.5 391.3 212.5Q390 212.5 390 210Q390 207.5 386.3 205Q382.5 202.5 382.5 198.8Q382.5 195 383.8 195Q385 195 385 192.5Q385 190 387.5 190Q390 190 390 188.8Q390 187.5 395 187.5Q400 187.5 400 186.3Q400 185 401.3 185Q402.5 185 402.5 175Q402.5 165 401.3 165Q400 165 400 161.3Q400 157.5 398.8 157.5Q397.5 157.5 397.5 156.3Q397.5 155 395 155Q392.5 155 391.3 152.5Q390 150 387.5 150Q385 150 385 143.8Q385 137.5 387.5 137.5Q390 137.5 390 136.3ZM260 171.3Q260 170 263.8 170Q267.5 170 267.5 171.3Q267.5 172.5 270 173.8Q272.5 175 272.5 181.3Q272.5 187.5 268.8 188.8Q265 190 260 188.8Q255 187.5 255 185Q255 182.5 253.8 182.5Q252.5 182.5 252.5 178.8Q252.5 175 256.3 173.8Q260 172.5 260 171.3ZM200 198.8Q200 197.5 205 197.5Q210 197.5 210 198.8Q210 200 212.5 200Q215 200 215 201.3Q215 202.5 218.8 202.5Q222.5 202.5 222.5 203.8Q222.5 205 230 205Q237.5 205 237.5 206.3Q237.5 207.5 238.8 207.5Q240 207.5 240 212.5Q240 217.5 236.3 218.8Q232.5 220 232.5 221.3Q232.5 222.5 216.3 221.3Q200 220 200 225Q200 230 201.3 230Q202.5 230 203.8 232.5Q205 235 210 236.3Q215 237.5 215 238.8Q215 240 221.3 245Q227.5 250 227.5 253.8Q227.5 257.5 223.8 258.8Q220 260 220 261.3Q220 262.5 216.3 262.5Q212.5 262.5 210 266.3Q207.5 270 206.3 270Q205 270 201.3 275Q197.5 280 195 280Q192.5 280 187.5 286.3Q182.5 292.5 176.3 292.5Q170 292.5 168.8 288.8Q167.5 285 166.3 285Q165 285 165 282.5Q165 280 163.8 280Q162.5 280 162.5 277.5Q162.5 275 161.3 275Q160 275 160 263.8Q160 252.5 161.3 252.5Q162.5 252.5 162.5 245Q162.5 237.5 163.8 237.5Q165 237.5 165 232.5Q165 227.5 166.3 227.5Q167.5 227.5 167.5 225Q167.5 222.5 171.3 220Q175 217.5 175 215Q175 212.5 176.3 212.5Q177.5 212.5 178.8 210Q180 207.5 182.5 207.5Q185 207.5 185 206.3Q185 205 187.5 205Q190 205 190 203.8Q190 202.5 192.5 202.5Q195 202.5 195 201.3Q195 200 197.5 200Q200 200 200 198.8ZM580 206.3Q580 205 581.3 205Q582.5 205 583.8 207.5Q585 210 587.5 210Q590 210 591.3 212.5Q592.5 215 595 215Q597.5 215 597.5 216.3Q597.5 217.5 605 218.8Q612.5 220 612.5 221.3Q612.5 222.5 617.5 226.3Q622.5 230 622.5 232.5Q622.5 235 623.8 235Q625 235 625 237.5Q625 240 626.3 240Q627.5 240 627.5 248.8Q627.5 257.5 626.3 257.5Q625 257.5 625 260Q625 262.5 623.8 262.5Q622.5 262.5 620 266.3Q617.5 270 612.5 271.3Q607.5 272.5 606.3 272.5Q605 272.5 605 271.3Q605 270 602.5 270Q600 270 600 271.3Q600 272.5 597.5 272.5Q595 272.5 595 271.3Q595 270 588.8 270Q582.5 270 582.5 268.8Q582.5 267.5 580 267.5Q577.5 267.5 577.5 266.3Q577.5 265 575 265Q572.5 265 572.5 263.8Q572.5 262.5 570 262.5Q567.5 262.5 567.5 261.3Q567.5 260 565 258.8Q562.5 257.5 562.5 253.8Q562.5 250 563.8 250Q565 250 565 246.3Q565 242.5 566.3 242.5Q567.5 242.5 567.5 238.8Q567.5 235 568.8 235Q570 235 570 227.5Q570 220 571.3 220Q572.5 220 573.8 213.8Q575 207.5 577.5 207.5Q580 207.5 580 206.3ZM536.3 248.8Q537.5 245 540 245Q542.5 245 542.5 246.3Q542.5 247.5 545 247.5Q547.5 247.5 547.5 248.8Q547.5 250 550 251.3Q552.5 252.5 552.5 265Q552.5 277.5 553.8 277.5Q555 277.5 557.5 281.3Q560 285 562.5 285Q565 285 565 286.3Q565 287.5 570 287.5Q575 287.5 575 288.8Q575 290 580 290Q585 290 585 291.3Q585 292.5 593.8 292.5Q602.5 292.5 603.8 290Q605 287.5 610 286.3Q615 285 613.8 291.3Q612.5 297.5 607.5 301.3Q602.5 305 601.3 308.8Q600 312.5 598.8 312.5Q597.5 312.5 596.3 315Q595 317.5 592.5 317.5Q590 317.5 590 318.8Q590 320 585 320Q580 320 580 318.8Q580 317.5 576.3 316.3Q572.5 315 572.5 313.8Q572.5 312.5 557.5 313.8Q542.5 315 542.5 313.8Q542.5 312.5 538.8 310Q535 307.5 535 305Q535 302.5 533.8 302.5Q532.5 302.5 532.5 300Q532.5 297.5 531.3 297.5Q530 297.5 530 295Q530 292.5 528.8 292.5Q527.5 292.5 527.5 286.3Q527.5 280 531.3 277.5Q535 275 535 267.5Q535 260 533.8 260Q532.5 260 532.5 256.3Q532.5 252.5 533.8 252.5Q535 252.5 536.3 248.8ZM291.3 277.5Q297.5 270 303.8 270Q310 270 310 271.3Q310 272.5 312.5 272.5Q315 272.5 315 275Q315 277.5 316.3 277.5Q317.5 277.5 318.8 281.3Q320 285 321.3 285Q322.5 285 323.8 295Q325 305 326.3 305Q327.5 305 330 308.8Q332.5 312.5 345 315Q357.5 317.5 357.5 318.8Q357.5 320 362.5 323.8Q367.5 327.5 367.5 330Q367.5 332.5 368.8 332.5Q370 332.5 370 348.8Q370 365 368.8 365Q367.5 365 367.5 366.3Q367.5 367.5 361.3 367.5Q355 367.5 355 366.3Q355 365 350 366.3Q345 367.5 343.8 371.3Q342.5 375 341.3 375Q340 375 341.3 380Q342.5 385 341.3 385Q340 385 337.5 381.3Q335 377.5 332.5 377.5Q330 377.5 330 376.3Q330 375 325 375Q320 375 320 377.5Q320 380 318.8 380Q317.5 380 317.5 382.5Q317.5 385 318.8 385Q320 385 318.8 397.5Q317.5 410 316.3 410Q315 410 312.5 417.5Q310 425 307.5 426.3Q305 427.5 305 430Q305 432.5 297.5 432.5Q290 432.5 290 431.3Q290 430 288.8 430Q287.5 430 287.5 421.3Q287.5 412.5 288.8 412.5Q290 412.5 290 410Q290 407.5 290 406.3Q290 405 291.3 405Q292.5 405 292.5 400Q292.5 395 291.3 395Q290 395 290 392.5Q290 390 285 386.3Q280 382.5 280 383.8Q280 385 278.8 385Q277.5 385 277.5 388.8Q277.5 392.5 276.3 392.5Q275 392.5 275 396.3Q275 400 272.5 401.3Q270 402.5 268.8 408.8Q267.5 415 263.8 415Q260 415 260 411.3Q260 407.5 261.3 407.5Q262.5 407.5 263.8 403.8Q265 400 263.8 400Q262.5 400 262.5 396.3Q262.5 392.5 261.3 392.5Q260 392.5 260 390Q260 387.5 258.8 387.5Q257.5 387.5 257.5 385Q257.5 382.5 256.3 382.5Q255 382.5 255 377.5Q255 372.5 258.8 371.3Q262.5 370 262.5 368.8Q262.5 367.5 266.3 365Q270 362.5 270 360Q270 357.5 271.3 357.5Q272.5 357.5 272.5 355Q272.5 352.5 273.8 352.5Q275 352.5 275 343.8Q275 335 276.3 335Q277.5 335 278.8 332.5Q280 330 286.3 328.8Q292.5 327.5 292.5 328.8Q292.5 330 300 331.3Q307.5 332.5 308.8 328.8Q310 325 311.3 325Q312.5 325 310 318.8Q307.5 312.5 297.5 312.5Q287.5 312.5 287.5 311.3Q287.5 310 283.8 310Q280 310 280 308.8Q280 307.5 277.5 306.3Q275 305 275 298.8Q275 292.5 276.3 292.5Q277.5 292.5 277.5 290Q277.5 287.5 280 287.5Q282.5 287.5 282.5 286.3Q282.5 285 283.8 285Q285 285 291.3 277.5ZM460 271.3Q460 270 466.3 270Q472.5 270 472.5 271.3Q472.5 272.5 475 272.5Q477.5 272.5 477.5 273.8Q477.5 275 487.5 276.3Q497.5 277.5 497.5 278.8Q497.5 280 501.3 282.5Q505 285 505 297.5Q505 310 506.3 310Q507.5 310 507.5 325Q507.5 340 506.3 340Q505 340 505 341.3Q505 342.5 487.5 341.3Q470 340 470 341.3Q470 342.5 467.5 342.5Q465 342.5 463.8 348.8Q462.5 355 461.3 355Q460 355 461.3 361.3Q462.5 367.5 463.8 367.5Q465 367.5 466.3 370Q467.5 372.5 470 372.5Q472.5 372.5 472.5 373.8Q472.5 375 477.5 375Q482.5 375 482.5 376.3Q482.5 377.5 485 377.5Q487.5 377.5 488.8 381.3Q490 385 491.3 385Q492.5 385 492.5 388.8Q492.5 392.5 493.8 392.5Q495 392.5 495 398.8Q495 405 493.8 405Q492.5 405 492.5 407.5Q492.5 410 491.3 410Q490 410 487.5 413.8Q485 417.5 478.8 417.5Q472.5 417.5 472.5 416.3Q472.5 415 468.8 415Q465 415 465 413.8Q465 412.5 457.5 411.3Q450 410 447.5 406.3Q445 402.5 442.5 402.5Q440 402.5 440 401.3Q440 400 436.3 398.8Q432.5 397.5 431.3 395Q430 392.5 425 391.3Q420 390 420 387.5Q420 385 418.8 385Q417.5 385 417.5 375Q417.5 365 416.3 365Q415 365 415 362.5Q415 360 411.3 358.8Q407.5 357.5 407.5 356.3Q407.5 355 405 355Q402.5 355 402.5 353.8Q402.5 352.5 400 351.3Q397.5 350 397.5 341.3Q397.5 332.5 398.8 332.5Q400 332.5 400 331.3Q400 330 405 330Q410 330 410 331.3Q410 332.5 415 331.3Q420 330 420 322.5Q420 315 417.5 313.8Q415 312.5 415 306.3Q415 300 418.8 297.5Q422.5 295 425 286.3Q427.5 277.5 428.8 277.5Q430 277.5 431.3 275Q432.5 272.5 438.8 272.5Q445 272.5 445 273.8Q445 275 446.3 275Q447.5 275 447.5 273.8Q447.5 272.5 453.8 272.5Q460 272.5 460 271.3ZM225 283.8Q225 282.5 230 282.5Q235 282.5 235 283.8Q235 285 237.5 285Q240 285 240 286.3Q240 287.5 242.5 288.8Q245 290 245 293.8Q245 297.5 243.8 297.5Q242.5 297.5 242.5 300Q242.5 302.5 240 302.5Q237.5 302.5 237.5 303.8Q237.5 305 232.5 305Q227.5 305 227.5 306.3Q227.5 307.5 225 307.5Q222.5 307.5 222.5 308.8Q222.5 310 220 311.3Q217.5 312.5 216.3 312.5Q215 312.5 215 313.8Q215 315 208.8 315Q202.5 315 202.5 313.8Q202.5 312.5 201.3 312.5Q200 312.5 200 306.3Q200 300 202.5 300Q205 300 210 293.8Q215 287.5 217.5 287.5Q220 287.5 220 286.3Q220 285 222.5 285Q225 285 225 283.8ZM458.8 297.5Q457.5 297.5 456.3 297.5Q455 297.5 455 298.8Q455 300 451.3 302.5Q447.5 305 447.5 307.5Q447.5 310 446.3 310Q445 310 445 313.8Q445 317.5 446.3 317.5Q447.5 317.5 447.5 318.8Q447.5 320 451.3 320Q455 320 456.3 316.3Q457.5 312.5 458.8 312.5Q460 312.5 460 305Q460 297.5 458.8 297.5ZM680 343.8Q680 342.5 681.3 342.5Q682.5 342.5 682.5 343.8Q682.5 345 686.3 345Q690 345 690 346.3Q690 347.5 693.8 350Q697.5 352.5 697.5 355Q697.5 357.5 698.8 357.5Q700 357.5 700 376.3Q700 395 698.8 395Q697.5 395 696.3 401.3Q695 407.5 693.8 407.5Q692.5 407.5 688.8 412.5Q685 417.5 681.3 417.5Q677.5 417.5 677.5 416.3Q677.5 415 676.3 415Q675 415 673.8 415Q672.5 415 672.5 412.5Q672.5 410 671.3 410Q670 410 670 406.3Q670 402.5 668.8 402.5Q667.5 402.5 665 398.8Q662.5 395 660 395Q657.5 395 657.5 393.8Q657.5 392.5 655 391.3Q652.5 390 652.5 387.5Q652.5 385 653.8 385Q655 385 656.3 381.3Q657.5 377.5 660 377.5Q662.5 377.5 662.5 376.3Q662.5 375 666.3 372.5Q670 370 670 367.5Q670 365 671.3 365Q672.5 365 672.5 356.3Q672.5 347.5 676.3 346.3Q680 345 680 343.8ZM132.5 403.8Q132.5 402.5 138.8 402.5Q145 402.5 145 403.8Q145 405 150 408.8Q155 412.5 155 415Q155 417.5 157.5 418.8Q160 420 161.3 426.3Q162.5 432.5 158.8 433.8Q155 435 155 433.8Q155 432.5 153.8 432.5Q152.5 432.5 151.3 430Q150 427.5 147.5 427.5Q145 427.5 145 426.3Q145 425 142.5 425Q140 425 140 426.3Q140 427.5 137.5 427.5Q135 427.5 135 428.8Q135 430 132.5 431.3Q130 432.5 130 438.8Q130 445 132.5 446.3Q135 447.5 135 450Q135 452.5 136.3 452.5Q137.5 452.5 138.8 456.3Q140 460 141.3 460Q142.5 460 142.5 465Q142.5 470 141.3 470Q140 470 138.8 472.5Q137.5 475 133.8 476.3Q130 477.5 115 477.5Q100 477.5 100 476.3Q100 475 97.5 475Q95 475 95 473.8Q95 472.5 92.5 471.3Q90 470 90 467.5Q90 465 88.8 465Q87.5 465 88.8 455Q90 445 87.5 443.8Q85 442.5 85 437.5Q85 432.5 86.3 432.5Q87.5 432.5 88.8 430Q90 427.5 92.5 427.5Q95 427.5 95 426.3Q95 425 101.3 426.3Q107.5 427.5 107.5 426.3Q107.5 425 108.8 425Q110 425 110 418.8Q110 412.5 111.3 412.5Q112.5 412.5 113.8 410Q115 407.5 118.8 407.5Q122.5 407.5 122.5 406.3Q122.5 405 125 406.3Q127.5 407.5 127.5 406.3Q127.5 405 130 405Q132.5 405 132.5 403.8ZM611.3 460Q612.5 457.5 618.8 457.5Q625 457.5 625 458.8Q625 460 626.3 460Q627.5 460 627.5 463.8Q627.5 467.5 626.3 467.5Q625 467.5 623.8 470Q622.5 472.5 616.3 472.5Q610 472.5 610 471.3Q610 470 608.8 470Q607.5 470 607.5 466.3Q607.5 462.5 608.8 462.5Q610 462.5 611.3 460ZM328.8 505Q330 502.5 340 502.5Q350 502.5 350 503.8Q350 505 352.5 505Q355 505 353.8 513.8Q352.5 522.5 361.3 523.8Q370 525 370 526.3Q370 527.5 372.5 527.5Q375 527.5 376.3 531.3Q377.5 535 378.8 535Q380 535 380 540Q380 545 378.8 545Q377.5 545 376.3 547.5Q375 550 365 548.8Q355 547.5 355 553.8Q355 560 353.8 560Q352.5 560 352.5 561.3Q352.5 562.5 347.5 562.5Q342.5 562.5 342.5 563.8Q342.5 565 340 565Q337.5 565 336.3 565Q335 565 333.8 567.5Q332.5 570 325 570Q317.5 570 317.5 568.8Q317.5 567.5 315 567.5Q312.5 567.5 312.5 566.3Q312.5 565 307.5 561.3Q302.5 557.5 302.5 550Q302.5 542.5 303.8 542.5Q305 542.5 305 540Q305 537.5 307.5 536.3Q310 535 310 532.5Q310 530 311.3 530Q312.5 530 313.8 527.5Q315 525 321.3 526.3Q327.5 527.5 327.5 526.3Q327.5 525 331.3 525Q335 525 335 523.8Q335 522.5 336.3 522.5Q337.5 522.5 337.5 520Q337.5 517.5 335 517.5Q332.5 517.5 331.3 515Q330 512.5 327.5 512.5Q325 512.5 325 510Q325 507.5 326.3 507.5Q327.5 507.5 328.8 505ZM487.5 551.3Q487.5 550 491.3 550Q495 550 495 551.3Q495 552.5 500 553.8Q505 555 505 556.3Q505 557.5 508.8 558.8Q512.5 560 515 563.8Q517.5 567.5 520 567.5Q522.5 567.5 522.5 568.8Q522.5 570 525 570Q527.5 570 527.5 571.3Q527.5 572.5 530 572.5Q532.5 572.5 532.5 573.8Q532.5 575 535 576.3Q537.5 577.5 537.5 582.5Q537.5 587.5 536.3 587.5Q535 587.5 535 588.8Q535 590 527.5 590Q520 590 520 591.3Q520 592.5 518.8 592.5Q517.5 592.5 518.8 602.5Q520 612.5 521.3 612.5Q522.5 612.5 522.5 616.3Q522.5 620 523.8 620Q525 620 525 622.5Q525 625 526.3 625Q527.5 625 527.5 633.8Q527.5 642.5 526.3 642.5Q525 642.5 522.5 646.3Q520 650 513.8 650Q507.5 650 507.5 651.3Q507.5 652.5 505 652.5Q502.5 652.5 501.3 657.5Q500 662.5 498.8 662.5Q497.5 662.5 495 666.3Q492.5 670 490 670Q487.5 670 487.5 671.3Q487.5 672.5 485 672.5Q482.5 672.5 482.5 673.8Q482.5 675 480 675Q477.5 675 477.5 676.3Q477.5 677.5 472.5 677.5Q467.5 677.5 467.5 678.8Q467.5 680 466.3 680Q465 680 465 678.8Q465 677.5 461.3 677.5Q457.5 677.5 457.5 676.3Q457.5 675 456.3 675Q455 675 451.3 670Q447.5 665 445 665Q442.5 665 442.5 663.8Q442.5 662.5 432.5 662.5Q422.5 662.5 421.3 656.3Q420 650 418.8 650Q417.5 650 417.5 648.8Q417.5 647.5 411.3 642.5Q405 637.5 405 635Q405 632.5 403.8 632.5Q402.5 632.5 401.3 622.5Q400 612.5 401.3 612.5Q402.5 612.5 402.5 608.8Q402.5 605 403.8 605Q405 605 406.3 600Q407.5 595 411.3 593.8Q415 592.5 415 591.3Q415 590 417.5 590Q420 590 420 588.8Q420 587.5 423.8 587.5Q427.5 587.5 427.5 586.3Q427.5 585 430 585Q432.5 585 432.5 583.8Q432.5 582.5 437.5 582.5Q442.5 582.5 442.5 583.8Q442.5 585 445 585Q447.5 585 447.5 586.3Q447.5 587.5 453.8 586.3Q460 585 460 582.5Q460 580 463.8 577.5Q467.5 575 467.5 572.5Q467.5 570 471.3 567.5Q475 565 475 562.5Q475 560 476.3 560Q477.5 560 480 556.3Q482.5 552.5 485 552.5Q487.5 552.5 487.5 551.3ZM287.5 591.3Q290 587.5 295 587.5Q300 587.5 300 588.8Q300 590 305 593.8Q310 597.5 310 600Q310 602.5 308.8 602.5Q307.5 602.5 306.3 605Q305 607.5 301.3 607.5Q297.5 607.5 297.5 608.8Q297.5 610 295 610Q292.5 610 292.5 611.3Q292.5 612.5 290 613.8Q287.5 615 286.3 621.3Q285 627.5 283.8 627.5Q282.5 627.5 282.5 633.8Q282.5 640 288.8 645Q295 650 295 655Q295 660 292.5 660Q290 660 290 661.3Q290 662.5 285 662.5Q280 662.5 270 662.5Q260 662.5 260 661.3Q260 660 255 656.3Q250 652.5 248.8 645Q247.5 637.5 248.8 637.5Q250 637.5 251.3 631.3Q252.5 625 256.3 622.5Q260 620 260 612.5Q260 605 261.3 605Q262.5 605 262.5 602.5Q262.5 600 263.8 600Q265 600 265 598.8Q265 597.5 272.5 597.5Q280 597.5 280 596.3Q280 595 282.5 595Q285 595 287.5 591.3Z" fill-rule="evenodd" fill="#d0d9b1"/><path d="M581.3 371.3Q580 367.5 586.3 367.5Q592.5 367.5 591.3 370Q590 372.5 586.3 373.8Q582.5 375 581.3 371.3ZM566.3 380Q565 377.5 572.5 380Q580 382.5 580 383.8Q580 385 582.5 386.3Q585 387.5 585 388.8Q585 390 583.8 390Q582.5 390 580 390Q577.5 390 577.5 388.8Q577.5 387.5 572.5 387.5Q567.5 387.5 568.8 385Q570 382.5 568.8 382.5Q567.5 382.5 566.3 380Z" fill-rule="evenodd" fill="#828d6e"/><path d="M572.5 368.8Q572.5 365 575 365Q577.5 365 577.5 367.5Q577.5 370 578.8 370Q580 370 580 371.3Q580 372.5 582.5 373.8Q585 375 585 377.5Q585 380 586.3 380Q587.5 380 587.5 382.5Q587.5 385 583.8 385Q580 385 580 383.8Q580 382.5 576.3 381.3Q572.5 380 568.8 378.8Q565 377.5 565 380Q565 382.5 563.8 382.5Q562.5 382.5 562.5 377.5Q562.5 372.5 565 371.3Q567.5 370 567.5 372.5Q567.5 375 568.8 375Q570 375 570 373.8Q570 372.5 571.3 372.5Q572.5 372.5 572.5 368.8ZM533.8 390Q535 387.5 537.5 387.5Q540 387.5 540 388.8Q540 390 543.8 391.3Q547.5 392.5 546.3 396.3Q545 400 543.8 400Q542.5 400 543.8 406.3Q545 412.5 546.3 412.5Q547.5 412.5 547.5 415Q547.5 417.5 548.8 417.5Q550 417.5 550 418.8Q550 420 547.5 421.3Q545 422.5 545 425Q545 427.5 550 430Q555 432.5 555 436.3Q555 440 556.3 440Q557.5 440 557.5 446.3Q557.5 452.5 556.3 452.5Q555 452.5 552.5 452.5Q550 452.5 550 448.8Q550 445 548.8 445Q547.5 445 546.3 437.5Q545 430 543.8 430Q542.5 430 542.5 427.5Q542.5 425 541.3 425Q540 425 540 422.5Q540 420 538.8 420Q537.5 420 537.5 418.8Q537.5 417.5 540 417.5Q542.5 417.5 541.3 412.5Q540 407.5 536.3 406.3Q532.5 405 532.5 403.8Q532.5 402.5 530 402.5Q527.5 402.5 527.5 400Q527.5 397.5 528.8 397.5Q530 397.5 530 395Q530 392.5 531.3 392.5Q532.5 392.5 533.8 390ZM507.5 458.8Q507.5 455 510 455Q512.5 455 513.8 457.5Q515 460 518.8 461.3Q522.5 462.5 522.5 467.5Q522.5 472.5 521.3 472.5Q520 472.5 518.8 478.8Q517.5 485 517.5 486.3Q517.5 487.5 513.8 487.5Q510 487.5 511.3 475Q512.5 462.5 510 462.5Q507.5 462.5 507.5 458.8ZM507.5 498.8Q507.5 497.5 511.3 498.8Q515 500 513.8 515Q512.5 530 510 530Q507.5 530 507.5 520Q507.5 510 506.3 510Q505 510 505 505Q505 500 506.3 500Q507.5 500 507.5 498.8ZM377.5 626.3Q377.5 625 390 625Q402.5 625 402.5 626.3Q402.5 627.5 405 627.5Q407.5 627.5 407.5 630Q407.5 632.5 403.8 632.5Q400 632.5 400 631.3Q400 630 388.8 630Q377.5 630 377.5 631.3Q377.5 632.5 375 632.5Q372.5 632.5 372.5 633.8Q372.5 635 370 635Q367.5 635 367.5 636.3Q367.5 637.5 363.8 638.8Q360 640 360 645Q360 650 357.5 650Q355 650 355 652.5Q355 655 353.8 655Q352.5 655 352.5 651.3Q352.5 647.5 350 647.5Q347.5 647.5 347.5 648.8Q347.5 650 345 650Q342.5 650 342.5 651.3Q342.5 652.5 340 652.5Q337.5 652.5 337.5 653.8Q337.5 655 335 655Q332.5 655 332.5 656.3Q332.5 657.5 326.3 658.8Q320 660 318.8 660Q317.5 660 317.5 661.3Q317.5 662.5 313.8 662.5Q310 662.5 310 663.8Q310 665 305 665Q300 665 300 666.3Q300 667.5 295 667.5Q290 667.5 291.3 663.8Q292.5 660 301.3 660Q310 660 310 658.8Q310 657.5 317.5 656.3Q325 655 325 653.8Q325 652.5 327.5 652.5Q330 652.5 330 651.3Q330 650 337.5 647.5Q345 645 346.3 641.3Q347.5 637.5 351.3 638.8Q355 640 356.3 637.5Q357.5 635 360 635Q362.5 635 362.5 633.8Q362.5 632.5 365 632.5Q367.5 632.5 367.5 631.3Q367.5 630 370 630Q372.5 630 372.5 628.8Q372.5 627.5 375 627.5Q377.5 627.5 377.5 626.3Z" fill-rule="evenodd" fill="#738060"/></svg>
